<svg width="216" height="44" viewBox="0 0 216 44" fill="none" xmlns="http://www.w3.org/2000/svg">
<g opacity="0.6">
<path opacity="0.6" d="M52.3596 30.9117C53.2836 30.9117 54.0256 31.2337 54.5856 31.8777C55.1549 32.5217 55.4396 33.4923 55.4396 34.7897C55.4396 36.0683 55.1549 37.039 54.5856 37.7017C54.0256 38.3643 53.2789 38.6957 52.3456 38.6957C51.7669 38.6957 51.2863 38.5883 50.9036 38.3737C50.5303 38.1497 50.2363 37.893 50.0216 37.6037H49.9376C49.9563 37.7623 49.9749 37.963 49.9936 38.2057C50.0123 38.4483 50.0216 38.6583 50.0216 38.8357V41.9157H48.7896V31.0517H49.7976L49.9656 32.0737H50.0216C50.2456 31.747 50.5396 31.4717 50.9036 31.2477C51.2676 31.0237 51.7529 30.9117 52.3596 30.9117ZM52.1356 31.9477C51.3703 31.9477 50.8289 32.1623 50.5116 32.5917C50.2036 33.021 50.0403 33.6743 50.0216 34.5517V34.7897C50.0216 35.7137 50.1709 36.4277 50.4696 36.9317C50.7776 37.4263 51.3423 37.6737 52.1636 37.6737C52.6209 37.6737 52.9943 37.5477 53.2836 37.2957C53.5823 37.0437 53.8016 36.703 53.9416 36.2737C54.0909 35.835 54.1656 35.3357 54.1656 34.7757C54.1656 33.917 53.9976 33.231 53.6616 32.7177C53.3349 32.2043 52.8263 31.9477 52.1356 31.9477ZM61.2449 30.9257C62.1596 30.9257 62.8362 31.1263 63.2749 31.5277C63.7136 31.929 63.9329 32.5683 63.9329 33.4457V38.5557H63.0369L62.7989 37.4917H62.7429C62.4162 37.9023 62.0709 38.2057 61.7069 38.4017C61.3522 38.5977 60.8576 38.6957 60.2229 38.6957C59.5416 38.6957 58.9769 38.5183 58.5289 38.1637C58.0809 37.7997 57.8569 37.235 57.8569 36.4697C57.8569 35.723 58.1509 35.149 58.7389 34.7477C59.3269 34.337 60.2322 34.113 61.4549 34.0757L62.7289 34.0337V33.5857C62.7289 32.9603 62.5936 32.5263 62.3229 32.2837C62.0522 32.041 61.6696 31.9197 61.1749 31.9197C60.7829 31.9197 60.4096 31.9803 60.0549 32.1017C59.7002 32.2137 59.3689 32.3443 59.0609 32.4937L58.6829 31.5697C59.0096 31.3923 59.3969 31.243 59.8449 31.1217C60.2929 30.991 60.7596 30.9257 61.2449 30.9257ZM61.6089 34.9297C60.6756 34.967 60.0269 35.1163 59.6629 35.3777C59.3082 35.639 59.1309 36.0077 59.1309 36.4837C59.1309 36.9037 59.2569 37.2117 59.5089 37.4077C59.7702 37.6037 60.1016 37.7017 60.5029 37.7017C61.1376 37.7017 61.6649 37.529 62.0849 37.1837C62.5049 36.829 62.7149 36.2877 62.7149 35.5597V34.8877L61.6089 34.9297ZM69.2245 30.9117C70.0832 30.9117 70.7645 31.0843 71.2685 31.4297C71.7819 31.7657 72.0385 32.251 72.0385 32.8857C72.0385 33.343 71.9125 33.707 71.6605 33.9777C71.4085 34.239 71.0632 34.4303 70.6245 34.5517V34.6077C70.9232 34.6917 71.1985 34.8083 71.4505 34.9577C71.7025 35.107 71.9032 35.303 72.0525 35.5457C72.2112 35.7883 72.2905 36.101 72.2905 36.4837C72.2905 37.109 72.0292 37.6363 71.5065 38.0657C70.9932 38.4857 70.1859 38.6957 69.0845 38.6957C68.5432 38.6957 68.0532 38.649 67.6145 38.5557C67.1759 38.4717 66.8119 38.355 66.5225 38.2057V37.0997C66.8399 37.249 67.2132 37.3843 67.6425 37.5057C68.0812 37.627 68.5572 37.6877 69.0705 37.6877C69.6305 37.6877 70.1019 37.5943 70.4845 37.4077C70.8765 37.2117 71.0725 36.8803 71.0725 36.4137C71.0725 35.5737 70.3585 35.1537 68.9305 35.1537H67.9225V34.1457H68.7345C69.3785 34.1457 69.8919 34.0617 70.2745 33.8937C70.6665 33.7163 70.8625 33.4177 70.8625 32.9977C70.8625 32.643 70.7132 32.377 70.4145 32.1997C70.1252 32.0223 69.7052 31.9337 69.1545 31.9337C68.7439 31.9337 68.3799 31.9757 68.0625 32.0597C67.7545 32.1343 67.4139 32.251 67.0405 32.4097L66.6065 31.4297C67.3905 31.0843 68.2632 30.9117 69.2245 30.9117ZM78.6838 30.9117C79.6078 30.9117 80.3498 31.2337 80.9098 31.8777C81.4792 32.5217 81.7638 33.4923 81.7638 34.7897C81.7638 36.0683 81.4792 37.039 80.9098 37.7017C80.3498 38.3643 79.6032 38.6957 78.6698 38.6957C78.0912 38.6957 77.6105 38.5883 77.2278 38.3737C76.8545 38.1497 76.5605 37.893 76.3458 37.6037H76.2618C76.2805 37.7623 76.2992 37.963 76.3178 38.2057C76.3365 38.4483 76.3458 38.6583 76.3458 38.8357V41.9157H75.1138V31.0517H76.1218L76.2898 32.0737H76.3458C76.5698 31.747 76.8638 31.4717 77.2278 31.2477C77.5918 31.0237 78.0772 30.9117 78.6838 30.9117ZM78.4598 31.9477C77.6945 31.9477 77.1532 32.1623 76.8358 32.5917C76.5278 33.021 76.3645 33.6743 76.3458 34.5517V34.7897C76.3458 35.7137 76.4952 36.4277 76.7938 36.9317C77.1018 37.4263 77.6665 37.6737 78.4878 37.6737C78.9452 37.6737 79.3185 37.5477 79.6078 37.2957C79.9065 37.0437 80.1258 36.703 80.2658 36.2737C80.4152 35.835 80.4898 35.3357 80.4898 34.7757C80.4898 33.917 80.3218 33.231 79.9858 32.7177C79.6592 32.2043 79.1505 31.9477 78.4598 31.9477ZM87.5691 30.9257C88.4838 30.9257 89.1604 31.1263 89.5991 31.5277C90.0378 31.929 90.2571 32.5683 90.2571 33.4457V38.5557H89.3611L89.1231 37.4917H89.0671C88.7404 37.9023 88.3951 38.2057 88.0311 38.4017C87.6764 38.5977 87.1818 38.6957 86.5471 38.6957C85.8658 38.6957 85.3011 38.5183 84.8531 38.1637C84.4051 37.7997 84.1811 37.235 84.1811 36.4697C84.1811 35.723 84.4751 35.149 85.0631 34.7477C85.6511 34.337 86.5564 34.113 87.7791 34.0757L89.0531 34.0337V33.5857C89.0531 32.9603 88.9178 32.5263 88.6471 32.2837C88.3764 32.041 87.9938 31.9197 87.4991 31.9197C87.1071 31.9197 86.7338 31.9803 86.3791 32.1017C86.0244 32.2137 85.6931 32.3443 85.3851 32.4937L85.0071 31.5697C85.3338 31.3923 85.7211 31.243 86.1691 31.1217C86.6171 30.991 87.0838 30.9257 87.5691 30.9257ZM87.9331 34.9297C86.9998 34.967 86.3511 35.1163 85.9871 35.3777C85.6324 35.639 85.4551 36.0077 85.4551 36.4837C85.4551 36.9037 85.5811 37.2117 85.8331 37.4077C86.0944 37.6037 86.4258 37.7017 86.8271 37.7017C87.4618 37.7017 87.9891 37.529 88.4091 37.1837C88.8291 36.829 89.0391 36.2877 89.0391 35.5597V34.8877L87.9331 34.9297ZM93.1828 34.0477C93.1828 32.405 93.4301 31.1263 93.9248 30.2117C94.4194 29.2877 95.2174 28.709 96.3188 28.4757C96.9254 28.345 97.5181 28.2283 98.0968 28.1257C98.6754 28.023 99.2168 27.9297 99.7208 27.8457L99.9308 28.9237C99.6041 28.9703 99.2354 29.031 98.8248 29.1057C98.4141 29.171 98.0081 29.241 97.6068 29.3157C97.2054 29.381 96.8601 29.4463 96.5708 29.5117C95.9641 29.6423 95.4834 29.9597 95.1288 30.4637C94.7741 30.9583 94.5734 31.733 94.5268 32.7877H94.6108C94.7414 32.6103 94.9188 32.4283 95.1428 32.2417C95.3761 32.055 95.6514 31.8963 95.9688 31.7657C96.2954 31.635 96.6641 31.5697 97.0748 31.5697C98.0454 31.5697 98.7781 31.8823 99.2728 32.5077C99.7674 33.133 100.015 33.945 100.015 34.9437C100.015 35.7743 99.8701 36.4697 99.5808 37.0297C99.2914 37.5897 98.8901 38.0097 98.3768 38.2897C97.8634 38.5603 97.2661 38.6957 96.5848 38.6957C95.5488 38.6957 94.7228 38.299 94.1068 37.5057C93.4908 36.7123 93.1828 35.5597 93.1828 34.0477ZM96.6828 37.6737C97.2894 37.6737 97.7794 37.4777 98.1528 37.0857C98.5261 36.6937 98.7128 36.0217 98.7128 35.0697C98.7128 34.3043 98.5681 33.7023 98.2788 33.2637C97.9988 32.8157 97.5321 32.5917 96.8788 32.5917C96.4681 32.5917 96.0948 32.685 95.7588 32.8717C95.4228 33.049 95.1428 33.2543 94.9188 33.4877C94.6948 33.721 94.5361 33.917 94.4428 34.0757C94.4428 34.533 94.4754 34.9763 94.5408 35.4057C94.6061 35.835 94.7181 36.2223 94.8768 36.5677C95.0448 36.9037 95.2734 37.1743 95.5628 37.3797C95.8614 37.5757 96.2348 37.6737 96.6828 37.6737ZM109.48 34.7897C109.48 36.031 109.162 36.9923 108.528 37.6737C107.902 38.355 107.053 38.6957 105.98 38.6957C105.317 38.6957 104.724 38.5463 104.202 38.2477C103.688 37.9397 103.282 37.4963 102.984 36.9177C102.685 36.3297 102.536 35.6203 102.536 34.7897C102.536 33.5483 102.848 32.5917 103.474 31.9197C104.099 31.2477 104.948 30.9117 106.022 30.9117C106.703 30.9117 107.3 31.0657 107.814 31.3737C108.336 31.6723 108.742 32.111 109.032 32.6897C109.33 33.259 109.48 33.959 109.48 34.7897ZM103.81 34.7897C103.81 35.6763 103.982 36.381 104.328 36.9037C104.682 37.417 105.242 37.6737 106.008 37.6737C106.764 37.6737 107.319 37.417 107.674 36.9037C108.028 36.381 108.206 35.6763 108.206 34.7897C108.206 33.903 108.028 33.2077 107.674 32.7037C107.319 32.1997 106.759 31.9477 105.994 31.9477C105.228 31.9477 104.673 32.1997 104.328 32.7037C103.982 33.2077 103.81 33.903 103.81 34.7897ZM117.475 32.0877H115.025V38.5557H113.807V32.0877H111.385V31.0517H117.475V32.0877ZM124.392 31.0517H125.736L122.53 34.6637L126.002 38.5557H124.574L121.186 34.7477V38.5557H119.954V31.0517H121.186V34.6917L124.392 31.0517ZM131.206 30.9257C132.12 30.9257 132.797 31.1263 133.236 31.5277C133.674 31.929 133.894 32.5683 133.894 33.4457V38.5557H132.998L132.76 37.4917H132.704C132.377 37.9023 132.032 38.2057 131.668 38.4017C131.313 38.5977 130.818 38.6957 130.184 38.6957C129.502 38.6957 128.938 38.5183 128.49 38.1637C128.042 37.7997 127.818 37.235 127.818 36.4697C127.818 35.723 128.112 35.149 128.7 34.7477C129.288 34.337 130.193 34.113 131.416 34.0757L132.69 34.0337V33.5857C132.69 32.9603 132.554 32.5263 132.284 32.2837C132.013 32.041 131.63 31.9197 131.136 31.9197C130.744 31.9197 130.37 31.9803 130.016 32.1017C129.661 32.2137 129.33 32.3443 129.022 32.4937L128.644 31.5697C128.97 31.3923 129.358 31.243 129.806 31.1217C130.254 30.991 130.72 30.9257 131.206 30.9257ZM131.57 34.9297C130.636 34.967 129.988 35.1163 129.624 35.3777C129.269 35.639 129.092 36.0077 129.092 36.4837C129.092 36.9037 129.218 37.2117 129.47 37.4077C129.731 37.6037 130.062 37.7017 130.464 37.7017C131.098 37.7017 131.626 37.529 132.046 37.1837C132.466 36.829 132.676 36.2877 132.676 35.5597V34.8877L131.57 34.9297Z" fill="white"/>
<path d="M47.9292 21.9223L53.9029 6.36731H56.1205L62.4868 21.9223H60.1419L58.3275 17.2112H51.8232L50.115 21.9223H47.9292ZM52.4174 15.5348H57.6908L56.0674 11.2269C55.5723 9.91829 55.2045 8.84309 54.964 8.00132C54.7659 8.99871 54.4865 9.98902 54.1257 10.9723L52.4174 15.5348Z" fill="white"/>
<path d="M65.484 21.9223L71.5002 13.8159L66.1949 6.36731H68.646L71.4684 10.3569C72.0555 11.1845 72.4728 11.8211 72.7204 12.2667C73.067 11.7008 73.4773 11.1102 73.9512 10.4948L77.0813 6.36731H79.3201L73.8557 13.6992L79.7445 21.9223H77.198L73.2827 16.373C73.0635 16.0547 72.8371 15.7081 72.6037 15.3332C72.2571 15.8991 72.0095 16.2881 71.8609 16.5003L67.9563 21.9223H65.484Z" fill="white"/>
<path d="M84.4076 21.9223V6.36731H90.2434C91.4318 6.36731 92.3832 6.52647 93.0976 6.84478C93.8191 7.15602 94.3815 7.64057 94.7847 8.29842C95.195 8.9492 95.4001 9.6318 95.4001 10.3462C95.4001 11.0112 95.2197 11.6372 94.859 12.2243C94.4982 12.8114 93.9535 13.2853 93.2249 13.6461C94.1657 13.922 94.8873 14.3924 95.3895 15.0573C95.8988 15.7222 96.1534 16.5074 96.1534 17.4128C96.1534 18.1414 95.9978 18.8205 95.6866 19.45C95.3824 20.0725 95.004 20.5535 94.5513 20.8931C94.0985 21.2326 93.5291 21.4908 92.843 21.6676C92.1639 21.8374 91.3292 21.9223 90.3389 21.9223H84.4076ZM86.4661 12.9034H89.8296C90.7421 12.9034 91.3964 12.8432 91.7925 12.723C92.316 12.5674 92.7086 12.3092 92.9703 11.9484C93.2391 11.5877 93.3735 11.135 93.3735 10.5903C93.3735 10.0739 93.2497 9.62119 93.0021 9.23214C92.7546 8.83602 92.4009 8.56722 91.9411 8.42574C91.4813 8.2772 90.6926 8.20292 89.5749 8.20292H86.4661V12.9034ZM86.4661 20.0867H90.3389C91.0038 20.0867 91.4707 20.0619 91.7395 20.0124C92.2134 19.9275 92.6095 19.786 92.9279 19.588C93.2462 19.3899 93.5079 19.1034 93.713 18.7285C93.9182 18.3466 94.0207 17.908 94.0207 17.4128C94.0207 16.8328 93.8722 16.3306 93.5751 15.9061C93.278 15.4746 92.8642 15.174 92.3337 15.0042C91.8102 14.8274 91.0533 14.739 90.063 14.739H86.4661V20.0867Z" fill="white"/>
<path d="M102.27 21.9223V6.36731H104.329V21.9223H102.27Z" fill="white"/>
<path d="M114.859 21.9223V8.20292H109.734V6.36731H122.064V8.20292H116.918V21.9223H114.859Z" fill="white"/>
<path d="M134.399 15.8214V13.9964L140.988 13.9858V19.7579C139.976 20.5643 138.933 21.1726 137.858 21.5829C136.783 21.9861 135.679 22.1877 134.547 22.1877C133.019 22.1877 131.629 21.8623 130.377 21.2115C129.132 20.5536 128.192 19.6058 127.555 18.3679C126.918 17.13 126.6 15.7471 126.6 14.2192C126.6 12.7054 126.915 11.2942 127.544 9.9856C128.181 8.6699 129.094 7.69374 130.282 7.05711C131.47 6.42048 132.839 6.10216 134.388 6.10216C135.513 6.10216 136.528 6.28608 137.433 6.65391C138.346 7.01467 139.06 7.52043 139.577 8.17121C140.093 8.82199 140.486 9.67082 140.754 10.7177L138.898 11.227C138.664 10.4348 138.374 9.8123 138.028 9.35958C137.681 8.90687 137.186 8.54611 136.542 8.27731C135.898 8.00144 135.184 7.8635 134.399 7.8635C133.458 7.8635 132.645 8.00851 131.958 8.29853C131.272 8.58148 130.717 8.95638 130.293 9.42325C129.875 9.89011 129.55 10.4029 129.316 10.9618C128.92 11.9238 128.722 12.9671 128.722 14.0919C128.722 15.4783 128.959 16.6384 129.433 17.5721C129.914 18.5058 130.611 19.199 131.523 19.6518C132.436 20.1045 133.405 20.3308 134.431 20.3308C135.322 20.3308 136.192 20.1611 137.041 19.8215C137.89 19.4749 138.533 19.1071 138.972 18.718V15.8214H134.399Z" fill="white"/>
<path d="M146.999 21.9224V6.36743H153.895C155.282 6.36743 156.336 6.5089 157.057 6.79184C157.779 7.06772 158.355 7.55934 158.787 8.2667C159.218 8.97407 159.434 9.75571 159.434 10.6116C159.434 11.7151 159.077 12.6453 158.362 13.4022C157.648 14.1591 156.544 14.6401 155.052 14.8452C155.597 15.1069 156.01 15.3651 156.293 15.6198C156.895 16.1715 157.464 16.8612 158.002 17.6888L160.707 21.9224H158.118L156.06 18.6862C155.459 17.7525 154.963 17.038 154.574 16.5429C154.185 16.0477 153.835 15.7011 153.524 15.5031C153.22 15.305 152.909 15.1671 152.59 15.0892C152.357 15.0397 151.975 15.015 151.444 15.015H149.057V21.9224H146.999ZM149.057 13.2324H153.482C154.422 13.2324 155.158 13.1369 155.689 12.9459C156.219 12.7479 156.622 12.4366 156.898 12.0122C157.174 11.5807 157.312 11.1139 157.312 10.6116C157.312 9.87596 157.043 9.27116 156.506 8.79723C155.975 8.32329 155.133 8.08632 153.98 8.08632H149.057V13.2324Z" fill="white"/>
<path d="M164.978 14.3465C164.978 11.7646 165.671 9.7451 167.057 8.28792C168.444 6.82368 170.234 6.09155 172.426 6.09155C173.862 6.09155 175.157 6.43463 176.31 7.12077C177.463 7.80692 178.34 8.7654 178.941 9.99621C179.55 11.22 179.854 12.6099 179.854 14.1661C179.854 15.7436 179.535 17.1548 178.899 18.3997C178.262 19.6447 177.36 20.589 176.193 21.2327C175.026 21.8693 173.767 22.1877 172.416 22.1877C170.952 22.1877 169.643 21.834 168.49 21.1266C167.337 20.4192 166.463 19.4537 165.869 18.23C165.275 17.0062 164.978 15.7117 164.978 14.3465ZM167.1 14.3783C167.1 16.2529 167.602 17.7313 168.607 18.8135C169.618 19.8887 170.884 20.4263 172.405 20.4263C173.954 20.4263 175.228 19.8816 176.225 18.7923C177.229 17.703 177.732 16.1574 177.732 14.1555C177.732 12.8893 177.516 11.7858 177.084 10.8451C176.66 9.89718 176.034 9.16506 175.206 8.64868C174.386 8.12523 173.463 7.8635 172.437 7.8635C170.98 7.8635 169.724 8.36573 168.67 9.37019C167.623 10.3676 167.1 12.037 167.1 14.3783Z" fill="white"/>
<path d="M195.658 6.36743H197.716V15.3545C197.716 16.9178 197.539 18.1592 197.186 19.0788C196.832 19.9984 196.192 20.7482 195.265 21.3282C194.346 21.9012 193.136 22.1877 191.636 22.1877C190.179 22.1877 188.987 21.9365 188.061 21.4343C187.134 20.9321 186.473 20.207 186.077 19.2592C185.68 18.3042 185.482 17.0027 185.482 15.3545V6.36743H187.541V15.3439C187.541 16.695 187.665 17.6924 187.912 18.3361C188.167 18.9727 188.598 19.4643 189.207 19.8109C189.822 20.1575 190.572 20.3308 191.456 20.3308C192.97 20.3308 194.049 19.9878 194.692 19.3016C195.336 18.6155 195.658 17.2962 195.658 15.3439V6.36743Z" fill="white"/>
<path d="M204.088 21.9224V6.36743H209.955C210.988 6.36743 211.777 6.41694 212.321 6.51597C213.085 6.6433 213.726 6.88734 214.242 7.2481C214.758 7.60178 215.172 8.10047 215.483 8.74417C215.802 9.38788 215.961 10.0952 215.961 10.8663C215.961 12.189 215.54 13.3102 214.698 14.2298C213.856 15.1423 212.336 15.5986 210.136 15.5986H206.146V21.9224H204.088ZM206.146 13.7629H210.167C211.497 13.7629 212.442 13.5154 213 13.0202C213.559 12.525 213.839 11.8283 213.839 10.9299C213.839 10.2792 213.672 9.72388 213.34 9.26409C213.015 8.79723 212.583 8.48952 212.046 8.34098C211.699 8.24902 211.059 8.20304 210.125 8.20304H206.146V13.7629Z" fill="white"/>
<path fill-rule="evenodd" clip-rule="evenodd" d="M17.9898 0.364244C18.8309 -0.121386 19.8672 -0.121417 20.7083 0.364165L29.0243 5.16499C30.3246 5.91565 30.7702 7.57827 30.0195 8.87857C29.2689 10.1789 27.6062 10.6244 26.3059 9.87377L22.0677 7.42703V41.1266C22.0677 42.628 20.8505 43.8452 19.3491 43.8452C17.8477 43.8452 16.6306 42.628 16.6306 41.1266V2.71856C16.6306 1.74733 17.1487 0.849874 17.9898 0.364244ZM12.3931 5.16504C13.2342 5.65067 13.7524 6.54813 13.7524 7.51938V21.9226C13.7524 23.424 12.5353 24.6411 11.0338 24.6411C9.53242 24.6411 8.31528 23.424 8.31528 21.9226V12.2281L5.43711 13.8898L5.43711 31.525C5.43711 33.0264 4.21997 34.2435 2.71856 34.2435C1.21714 34.2435 0 33.0264 0 31.525L0 12.3202C0 11.349 0.518155 10.4515 1.35928 9.96587L9.67456 5.16504C10.5157 4.67942 11.552 4.67942 12.3931 5.16504ZM37.4795 10.0519C38.2414 10.5551 38.6997 11.4072 38.6997 12.3202V31.525C38.6997 32.4963 38.1815 33.3937 37.3403 33.8794L29.0243 38.6802C27.724 39.4308 26.0614 38.9853 25.3107 37.685C24.5601 36.3847 25.0057 34.7221 26.3059 33.9714L33.2626 29.9553V16.4357L30.3837 17.6639V26.6794C30.3837 28.1808 29.1666 29.3979 27.6651 29.3979C26.1637 29.3979 24.9466 28.1808 24.9466 26.6794V15.8681C24.9466 14.779 25.5966 13.795 26.5983 13.3676L34.9143 9.81971C35.7541 9.46142 36.7177 9.54862 37.4795 10.0519ZM11.0338 26.4056C12.5353 26.4056 13.7524 27.6228 13.7524 29.1242L13.7524 36.3258C13.7524 37.8272 12.5353 39.0443 11.0338 39.0443C9.53242 39.0443 8.31528 37.8272 8.31528 36.3258L8.31528 29.1242C8.31528 27.6228 9.53242 26.4056 11.0338 26.4056Z" fill="white"/>
</g>
</svg>
