<svg width="210" height="173" viewBox="0 0 210 173" fill="none" xmlns="http://www.w3.org/2000/svg">
<path d="M0.491699 66.7537C0.491699 44.0985 16.1974 16.493 35.5716 5.09482C45.2984 -0.627945 54.0981 -1.17416 60.4521 2.564L60.454 2.56111L199.939 83.2008L152.057 169.26L10.7946 89.7288C10.7743 89.7162 10.754 89.7056 10.7337 89.6931L10.5162 89.5654L10.5201 89.5568C4.31976 85.806 0.491699 77.9305 0.491699 66.7537Z" fill="#65586A"/>
<path d="M176.743 85.8419C158.543 97.24 143.79 124.843 143.79 147.494C143.79 170.147 158.543 179.271 176.743 167.874C194.943 156.476 209.696 128.873 209.696 106.222C209.696 83.5683 194.943 74.4457 176.743 85.8419Z" fill="#EC514F"/>
<path d="M180.046 93.0011C164.215 102.915 151.381 126.926 151.381 146.631C151.381 166.336 164.215 174.273 180.046 164.359C195.877 154.444 208.711 130.433 208.711 110.728C208.711 91.0242 195.877 83.0868 180.046 93.0011Z" fill="#860D04"/>
<path d="M180.332 92.8599C182.432 91.5656 184.476 90.5911 186.444 89.9048C194.642 90.1668 200.198 97.3802 200.121 109.696C200.012 127.346 188.383 148.771 174.147 157.548C165.108 163.121 157.197 162.248 152.649 156.356C151.777 153.462 151.313 150.093 151.336 146.28C151.459 126.576 164.44 102.659 180.332 92.8599Z" fill="#1A1A1A"/>
<path d="M193.769 79.6076C193.769 79.6076 184.306 73.8887 170.397 81.8716C151.772 92.5602 137.444 120.871 137.444 143.524C137.444 158.975 146.865 166.325 146.865 166.325C62.0858 137.349 17.0684 93.4128 17.0684 93.4128C10.8671 89.6621 7.03906 81.7865 7.03906 70.6088C7.03906 47.9536 22.7447 20.349 42.118 8.95084C51.8448 3.22807 60.6445 2.68097 66.9985 6.41913C66.9985 6.41913 137.412 30.4016 193.769 79.6076Z" fill="#EB5352"/>
<path d="M79.5112 124.519L62.3641 114.585C61.5947 111.631 61.1693 108.581 61.1278 105.518C61.1142 103.305 61.3482 101.148 61.788 99.0872L78.934 108.994C78.4942 111.082 78.2612 113.225 78.2883 115.451C78.3154 118.527 78.7417 121.563 79.5112 124.519Z" fill="white"/>
</svg>
