<svg width="198" height="157" viewBox="0 0 198 157" fill="none" xmlns="http://www.w3.org/2000/svg">
<path d="M197.411 79.845C197.001 89.8396 190.439 100.028 178.75 98.8749C163.986 97.5292 147.992 80.9989 142.865 61.968C137.739 42.9381 145.531 28.7145 160.091 30.0583C182.647 32.1742 198.437 61.3916 197.411 79.845Z" fill="#64D4FC"/>
<path d="M46.6106 10.0365C70.6769 2.73516 100.887 7.36832 120.857 21.6906L167.022 49.7233L166.092 59.0166L158.265 62.5388L117.055 32.663C100.159 20.5442 74.1954 15.3383 53.1166 20.2787C50.9215 16.8805 48.7507 13.4683 46.6106 10.0365Z" fill="#DDF2EB"/>
<path d="M43.9761 5.85791C68.6813 -2.62333 102.055 2.80513 122.841 17.7132L167.023 49.7225L159.196 53.2446L117.986 23.3689C99.5013 10.1111 70.1509 5.09798 48.2349 12.6302C46.8212 10.3691 45.3954 8.11535 43.9761 5.85791Z" fill="#A9B3B2"/>
<path d="M184.958 56.6949C175.574 39.5489 159.721 28.8149 149.478 33.0169C145.941 34.4678 142.874 37.8009 140.877 41.4441L172.91 101.183C180.38 101.494 185.638 99.3087 189.642 95.6664C194.137 86.5221 192.795 71.0125 184.958 56.6949Z" fill="#281F30"/>
<path d="M144.776 37.9863C154.405 32.7161 170.319 41.4106 179.651 58.4616C188.985 75.5135 188.203 94.4614 178.573 99.7325C168.944 105.003 153.572 95.4542 144.238 78.4023C134.905 61.3523 135.145 43.2574 144.776 37.9863Z" fill="#65586A"/>
<path d="M149.098 45.5922C155.689 41.9853 167.071 48.834 174.084 61.6476C181.098 74.4612 181.086 88.3849 174.495 91.9927C167.904 95.5996 156.877 88.1371 149.863 75.3235C142.851 62.5108 142.508 49.2 149.098 45.5922Z" fill="#423745"/>
<path d="M174.084 61.6474C179.275 71.1316 180.594 81.1997 178.27 87.2671C171.689 87.6834 162.798 80.7127 156.812 69.7756C151.638 60.3249 150.123 50.6293 152.314 44.7305C158.969 44.1978 168.104 50.7215 174.084 61.6474Z" fill="#0C0316"/>
<path d="M22.9224 21.9084C24.9144 25.0683 26.9027 28.2291 28.8882 31.3946C8.42874 45.985 2.15465 68.8528 24.3621 84.7797L55.835 100.381L54.9056 109.674L47.0772 113.197L18.3963 92.8326C-7.58475 74.1993 -1.14676 40.4755 22.9224 21.9084Z" fill="#A9B3B2"/>
<path d="M20.7469 18.5066C22.3207 20.9587 23.8965 23.4098 25.4387 25.8815C8.54512 41.2663 4.67004 63.8901 25.2068 78.6193L55.835 100.381L48.0066 103.903L19.3257 83.5384C-5.73524 65.5646 -1.09557 36.4655 20.7469 18.5066Z" fill="#DDF2EB"/>
<path d="M90.6287 22.3909L92.4829 12.6794L92.0051 3.36002C92.0051 3.36002 60.1886 -5.69397 28.3702 14.1564C-1.05473 32.5121 0.259322 57.4632 0.259322 57.4632L15.5567 58.8508L17.232 65.8951C11.2541 52.3281 33.4085 12.9374 90.6287 22.3909Z" fill="#281F30"/>
<path d="M26.8188 12.6962C59.1867 -6.2443 91.7529 2.277 91.7529 2.277L92.4495 12.0285C83.3564 10.2442 57.773 7.27895 32.2138 23.2235C17.1315 32.6333 14.5053 47.0291 15.5046 58.8471L0.258483 57.4642C0.259414 57.4633 -4.50134 31.0249 26.8188 12.6962Z" fill="#65586A"/>
<path d="M0.311768 57.468L1.16577 72.4701L3.72401 73.7153L3.71004 62.5165L12.8478 63.0474C14.4152 67.0286 15.6128 69.1063 17.3329 71.1328C17.4121 71.2334 17.2845 65.9008 17.2845 65.9008L15.5579 58.8519L0.311768 57.468Z" fill="#281F30"/>
<path d="M49.2424 95.5698C55.6375 83.9045 71.0904 80.8256 81.3569 89.2854C86.9977 93.9344 103.622 124.396 104.464 131.728C105.961 144.768 95.4119 156.036 82.3022 155.418L82.0209 155.404C81.5702 155.385 81.1632 155.128 80.9462 154.733L49.2433 96.813C49.0301 96.4265 49.03 95.9572 49.2424 95.5698Z" fill="#281F30"/>
<path d="M95.7696 138.089C95.384 147.465 89.2292 157.02 78.266 155.939C64.4178 154.677 49.4147 139.171 44.6056 121.32C39.7973 103.471 47.1061 90.1282 60.7634 91.3891C81.9204 93.3746 96.7316 120.779 95.7696 138.089Z" fill="#47ABC5"/>
<path d="M93.19 137.382C92.824 146.298 86.9699 155.385 76.5432 154.357C63.3739 153.157 49.1056 138.411 44.533 121.435C39.9594 104.46 46.9106 91.771 59.8983 92.9714C80.0188 94.8582 94.1045 120.921 93.19 137.382Z" fill="#64D4FC"/>
<path d="M52.9209 90.7168C72.7564 71.2296 117.799 123.553 94.3455 152.331C130.153 128.22 82.4893 63.3034 52.9209 90.7168Z" fill="#65586A"/>
<path d="M88.2718 119.531L76.2377 113.793C72.3207 107.543 66.6501 102.574 59.9699 101.905C51.3835 101.059 46.7876 110.007 49.8115 121.98C52.8344 133.953 62.2674 144.352 70.975 145.2C77.8684 145.925 81.7388 139.516 81.98 133.228C82.1076 130.784 81.7714 128.034 81.0748 125.213L88.2718 119.531Z" fill="#076A93"/>
<path d="M76.8234 130.372C76.6446 134.733 73.7818 139.175 68.6839 138.672C62.2441 138.086 55.2678 130.875 53.0318 122.575C50.7958 114.275 54.195 108.07 60.5454 108.657C70.3826 109.579 77.2704 122.324 76.8234 130.372Z" fill="#00517F"/>
<path d="M61.5884 122.224C61.4357 122.744 60.957 123.192 60.3582 122.978C59.6001 122.714 58.978 121.636 58.9585 120.567C58.9389 119.5 59.5359 118.856 60.2828 119.117C61.4404 119.526 61.8855 121.269 61.5884 122.224Z" fill="white"/>
<path d="M65.4849 124.497C65.3313 125.018 64.8526 125.466 64.2547 125.252C63.4966 124.987 62.8736 123.909 62.855 122.841C62.8354 121.773 63.4324 121.13 64.1792 121.392C65.3359 121.799 65.7811 123.542 65.4849 124.497Z" fill="white"/>
<path d="M69.3804 126.772C69.2277 127.292 68.749 127.741 68.1502 127.527C67.3931 127.261 66.77 126.183 66.7514 125.116C66.7328 124.048 67.3288 123.404 68.0757 123.667C69.2323 124.073 69.6775 125.816 69.3804 126.772Z" fill="white"/>
</svg>
