<svg width="231" height="133" viewBox="0 0 231 133" fill="none" xmlns="http://www.w3.org/2000/svg">
<g filter="url(#filter0_d)">
<path d="M224.065 77.7438L89.2492 2.74744C84.1565 -0.182768 76.4594 -0.490853 72.0567 2.05942L6.37757 37.6294C5.39132 38.1629 4.56451 39.0064 4.21608 40.0724C3.57137 42.04 4.41884 44.0755 6.09999 45.043L139.794 121.987C144.887 124.918 152.584 125.226 156.986 122.675L224.183 86.0137C226.041 85.0009 227.03 82.8326 226.455 80.6789C226.118 79.4161 225.208 78.3806 224.065 77.7438Z" fill="#495168"/>
<path d="M223.743 77.2449L92.9649 4.47592C87.9598 1.59492 80.3927 1.2957 76.0697 3.80069L11.3472 38.85C11.3423 38.8529 11.3374 38.8559 11.3325 38.8579C10.6326 39.2368 10.6484 40.2526 11.3384 40.6483L141.186 115.239C145.876 117.941 152.967 118.225 157.021 115.875L223.622 78.9388C224.273 78.5805 224.316 77.6839 223.751 77.2508C223.751 77.2518 223.747 77.2478 223.743 77.2449Z" fill="#6FC5FF"/>
<path d="M223.751 77.2517C223.751 77.2517 223.747 77.2478 223.744 77.2438L92.9649 4.47489C92.3527 4.1235 91.7021 3.8105 91.0249 3.53687L141.186 115.239C145.875 117.941 152.966 118.225 157.02 115.875L223.621 78.9388C224.273 78.5815 224.316 77.6848 223.751 77.2517Z" fill="#68D2E8"/>
<path d="M72.852 5.98878L68.8854 3.77808L13.551 33.7445L16.5226 35.4533C19.9184 37.409 25.0553 37.6118 27.9953 35.91L72.8284 11.4496C73.3284 11.1769 73.7369 10.7744 74.0184 10.3039C74.2999 9.83141 74.4545 9.28415 74.4545 8.71228C74.4545 7.58233 73.8393 6.53997 72.852 5.98878Z" fill="#495168"/>
<path d="M192.994 98.3516L185.275 102.553C184.576 102.936 183.994 103.992 183.974 104.911C183.955 105.83 184.504 106.265 185.203 105.881L192.923 101.68C193.62 101.298 194.203 100.241 194.223 99.3221C194.242 98.4038 193.692 97.9678 192.994 98.3516Z" fill="#2C3838"/>
<path d="M170.279 103.457L170.534 103.928L201.615 87.0865L201.36 86.6158L170.279 103.457Z" fill="#424554"/>
</g>
<defs>
<filter id="filter0_d" x="0" y="0.331299" width="230.618" height="132.072" filterUnits="userSpaceOnUse" color-interpolation-filters="sRGB">
<feFlood flood-opacity="0" result="BackgroundImageFix"/>
<feColorMatrix in="SourceAlpha" type="matrix" values="0 0 0 0 0 0 0 0 0 0 0 0 0 0 0 0 0 0 127 0"/>
<feOffset dy="4"/>
<feGaussianBlur stdDeviation="2"/>
<feColorMatrix type="matrix" values="0 0 0 0 0 0 0 0 0 0 0 0 0 0 0 0 0 0 0.25 0"/>
<feBlend mode="normal" in2="BackgroundImageFix" result="effect1_dropShadow"/>
<feBlend mode="normal" in="SourceGraphic" in2="effect1_dropShadow" result="shape"/>
</filter>
</defs>
</svg>
