<svg width="712" height="474" viewBox="0 0 712 474" fill="none" xmlns="http://www.w3.org/2000/svg">
<path d="M624.357 403.261C641.419 379.584 652.454 345.359 624.807 290.952C591.089 224.598 611.163 205.747 586.698 164.356C569.254 134.843 537.399 127.642 493.548 117.273C435.158 103.466 403.602 52.6544 341.443 60.732C290.636 67.3345 271.761 117.122 270.192 181.9C268.612 247.141 243.872 289.92 198.266 318.859C159.095 343.714 116.068 349.912 127.795 403.298L624.357 403.261Z" fill="#00BBCE"/>
<path d="M609.743 269.471H550.685V383.206H609.743V269.471Z" fill="white"/>
<path d="M647.397 403.941H641.929C641.758 403.941 641.594 403.873 641.473 403.752C641.353 403.632 641.285 403.468 641.285 403.298V383.849H615.855V403.298C615.855 403.468 615.788 403.632 615.667 403.753C615.546 403.873 615.382 403.941 615.211 403.941H609.743C609.572 403.941 609.408 403.873 609.288 403.752C609.167 403.632 609.099 403.468 609.099 403.298V269.471C609.099 269.301 609.167 269.137 609.288 269.017C609.408 268.896 609.572 268.828 609.743 268.828H647.397C647.568 268.828 647.732 268.896 647.853 269.017C647.973 269.137 648.041 269.301 648.041 269.471V403.298C648.041 403.468 647.973 403.632 647.853 403.752C647.732 403.873 647.568 403.941 647.397 403.941ZM642.573 402.655H646.753V270.114H610.387V402.655H614.567V383.206C614.567 383.035 614.635 382.871 614.756 382.751C614.877 382.63 615.041 382.562 615.211 382.562H641.929C642.1 382.562 642.263 382.63 642.384 382.751C642.505 382.871 642.573 383.035 642.573 383.206V402.655Z" fill="#7988A6"/>
<path d="M556.153 403.941H550.685C550.514 403.941 550.351 403.873 550.23 403.753C550.109 403.632 550.041 403.468 550.041 403.298V383.206C550.041 383.035 550.109 382.871 550.23 382.751C550.351 382.63 550.514 382.562 550.685 382.562C550.856 382.562 551.02 382.63 551.141 382.751C551.261 382.871 551.329 383.035 551.329 383.206V402.655H555.509V383.206C555.509 383.035 555.577 382.871 555.698 382.751C555.819 382.63 555.983 382.562 556.154 382.562C556.324 382.562 556.488 382.63 556.609 382.751C556.73 382.871 556.798 383.035 556.798 383.206V403.298C556.798 403.468 556.73 403.632 556.609 403.753C556.488 403.873 556.324 403.941 556.153 403.941Z" fill="#7988A6"/>
<path d="M609.743 355.415H550.685C550.514 355.415 550.351 355.347 550.23 355.227C550.109 355.106 550.041 354.943 550.041 354.772C550.041 354.602 550.109 354.438 550.23 354.317C550.351 354.197 550.514 354.129 550.685 354.129H609.743C609.914 354.129 610.078 354.197 610.198 354.317C610.319 354.438 610.387 354.602 610.387 354.772C610.387 354.943 610.319 355.106 610.198 355.227C610.078 355.347 609.914 355.415 609.743 355.415Z" fill="#7988A6"/>
<path d="M609.743 326.982H550.685C550.514 326.982 550.351 326.914 550.23 326.793C550.109 326.673 550.041 326.509 550.041 326.338C550.041 326.168 550.109 326.004 550.23 325.884C550.351 325.763 550.514 325.695 550.685 325.695H609.743C609.914 325.695 610.078 325.763 610.198 325.884C610.319 326.004 610.387 326.168 610.387 326.338C610.387 326.509 610.319 326.673 610.198 326.793C610.078 326.914 609.914 326.982 609.743 326.982Z" fill="#7988A6"/>
<path d="M609.743 298.548H550.685C550.514 298.548 550.351 298.48 550.23 298.36C550.109 298.239 550.041 298.075 550.041 297.905C550.041 297.734 550.109 297.571 550.23 297.45C550.351 297.329 550.514 297.262 550.685 297.262H609.743C609.914 297.262 610.078 297.329 610.198 297.45C610.319 297.571 610.387 297.734 610.387 297.905C610.387 298.075 610.319 298.239 610.198 298.36C610.078 298.48 609.914 298.548 609.743 298.548Z" fill="#7988A6"/>
<path d="M580.214 311.581C579.698 311.581 579.192 311.428 578.763 311.142C578.333 310.855 577.998 310.448 577.8 309.971C577.603 309.494 577.551 308.969 577.652 308.463C577.753 307.957 578.001 307.492 578.367 307.127C578.732 306.763 579.198 306.514 579.704 306.413C580.211 306.313 580.737 306.364 581.214 306.562C581.691 306.759 582.099 307.094 582.387 307.523C582.674 307.952 582.827 308.456 582.827 308.972C582.826 309.664 582.551 310.327 582.061 310.816C581.571 311.305 580.907 311.581 580.214 311.581ZM580.214 307.65C579.952 307.65 579.696 307.727 579.478 307.872C579.261 308.018 579.091 308.224 578.99 308.466C578.89 308.708 578.864 308.974 578.915 309.23C578.966 309.487 579.092 309.723 579.278 309.908C579.463 310.093 579.699 310.219 579.956 310.27C580.213 310.321 580.479 310.294 580.721 310.194C580.963 310.094 581.17 309.925 581.316 309.707C581.461 309.49 581.539 309.234 581.539 308.972C581.538 308.622 581.399 308.285 581.15 308.037C580.902 307.789 580.565 307.65 580.214 307.65Z" fill="#7988A6"/>
<path d="M580.214 283.148C579.698 283.148 579.192 282.995 578.763 282.708C578.333 282.421 577.998 282.014 577.8 281.537C577.603 281.06 577.551 280.536 577.652 280.03C577.753 279.524 578.001 279.059 578.367 278.694C578.732 278.329 579.198 278.08 579.704 277.98C580.211 277.879 580.737 277.931 581.214 278.128C581.691 278.326 582.099 278.66 582.387 279.089C582.674 279.518 582.827 280.023 582.827 280.539C582.826 281.23 582.551 281.894 582.061 282.383C581.571 282.872 580.907 283.147 580.214 283.148ZM580.214 279.216C579.952 279.216 579.696 279.294 579.478 279.439C579.261 279.584 579.091 279.791 578.99 280.033C578.89 280.274 578.864 280.54 578.915 280.797C578.966 281.053 579.092 281.289 579.278 281.474C579.463 281.659 579.699 281.785 579.956 281.836C580.213 281.887 580.479 281.861 580.721 281.761C580.963 281.661 581.17 281.491 581.316 281.274C581.461 281.056 581.539 280.8 581.539 280.539C581.538 280.188 581.399 279.852 581.15 279.604C580.902 279.356 580.565 279.216 580.214 279.216Z" fill="#7988A6"/>
<path d="M580.214 340.015C579.698 340.015 579.192 339.862 578.763 339.575C578.333 339.289 577.998 338.881 577.8 338.404C577.603 337.928 577.551 337.403 577.652 336.897C577.753 336.391 578.001 335.926 578.367 335.561C578.732 335.196 579.198 334.948 579.704 334.847C580.211 334.746 580.737 334.798 581.214 334.995C581.691 335.193 582.099 335.527 582.387 335.956C582.674 336.385 582.827 336.89 582.827 337.406C582.826 338.098 582.551 338.761 582.061 339.25C581.571 339.739 580.907 340.014 580.214 340.015ZM580.214 336.083C579.952 336.083 579.696 336.161 579.478 336.306C579.261 336.451 579.091 336.658 578.991 336.9C578.89 337.141 578.864 337.407 578.915 337.664C578.966 337.92 579.092 338.156 579.278 338.341C579.463 338.526 579.699 338.652 579.956 338.703C580.213 338.754 580.479 338.728 580.721 338.628C580.963 338.528 581.17 338.358 581.316 338.141C581.461 337.923 581.539 337.667 581.539 337.406C581.538 337.055 581.399 336.719 581.15 336.471C580.902 336.223 580.565 336.084 580.214 336.083Z" fill="#7988A6"/>
<path d="M580.214 368.448C579.698 368.448 579.192 368.295 578.763 368.008C578.333 367.722 577.998 367.314 577.801 366.838C577.603 366.361 577.551 365.836 577.652 365.33C577.753 364.824 578.002 364.359 578.367 363.994C578.732 363.63 579.198 363.381 579.705 363.281C580.212 363.18 580.737 363.232 581.214 363.429C581.692 363.627 582.1 363.961 582.387 364.39C582.674 364.819 582.827 365.323 582.827 365.839C582.826 366.531 582.55 367.194 582.061 367.683C581.571 368.172 580.907 368.447 580.214 368.448ZM580.214 364.517C579.952 364.517 579.696 364.594 579.478 364.74C579.261 364.885 579.091 365.092 578.991 365.333C578.89 365.575 578.864 365.841 578.915 366.097C578.966 366.354 579.093 366.59 579.278 366.774C579.463 366.959 579.699 367.085 579.956 367.136C580.213 367.187 580.479 367.161 580.721 367.061C580.963 366.961 581.17 366.792 581.315 366.574C581.461 366.357 581.539 366.101 581.539 365.839C581.538 365.489 581.399 365.153 581.15 364.905C580.902 364.657 580.565 364.517 580.214 364.517Z" fill="#7988A6"/>
<path d="M203.816 248.778C205.023 249.848 206.437 250.314 207.716 249.903C210.072 249.146 211.071 245.706 209.947 242.219C208.823 238.733 206.003 236.52 203.647 237.277C202.454 237.66 201.612 238.733 201.216 240.151C200.839 241.456 199.989 242.575 198.832 243.289C197.14 239.478 194.409 236.219 190.949 233.886L192.372 231.427C192.789 230.721 193.395 230.145 194.122 229.765C194.85 229.384 195.669 229.215 196.488 229.275C198.985 229.428 201.091 228.626 201.987 226.935C203.457 224.16 201.111 220.041 196.746 217.735C192.381 215.43 187.65 215.81 186.18 218.585C185.364 220.126 185.725 222.08 186.954 223.909C187.55 224.793 187.905 225.818 187.983 226.882C188.061 227.946 187.859 229.011 187.398 229.973L186.617 231.594C182.406 229.928 177.787 229.585 173.375 230.611L172.737 228.11C172.513 227.272 172.485 226.394 172.657 225.544C172.829 224.693 173.196 223.894 173.729 223.209C174.605 222.116 174.967 220.898 174.612 219.797C173.884 217.538 170.414 216.633 166.861 217.774C163.309 218.916 161.019 221.672 161.747 223.931C162.123 225.1 163.235 225.907 164.712 226.254C165.436 226.431 166.106 226.78 166.665 227.272C167.224 227.764 167.656 228.384 167.923 229.078L169.095 232.067C164.221 234.291 160.312 238.194 158.084 243.062C156.999 242.636 156.035 241.95 155.279 241.064C154.522 240.178 153.995 239.12 153.745 237.983C153.123 235.299 151.646 233.298 149.538 232.716C145.722 231.662 141.284 235.661 139.626 241.647C137.968 247.634 139.718 253.342 143.535 254.396C145.591 254.963 147.828 254.064 149.712 252.178C150.554 251.332 151.571 250.682 152.692 250.273C153.813 249.864 155.011 249.706 156.2 249.809C155.594 255.067 156.88 260.369 159.828 264.767L157.279 266.749C156.357 267.481 155.28 267.994 154.13 268.249C152.981 268.503 151.788 268.493 150.642 268.219C149.017 267.808 147.503 268.01 146.447 268.927C144.206 270.873 144.87 275.3 147.931 278.816C150.992 282.331 155.291 283.604 157.532 281.658C158.68 280.66 159.065 279.012 158.756 277.168C158.578 276.184 158.645 275.171 158.95 274.219C159.255 273.267 159.789 272.404 160.505 271.705L163.421 268.915C167.611 272.691 173.073 274.75 178.716 274.678L178.859 277.124C178.883 277.674 178.78 278.222 178.556 278.724C178.332 279.227 177.994 279.671 177.569 280.02C177.059 280.411 176.654 280.921 176.389 281.505C176.124 282.089 176.007 282.73 176.05 283.37C176.3 285.714 179.009 287.347 182.102 287.018C185.195 286.689 187.499 284.523 187.249 282.179C187.166 281.589 186.946 281.026 186.607 280.536C186.268 280.046 185.818 279.642 185.294 279.357C184.701 279.011 184.191 278.539 183.801 277.973C183.412 277.408 183.153 276.763 183.043 276.086L182.768 274.244C183.608 274.078 184.438 273.864 185.253 273.604C189.439 272.265 193.133 269.718 195.871 266.285L196.502 266.745C197.166 267.229 197.683 267.886 197.998 268.643C198.313 269.401 198.413 270.231 198.288 271.042C197.872 273.762 198.582 276.179 200.4 277.329C203.284 279.155 207.863 277.104 210.628 272.748C213.392 268.393 213.295 263.382 210.411 261.556C208.733 260.495 206.482 260.745 204.349 261.997C203.466 262.529 202.462 262.826 201.432 262.861C200.402 262.895 199.38 262.665 198.464 262.193C200.663 257.739 201.307 252.679 200.292 247.818C200.914 247.692 201.556 247.714 202.168 247.881C202.78 248.047 203.345 248.355 203.816 248.778Z" fill="#ACEEF4"/>
<path d="M174.569 253.529C179.15 252.057 181.681 247.193 180.222 242.667C178.763 238.14 173.867 235.663 169.286 237.135C164.705 238.607 162.175 243.471 163.634 247.997C165.093 252.524 169.989 255.001 174.569 253.529Z" fill="#36A9E1"/>
<path d="M197.878 253.478C198.246 250.353 196.352 247.561 193.646 247.243C190.941 246.925 188.449 249.201 188.081 252.326C187.712 255.451 189.606 258.242 192.312 258.56C195.017 258.878 197.509 256.603 197.878 253.478Z" fill="#36A9E1"/>
<path d="M144.801 209.951C143.391 209.252 141.645 209.611 140.059 210.74C139.526 211.13 138.906 211.382 138.252 211.474C137.599 211.567 136.933 211.496 136.313 211.268L135.423 210.93C136.802 206.775 136.629 202.261 134.934 198.222C136.065 197.859 137.288 197.899 138.392 198.336C138.808 198.521 139.261 198.608 139.715 198.593C140.17 198.578 140.616 198.46 141.019 198.249C142.753 197.245 142.95 194.35 141.46 191.784C139.97 189.217 137.356 187.95 135.622 188.954C134.769 189.448 134.288 190.4 134.197 191.545C134.1 192.659 133.601 193.701 132.792 194.474C132.513 194.098 132.222 193.728 131.91 193.369C129.412 190.49 126.063 188.477 122.346 187.62L122.583 186.122C122.718 185.314 123.051 184.552 123.551 183.904C124.052 183.255 124.705 182.739 125.453 182.403C127.16 181.614 128.298 180.354 128.422 178.856C128.653 176.069 125.286 173.515 120.901 173.152C116.516 172.79 112.774 174.756 112.543 177.544C112.418 179.049 113.343 180.485 114.911 181.546C115.57 181.986 116.11 182.582 116.484 183.281C116.858 183.979 117.053 184.759 117.052 185.551L117.043 187.188C113.73 187.402 110.541 188.525 107.827 190.435L107.123 189.574C106.584 188.897 106.215 188.1 106.048 187.251C105.881 186.402 105.919 185.525 106.161 184.694C106.485 183.505 106.352 182.394 105.682 181.623C104.293 180.027 101.133 180.499 98.6224 182.677C96.1122 184.855 95.2028 187.914 96.5913 189.51C97.2666 190.286 98.3611 190.572 99.596 190.411C100.372 190.31 101.16 190.394 101.897 190.656C102.634 190.917 103.299 191.35 103.836 191.917L104.885 193.024C103.083 194.991 101.738 197.331 100.948 199.878C100.159 202.425 99.9428 205.114 100.316 207.754L99.9736 207.814C99.202 207.951 98.4076 207.874 97.6771 207.59C96.9465 207.307 96.308 206.829 95.8312 206.208C94.1734 204.035 91.9912 202.887 90.006 203.424C86.9099 204.261 85.4676 208.877 86.7845 213.733C88.1013 218.59 91.6788 221.848 94.7749 221.011C96.6673 220.499 97.9408 218.575 98.3446 216.048C98.4662 215.277 98.7881 214.551 99.2781 213.943C99.7681 213.334 100.409 212.865 101.137 212.581L101.617 212.395C102.753 215.018 104.494 217.335 106.699 219.156C108.905 220.978 111.51 222.252 114.303 222.874L113.992 224.514C113.902 225.033 113.703 225.528 113.41 225.966C113.117 226.405 112.735 226.777 112.289 227.059C111.878 227.287 111.524 227.605 111.255 227.99C110.986 228.375 110.809 228.817 110.738 229.281C110.509 231.177 112.351 232.958 114.852 233.259C117.353 233.561 119.566 232.269 119.795 230.374C119.837 229.901 119.769 229.426 119.597 228.984C119.425 228.543 119.152 228.147 118.802 227.827C118.476 227.509 118.22 227.125 118.053 226.701C117.885 226.278 117.809 225.823 117.829 225.368L117.932 223.303C120.898 223.354 123.83 222.677 126.472 221.331C129.113 219.985 131.384 218.013 133.084 215.586L134.271 216.325C134.74 216.613 135.128 217.015 135.4 217.492C135.672 217.97 135.818 218.509 135.826 219.059C135.838 221.088 136.609 222.777 138.065 223.499C140.543 224.727 144.059 222.69 145.919 218.949C147.779 215.208 147.278 211.179 144.801 209.951Z" fill="#ACEEF4"/>
<path d="M109.573 212.531C112.971 212.531 115.725 209.78 115.725 206.387C115.725 202.995 112.971 200.244 109.573 200.244C106.176 200.244 103.421 202.995 103.421 206.387C103.421 209.78 106.176 212.531 109.573 212.531Z" fill="#36A9E1"/>
<path d="M241.221 187.036C240.46 187.189 239.674 187.168 238.921 186.976C238.169 186.784 237.469 186.425 236.874 185.927L236.221 185.365C237.622 183.485 238.525 181.283 238.847 178.962L239.344 179.009C239.667 179.04 239.98 179.142 240.259 179.308C240.539 179.474 240.778 179.7 240.959 179.969C241.163 180.318 241.451 180.611 241.796 180.822C242.141 181.033 242.533 181.155 242.937 181.178C244.489 181.178 245.747 179.316 245.747 177.018C245.747 174.721 244.489 172.859 242.937 172.859C242.569 172.876 242.21 172.978 241.889 173.157C241.567 173.336 241.292 173.588 241.085 173.892C240.547 174.61 239.754 175.094 238.869 175.246C238.5 172.333 237.22 169.61 235.21 167.466C235.674 166.995 236.246 166.645 236.876 166.447C237.507 166.249 238.177 166.208 238.827 166.328C240.252 166.591 241.546 166.292 242.303 165.384C243.674 163.741 242.768 160.731 240.279 158.661C237.791 156.59 234.662 156.244 233.292 157.888C232.496 158.841 232.469 160.254 233.071 161.676C233.314 162.225 233.407 162.827 233.342 163.423C233.277 164.019 233.056 164.587 232.702 165.071L232.563 165.255C230.3 163.792 227.661 163.015 224.965 163.018C224.547 163.018 224.133 163.04 223.724 163.076L223.495 161.664C223.375 160.836 223.586 159.995 224.081 159.32C224.273 159.065 224.41 158.773 224.484 158.462C224.557 158.152 224.565 157.829 224.507 157.515C224.205 156.068 222.412 155.217 220.503 155.614C218.593 156.011 217.29 157.506 217.591 158.953C217.677 159.309 217.845 159.64 218.08 159.921C218.316 160.202 218.613 160.425 218.949 160.572C219.314 160.751 219.635 161.008 219.889 161.325C220.143 161.642 220.324 162.011 220.419 162.406L220.723 163.672C217.444 164.716 214.662 166.924 212.905 169.88L208.464 167.576C208.693 165.69 208.117 164.063 206.865 163.528C205.152 162.796 202.831 164.381 201.679 167.067C200.528 169.753 200.983 172.524 202.696 173.256C203.931 173.784 205.482 173.102 206.683 171.675L211.476 173.205C210.59 176.326 210.818 179.658 212.12 182.63C211.383 182.91 210.598 183.04 209.81 183.013C209.022 182.985 208.248 182.801 207.532 182.471C206.155 181.855 204.788 181.812 203.753 182.49C201.677 183.852 201.73 187.595 203.872 190.852C206.014 194.108 209.433 195.644 211.509 194.283C212.562 193.592 213.065 192.287 213.025 190.743C212.997 189.962 213.124 189.183 213.401 188.451C213.677 187.719 214.097 187.05 214.635 186.482C216.909 188.961 220.002 190.538 223.347 190.923L223.251 192.506C223.223 193.079 223.071 193.639 222.807 194.148C222.542 194.658 222.17 195.104 221.717 195.457C221.428 195.647 221.188 195.903 221.016 196.203C220.844 196.503 220.745 196.84 220.727 197.185C220.727 198.673 222.624 199.88 224.965 199.88C227.306 199.88 229.203 198.673 229.203 197.185C229.179 196.805 229.06 196.436 228.858 196.113C228.655 195.79 228.375 195.522 228.043 195.334C227.587 195.035 227.207 194.635 226.932 194.165C226.658 193.694 226.497 193.166 226.461 192.623L226.369 190.948C229.019 190.685 231.537 189.669 233.627 188.022L234.343 188.808C234.826 189.329 235.178 189.958 235.371 190.642C235.563 191.325 235.59 192.045 235.449 192.741C235.198 193.922 235.396 194.999 236.104 195.689C237.516 197.064 240.413 196.383 242.576 194.169C244.738 191.955 245.347 189.046 243.935 187.671C243.278 187.031 242.298 186.837 241.221 187.036Z" fill="#ACEEF4"/>
<path d="M234.715 180.805C237.215 179.771 238.402 176.909 237.367 174.413C236.331 171.916 233.465 170.731 230.965 171.765C228.465 172.799 227.278 175.661 228.313 178.157C229.349 180.654 232.215 181.839 234.715 180.805Z" fill="#36A9E1"/>
<path d="M217.861 183.172C219.593 182.412 220.273 180.151 219.38 178.121C218.487 176.092 216.359 175.063 214.627 175.823C212.894 176.583 212.214 178.844 213.107 180.874C214 182.903 216.129 183.932 217.861 183.172Z" fill="#36A9E1"/>
<path d="M201.156 403.902H144.65C144.561 403.902 144.472 403.883 144.39 403.847C144.308 403.811 144.235 403.758 144.174 403.692C144.114 403.626 144.068 403.548 144.04 403.463C144.011 403.378 144.001 403.289 144.009 403.2L151.383 323.281C151.398 323.121 151.472 322.973 151.591 322.865C151.709 322.757 151.864 322.697 152.025 322.697H193.782C193.942 322.697 194.097 322.757 194.216 322.865C194.334 322.973 194.408 323.121 194.423 323.281L201.797 403.2C201.806 403.289 201.795 403.378 201.767 403.463C201.738 403.548 201.692 403.626 201.632 403.692C201.572 403.758 201.498 403.811 201.416 403.847C201.334 403.883 201.246 403.902 201.156 403.902ZM145.356 402.616H200.45L193.194 323.983H152.612L145.356 402.616Z" fill="#7988A6"/>
<path d="M395.767 313.744H145.89V323.34H395.767V313.744Z" fill="white"/>
<path d="M397.007 403.902H340.501C340.411 403.902 340.323 403.883 340.241 403.847C340.159 403.811 340.086 403.758 340.025 403.692C339.965 403.626 339.919 403.548 339.89 403.463C339.862 403.378 339.851 403.289 339.86 403.2L347.234 323.281C347.249 323.121 347.323 322.973 347.441 322.865C347.56 322.757 347.715 322.697 347.875 322.697H389.632C389.793 322.697 389.948 322.757 390.066 322.865C390.185 322.973 390.259 323.121 390.274 323.281L397.648 403.2C397.656 403.289 397.646 403.378 397.617 403.463C397.589 403.548 397.543 403.626 397.483 403.692C397.422 403.758 397.349 403.811 397.267 403.847C397.185 403.883 397.096 403.902 397.007 403.902ZM341.207 402.616H396.301L389.045 323.983H348.463L341.207 402.616Z" fill="#7988A6"/>
<path d="M395.767 313.744H341.74V323.34H395.767V313.744Z" fill="#EDEDED"/>
<path d="M395.767 323.909H145.89C145.739 323.909 145.594 323.849 145.487 323.742C145.38 323.636 145.32 323.491 145.32 323.34V313.744C145.319 313.669 145.333 313.594 145.362 313.524C145.39 313.455 145.432 313.391 145.485 313.338C145.538 313.285 145.601 313.242 145.67 313.213C145.74 313.184 145.814 313.169 145.89 313.169C145.965 313.169 146.04 313.184 146.109 313.213C146.179 313.242 146.242 313.285 146.295 313.338C146.348 313.391 146.39 313.455 146.418 313.524C146.446 313.594 146.461 313.669 146.46 313.744V322.771H395.767C395.919 322.771 396.064 322.831 396.17 322.937C396.277 323.044 396.337 323.189 396.337 323.34C396.337 323.491 396.277 323.636 396.17 323.742C396.064 323.849 395.919 323.909 395.767 323.909Z" fill="#7988A6"/>
<path d="M369.221 153.927C375.272 162.664 375.707 173.648 363.533 183.255C357.794 187.784 358.733 196.476 354.606 202.833C350.479 209.19 334.911 216.433 325.912 208.182C311.119 194.617 331.196 181.072 335.64 174.072C340.994 165.639 336.814 162.234 338.015 156.475C338.509 154.105 339.776 151.324 342.632 150.668C346.415 140.129 362.933 144.848 369.221 153.927Z" fill="#222342"/>
<path d="M375.506 302.713C373.955 309.353 366.576 313.744 358.704 313.744H308.574C302.942 313.744 300.754 316.692 301.639 322.291C303.917 336.718 311.527 382.875 312.183 394.852C312.461 399.925 309.486 403.298 306.638 403.298H287.685C284.696 403.298 282.798 402.765 282.468 401.087C281.743 397.401 286.359 394.79 291.367 390.265C295.286 386.725 300.717 383.891 299.16 377.756C295.217 362.215 281.342 322.476 275.072 303.475C270.841 290.655 279.354 280.47 291.092 280.47H350.481C364.575 280.47 378.569 289.608 375.506 302.713Z" fill="#313461"/>
<path d="M382.673 308.362C377.526 313.287 367.888 313.744 360.017 313.744C352.43 313.744 335.205 311.614 325.922 310.448C322.188 309.98 319.474 312.142 319.985 315.236C320.98 321.271 322.391 325.153 322.391 337.261C322.391 350.512 318.308 359.958 318.308 377.16C318.308 383.392 319.466 389.816 320.331 395.544C321.076 400.482 319.328 403.298 316.48 403.298H297.528C294.539 403.298 292.968 402.688 292.512 401.086C291.65 398.056 298.602 394.259 303.543 389.21C304.769 387.957 307.808 383.53 307.266 377.299C305.826 360.745 297.156 320.498 294.136 303.475C291.816 290.397 300.316 280.47 311.913 280.47H355.998C363.754 280.47 381.128 272.22 384.97 278.939C390.733 289.021 389.694 301.643 382.673 308.362Z" fill="#434785"/>
<path d="M378.089 239.242C378.857 260.666 386.063 273.624 387.521 281.56C379.647 285.055 368.783 280.47 350.48 280.47H338.504C331.727 266.345 338.254 250.127 337.304 233.272C337.008 232.823 335.157 231.584 333.632 229.674C332.006 235.681 326.207 250.655 323.965 254.55C321.388 259.03 307.782 277.835 305.617 280.47H293.153C296.981 274.864 305.369 261.578 309.896 254.805C313.667 249.163 316.461 239.616 316.654 238.724C317.902 232.956 323.81 209.566 329.65 201.63C336.622 192.155 358.882 192.722 364.385 192.954C368.796 193.141 374.512 193.32 380.048 195.555C385.188 197.63 390.556 203.627 388.667 209.298C387.637 212.389 384.104 213.286 382.185 217.259C379.95 221.882 377.788 230.828 378.089 239.242Z" fill="white"/>
<path d="M344.882 193.981C339.84 212.902 359.19 207.587 367.599 193.1C365.602 192.836 363.857 191.86 363.778 189.646C363.61 184.954 363.574 174.402 363.362 168.491C363.312 167.089 362.897 166.69 361.928 168.193C360.676 170.136 359.898 173.564 355.916 175.037C351.893 176.525 348.406 173.299 348.514 176.315C348.626 179.434 348.86 185.981 349.002 189.942C349.086 192.276 346.136 193.883 344.882 193.981Z" fill="#EB8E6C"/>
<path d="M348.941 188.199C348.799 184.266 348.609 179.008 348.513 176.317C348.407 173.3 351.894 176.526 355.916 175.037C357.845 174.319 359.436 172.909 360.379 171.082C362.385 179.173 359.378 188.199 348.941 188.199Z" fill="#C2624E"/>
<path d="M341.296 168.233C341.606 170.299 340.788 171.397 340.984 173.685C341.332 177.742 343.328 183.632 348.512 183.632C357.051 183.632 361.991 175.072 361.725 167.653C361.459 160.233 357.523 154.219 349.294 154.219C343.8 154.219 340.153 156.188 340.152 162.299C340.151 165.036 341.006 166.299 341.296 168.233Z" fill="#EB8E6C"/>
<path d="M356.28 152.637C350.737 148.893 344.545 147.887 343.039 150.379C341.559 152.828 344.73 158.501 350.273 162.245C355.816 165.989 361.606 167.027 363.075 164.796C364.544 162.565 361.823 156.381 356.28 152.637Z" fill="#222342"/>
<path d="M361.296 167.164C360.895 169.888 361.349 173.343 362.732 173.594C364.116 173.845 366.475 171.261 366.559 168.265C366.636 165.507 365.566 163.98 364.183 163.73C362.799 163.479 361.696 164.44 361.296 167.164Z" fill="#EB8E6C"/>
<path d="M356.543 238.02C348.207 240.028 343.112 240.174 337.346 236.897C337.343 235.676 337.338 235.392 337.267 233.287C335.86 232.319 334.594 231.162 333.505 229.849C332.184 228.15 331.545 226.556 331.465 225.138C333.372 224.301 336.193 229.013 341.026 230.704C352.515 234.721 368.995 231.468 371.093 235.086C372.441 237.411 364.025 236.218 356.543 238.02Z" fill="#D3DEE6"/>
<path d="M337.303 233.915C337.165 233.915 337.029 233.87 336.918 233.787C334.271 231.809 331.193 229.033 330.88 225.095C330.64 222.073 331.372 219.614 332.147 217.01C333.001 214.141 333.884 211.173 333.588 207.064C333.575 206.894 333.631 206.726 333.743 206.597C333.855 206.468 334.013 206.389 334.184 206.377C334.354 206.364 334.522 206.42 334.651 206.532C334.781 206.644 334.86 206.802 334.872 206.972C335.186 211.315 334.227 214.535 333.382 217.377C332.642 219.862 331.943 222.209 332.164 224.994C332.436 228.418 335.26 230.941 337.69 232.757C337.798 232.838 337.878 232.951 337.919 233.08C337.959 233.209 337.958 233.347 337.915 233.475C337.872 233.603 337.79 233.715 337.68 233.794C337.571 233.873 337.439 233.915 337.303 233.915Z" fill="#7988A6"/>
<path d="M403.792 250.891C405.777 254.386 406.006 257.717 397.394 261.732C390.002 265.179 372.59 273.345 363.153 277.558C360.879 278.572 356.659 280.47 352.836 280.47H328.83C324.492 280.47 324.088 278.601 325.725 277.63C332.123 273.835 339.326 271.46 344.77 272.182C351.944 273.133 356.412 271.451 360.198 269.113C365.82 265.641 385.053 252.908 389.9 249.792C394.675 246.723 401.093 246.138 403.792 250.891Z" fill="#EB8E6C"/>
<path d="M302.889 392.247C301.041 391.126 298.49 386.258 295.417 386.258C291.739 386.258 290.549 389.535 288.355 391.391C282.286 396.526 277.06 397.317 278.778 401.086C279.736 403.186 281.867 403.298 285.139 403.298H306.151C309.268 403.298 311.644 402.865 311.694 398.162C311.714 396.251 310.678 390.072 309.366 389.674C307.408 389.08 307.617 395.114 302.889 392.247Z" fill="#6565A3"/>
<path d="M313.745 392.247C312.056 391.126 309.726 386.258 306.918 386.258C303.557 386.258 302.471 389.535 300.466 391.391C294.921 396.526 290.146 397.317 291.717 401.086C292.591 403.186 294.539 403.298 297.528 403.298H316.725C319.573 403.298 321.743 402.865 321.789 398.162C321.808 396.251 320.861 390.072 319.662 389.674C317.873 389.08 318.065 395.114 313.745 392.247Z" fill="#7B7BB8"/>
<g opacity="0.71">
<path opacity="0.71" d="M344.935 175.982C344.929 176.704 346.15 178.026 348.257 178.043C350.364 178.059 352.559 176.763 352.565 176.041C352.571 175.32 350.857 175.59 348.75 175.574C346.643 175.558 344.94 175.26 344.935 175.982Z" fill="#C2624E"/>
</g>
<path d="M347.603 174.082C347.582 174.082 347.561 174.081 347.54 174.079C346.436 173.972 345.294 173.86 344.648 173.06C344.449 172.787 344.309 172.476 344.236 172.146C344.163 171.817 344.158 171.476 344.223 171.144C344.291 170.561 344.388 169.963 344.491 169.33C344.606 168.62 344.737 167.815 344.849 166.891C344.983 165.789 344.972 165.238 344.556 164.888C343.809 164.261 341.815 164.491 340.678 165.336C340.61 165.387 340.533 165.424 340.451 165.445C340.369 165.465 340.284 165.47 340.2 165.458C340.116 165.446 340.036 165.417 339.963 165.374C339.89 165.33 339.827 165.273 339.776 165.206C339.725 165.138 339.689 165.061 339.668 164.979C339.647 164.897 339.643 164.811 339.655 164.728C339.668 164.644 339.696 164.564 339.74 164.491C339.783 164.419 339.841 164.355 339.909 164.305C341.399 163.196 344.058 162.789 345.385 163.904C346.405 164.761 346.251 166.028 346.128 167.046C346.013 167.995 345.88 168.814 345.762 169.536C345.662 170.155 345.567 170.739 345.502 171.294C345.427 171.621 345.48 171.964 345.651 172.253C345.957 172.633 346.865 172.721 347.665 172.799C347.83 172.815 347.982 172.894 348.09 173.019C348.198 173.144 348.254 173.305 348.246 173.47C348.238 173.635 348.167 173.791 348.047 173.905C347.928 174.019 347.769 174.082 347.603 174.082Z" fill="#C2624E"/>
<path d="M356.677 165.305C356.573 165.305 356.469 165.279 356.377 165.23C355.043 164.525 351.681 163.063 349.279 164.705C349.209 164.753 349.131 164.786 349.048 164.804C348.965 164.821 348.88 164.822 348.797 164.806C348.714 164.791 348.634 164.759 348.564 164.713C348.493 164.667 348.432 164.607 348.384 164.538C348.336 164.468 348.303 164.39 348.285 164.307C348.268 164.224 348.267 164.139 348.282 164.056C348.298 163.973 348.33 163.894 348.376 163.823C348.422 163.752 348.482 163.691 348.551 163.644C350.652 162.209 353.723 162.372 356.979 164.093C357.106 164.16 357.207 164.268 357.266 164.399C357.325 164.53 357.338 164.677 357.303 164.817C357.268 164.956 357.188 165.08 357.074 165.168C356.961 165.257 356.821 165.305 356.677 165.305Z" fill="#222342"/>
<path d="M351.223 166.686C351.274 166.876 351.378 167.048 351.523 167.181C351.668 167.314 351.848 167.403 352.042 167.437C352.235 167.472 352.435 167.45 352.617 167.375C352.799 167.3 352.956 167.174 353.069 167.013C353.182 166.852 353.246 166.662 353.255 166.466C353.263 166.269 353.215 166.075 353.117 165.904C353.018 165.734 352.873 165.596 352.698 165.505C352.523 165.415 352.326 165.376 352.13 165.393C351.839 165.447 351.581 165.612 351.411 165.854C351.242 166.096 351.174 166.395 351.223 166.686Z" fill="#222342"/>
<path d="M342.792 168.171C343.352 168.121 343.758 167.542 343.698 166.878C343.639 166.214 343.137 165.717 342.576 165.767C342.016 165.817 341.61 166.396 341.67 167.059C341.729 167.723 342.232 168.221 342.792 168.171Z" fill="#222342"/>
<path d="M340.294 165.464C340.158 165.464 340.027 165.421 339.917 165.342C339.807 165.263 339.725 165.152 339.682 165.023C339.64 164.895 339.638 164.756 339.679 164.628C339.72 164.499 339.8 164.386 339.909 164.305C341.399 163.196 344.058 162.789 345.385 163.904C345.45 163.958 345.503 164.025 345.542 164.1C345.581 164.175 345.605 164.257 345.612 164.341C345.62 164.425 345.61 164.51 345.585 164.59C345.559 164.671 345.518 164.746 345.463 164.81C345.409 164.875 345.342 164.928 345.267 164.967C345.192 165.006 345.11 165.03 345.026 165.037C344.941 165.044 344.856 165.035 344.776 165.009C344.695 164.984 344.62 164.943 344.556 164.888C343.809 164.261 341.815 164.491 340.678 165.336C340.567 165.419 340.432 165.464 340.294 165.464Z" fill="#222342"/>
<path d="M404.12 250.991C402.3 246.492 393.582 220.879 388.674 208.578C388.324 207.7 387.085 206.89 386.41 206.695C377.708 204.178 371.736 216.305 376.158 225.111C382.526 237.226 390.626 252.39 392.656 255.32C395.647 259.638 400.031 259.615 402.111 258.621C403.89 257.771 405.811 255.175 404.12 250.991Z" fill="#EB8E6C"/>
<path d="M377.148 227.638C377.009 227.638 376.874 227.593 376.763 227.51C375.096 226.264 369.832 218.248 369.406 210.499C369.171 206.235 370.42 202.794 373.117 200.273C373.179 200.216 373.252 200.17 373.331 200.141C373.41 200.111 373.494 200.097 373.579 200.1C373.663 200.103 373.746 200.122 373.823 200.157C373.9 200.192 373.97 200.242 374.028 200.303C374.085 200.365 374.13 200.437 374.16 200.516C374.19 200.595 374.204 200.679 374.201 200.764C374.198 200.848 374.179 200.931 374.144 201.008C374.109 201.085 374.059 201.154 373.998 201.212C371.591 203.461 370.479 206.562 370.692 210.429C371.09 217.665 376.036 225.36 377.535 226.48C377.643 226.561 377.723 226.674 377.763 226.802C377.804 226.931 377.803 227.07 377.76 227.198C377.717 227.326 377.635 227.438 377.525 227.517C377.415 227.596 377.283 227.638 377.148 227.638Z" fill="#7988A6"/>
<path d="M374.492 207.35C374.384 207.35 374.278 207.323 374.183 207.273C374.087 207.222 374.006 207.149 373.945 207.06C373.885 206.971 373.847 206.868 373.836 206.761C373.824 206.654 373.839 206.546 373.879 206.446C375.103 203.382 377.413 201.322 380.382 200.646C383.142 200.016 386.148 200.731 388.041 202.465C388.17 202.584 388.246 202.748 388.254 202.923C388.261 203.098 388.199 203.268 388.081 203.397C387.962 203.526 387.797 203.602 387.622 203.61C387.447 203.617 387.277 203.555 387.148 203.437C385.565 201.987 383.025 201.397 380.676 201.932C378.142 202.509 376.164 204.285 375.106 206.934C375.057 207.057 374.972 207.162 374.863 207.236C374.753 207.31 374.624 207.35 374.492 207.35Z" fill="#7988A6"/>
<path d="M360.555 179.288C358.443 182.388 353.856 184.894 349.472 184.894C344.751 184.894 342.4 181.618 340.9 179.288C340.767 177.998 340.518 170.845 340.851 169.677C341.122 169.957 341.429 170.872 342.4 170.605C343.858 170.205 343.774 169.295 345.435 169.295C346.996 169.295 348.195 170.357 351.222 170.569C354.075 170.769 359.318 169.1 360.555 168.926V179.288Z" fill="white"/>
<path d="M441.507 396.77C441.507 399.879 435.939 401.613 431.075 400.45C426.811 399.43 424.122 395.505 423.861 393.526C423.366 389.767 430.585 389.606 429.236 379.48C428.14 371.251 441.507 373.686 441.507 376.275V396.77Z" fill="#EB8E6C"/>
<path d="M472.293 383.8C473.703 386.479 469.691 391.134 464.972 392.893C460.835 394.434 456.738 392.579 455.616 391.021C453.485 388.064 459.632 383.826 453.878 375.867C449.201 369.397 461.824 363.908 462.998 366.139C467.448 374.594 469.647 378.772 472.293 383.8Z" fill="#EB8E6C"/>
<path d="M476.899 386.635C478.227 388.134 479.213 390.257 476.438 391.75C474.195 392.958 466.138 397.284 458.563 401.354C454.847 403.351 450.325 403.258 447.268 403.258C444.209 403.258 440.871 403.406 440.871 399.516C440.871 396.659 444.396 396.86 448.1 393.474C452.116 389.804 452.227 388.23 453.683 384.789C455.764 379.874 457.485 385.28 462.647 387.31C468.533 389.626 475.66 385.236 476.899 386.635Z" fill="#009FE3"/>
<path d="M497.095 278.154C492.928 287.694 467.132 290.192 451.797 295.127C444.053 297.62 441.931 306.166 446.124 317.003C449.762 326.406 462.064 353.025 470.928 371.132C467.351 375.999 460.319 379.52 452.431 378.837C444.749 365.001 421.301 325.861 411.519 307.926C405.509 296.908 404.731 283.297 423.684 279.183C432.13 277.349 462.906 271.079 475.171 268.817C484.822 267.036 501.692 267.63 497.095 278.154Z" fill="#5F5F99"/>
<path d="M521.707 305.375C509.637 312.307 476.11 305.058 455.839 305.058C450.04 305.058 446.379 307.353 446.565 314.295C446.667 318.089 446.638 358.975 446.953 379.599C441.86 382.289 436.203 385.811 428.282 382.289C426.62 366.107 420.643 324.208 419.36 303.246C418.848 294.872 419.77 285.162 431.638 280.816C437.935 278.51 479.634 265.447 491.862 267.946C501.155 269.845 509.617 277.212 517.941 278.095C528.019 279.163 534.79 273.341 535.127 277.442C536.121 289.549 532.316 299.282 521.707 305.375Z" fill="#7B7BB8"/>
<path d="M443.272 399.428C443.878 401.39 443.911 403.221 440.883 403.221C437.234 403.221 418.53 403.196 410.397 403.196C407.389 403.196 405.97 402.448 405.97 399.075C405.97 396.668 407.685 395.623 413.661 393.182C418.451 391.225 420.543 389.232 423.481 387.391C427.651 384.778 426.587 388.965 430.387 393.227C434.719 398.087 442.707 397.598 443.272 399.428Z" fill="#36A9E1"/>
<path d="M471.246 305.698H531.557C532.767 305.698 533.928 306.178 534.784 307.033C535.64 307.887 536.121 309.047 536.121 310.255V315.928H466.682V310.255C466.682 309.047 467.163 307.887 468.019 307.033C468.875 306.178 470.036 305.698 471.246 305.698Z" fill="white"/>
<path d="M504.35 315.928H498.453V354.772H504.35V315.928Z" fill="#7988A6"/>
<path d="M530.93 404.584C529.691 404.584 528.48 404.217 527.45 403.53C526.419 402.842 525.617 401.865 525.142 400.722C524.668 399.579 524.544 398.322 524.786 397.108C525.028 395.895 525.624 394.78 526.5 393.905C527.376 393.031 528.492 392.435 529.708 392.193C530.923 391.952 532.182 392.076 533.327 392.549C534.472 393.023 535.45 393.825 536.138 394.853C536.827 395.882 537.194 397.091 537.194 398.328C537.192 399.987 536.532 401.577 535.357 402.75C534.183 403.922 532.591 404.582 530.93 404.584ZM530.93 394.646C530.2 394.646 529.487 394.862 528.881 395.266C528.274 395.671 527.802 396.246 527.522 396.919C527.243 397.592 527.17 398.333 527.313 399.047C527.455 399.762 527.806 400.418 528.322 400.933C528.838 401.448 529.495 401.799 530.21 401.941C530.926 402.083 531.667 402.01 532.341 401.731C533.015 401.452 533.591 400.98 533.996 400.375C534.402 399.769 534.618 399.057 534.618 398.328C534.617 397.352 534.228 396.416 533.536 395.726C532.845 395.035 531.908 394.647 530.93 394.646Z" fill="#7988A6"/>
<path d="M501.401 384.492C501.06 384.492 500.732 384.356 500.491 384.115C500.249 383.874 500.113 383.547 500.113 383.206V354.772C500.115 354.432 500.252 354.107 500.493 353.867C500.735 353.628 501.061 353.493 501.401 353.493C501.742 353.493 502.068 353.628 502.31 353.867C502.551 354.107 502.688 354.432 502.69 354.772V383.206C502.689 383.547 502.554 383.874 502.312 384.115C502.071 384.356 501.743 384.492 501.401 384.492Z" fill="#7988A6"/>
<path d="M530.93 394.646C530.588 394.646 530.26 394.51 530.019 394.269C529.777 394.028 529.642 393.701 529.642 393.359V389.586C529.64 388.235 529.102 386.94 528.145 385.985C527.189 385.03 525.892 384.493 524.54 384.491L478.262 384.492C476.909 384.493 475.613 385.031 474.656 385.986C473.7 386.941 473.162 388.236 473.16 389.587V393.359C473.16 393.701 473.025 394.028 472.783 394.269C472.542 394.51 472.214 394.646 471.872 394.646C471.531 394.646 471.203 394.51 470.962 394.269C470.72 394.028 470.584 393.701 470.584 393.359V389.587C470.586 387.554 471.396 385.605 472.835 384.168C474.275 382.73 476.226 381.922 478.262 381.919L524.54 381.919C526.575 381.921 528.527 382.73 529.966 384.167C531.406 385.605 532.215 387.553 532.218 389.586V393.359C532.218 393.701 532.082 394.028 531.84 394.269C531.599 394.51 531.271 394.646 530.93 394.646Z" fill="#7988A6"/>
<path d="M471.872 404.584C470.634 404.584 469.422 404.217 468.392 403.53C467.362 402.842 466.559 401.865 466.085 400.722C465.611 399.579 465.487 398.322 465.729 397.108C465.97 395.895 466.567 394.78 467.443 393.905C468.319 393.031 469.435 392.435 470.651 392.193C471.866 391.952 473.125 392.076 474.27 392.549C475.414 393.023 476.393 393.825 477.081 394.853C477.769 395.882 478.137 397.091 478.137 398.328C478.135 399.987 477.474 401.577 476.3 402.75C475.126 403.923 473.533 404.582 471.872 404.584ZM471.872 394.646C471.143 394.646 470.43 394.862 469.824 395.267C469.217 395.671 468.744 396.247 468.465 396.919C468.186 397.592 468.113 398.333 468.256 399.047C468.398 399.762 468.749 400.418 469.265 400.933C469.781 401.448 470.438 401.799 471.153 401.941C471.869 402.083 472.61 402.01 473.284 401.731C473.958 401.452 474.534 400.98 474.939 400.375C475.344 399.769 475.561 399.057 475.561 398.328C475.559 397.352 475.171 396.416 474.479 395.726C473.788 395.035 472.85 394.647 471.872 394.646Z" fill="#7988A6"/>
<path d="M421.686 329.11C421.37 329.11 421.065 328.993 420.829 328.783C420.593 328.572 420.443 328.282 420.408 327.969C419.201 317.322 418.438 309.261 418.075 303.325C417.547 294.712 418.562 284.234 431.194 279.608C437.375 277.345 467.447 267.977 484.107 266.533C484.448 266.503 484.786 266.61 485.048 266.829C485.309 267.049 485.473 267.363 485.502 267.703C485.532 268.043 485.425 268.381 485.205 268.642C484.985 268.903 484.671 269.066 484.33 269.096C467.911 270.52 437.385 280.082 432.081 282.024C421.11 286.041 420.144 294.967 420.646 303.167C421.007 309.059 421.766 317.077 422.967 327.679C422.986 327.847 422.972 328.017 422.925 328.179C422.879 328.342 422.8 328.493 422.695 328.625C422.59 328.757 422.459 328.868 422.311 328.949C422.163 329.031 422 329.083 421.832 329.102C421.784 329.108 421.735 329.11 421.686 329.11Z" fill="#B0B0D1"/>
<path d="M492.077 183.412C496.96 189.26 493.795 209.642 485.542 222.544C480.069 231.1 459.404 258.899 453.948 264.019C450.638 267.125 446.536 267.761 444.392 266.354C442.234 264.937 441.821 258.714 442.97 253.435C444.725 245.379 467.603 197.477 472.942 189.919C482.795 175.971 488.702 179.371 492.077 183.412Z" fill="#DB7C5C"/>
<path d="M447.823 247.758C440.9 243.774 415.563 225.055 411.184 222.061C405.944 218.479 404.084 218.713 400.433 215.97C395.544 212.298 387.365 198.048 385.073 199.882C384.208 200.574 387.436 206.139 389.608 211.297C390.359 213.078 391.062 214.89 391.693 216.571C390.696 215.522 389.741 214.443 388.531 213.81C385.967 212.47 383.182 212.299 382.931 212.787C382.233 214.144 385.387 214.721 388.058 217.05C388.985 217.86 389.708 219.35 390.391 220.515C392.438 224.004 395.89 226.013 397.371 226.527C400.869 227.743 404.498 229.016 406.539 231.346C410.525 235.899 437.881 263.866 444.295 266.566C448.13 268.181 451.346 266.274 452.565 264.446C455.283 260.368 454.868 251.812 447.823 247.758Z" fill="#DB7C5C"/>
<path d="M492.074 183.416C488.709 179.362 482.63 175.518 472.628 189.656C469.986 193.392 462.462 206.832 455.872 220.57L478.455 233.412C481.534 229.143 484.562 224.918 486.042 222.611C494.427 209.54 496.943 189.281 492.074 183.416Z" fill="white"/>
<path d="M477.285 218.057C477.314 222.8 477.018 227.541 476.399 232.244L469.015 228.044C468.581 224.787 468.365 221.504 468.368 218.217C468.368 205.943 472.554 192.881 474.676 192.881C476.795 192.881 477.285 205.782 477.285 218.057Z" fill="#D3DEE6"/>
<path d="M504.621 176.171C502.428 177.16 495.187 178.381 487.406 187.33C482.925 192.484 480.06 199.072 477.592 202.053C478.656 188.604 481.487 183.525 481.948 180.402C481.091 173.804 478.808 169.17 477.737 166.85C475.631 162.288 477.671 157.988 481.563 153.344C486.198 147.814 490.95 142.607 492.281 147.228C494.106 153.563 496.403 164.193 498.955 169.289C501.425 174.224 502.585 173.894 504.621 176.171Z" fill="#EB8E6C"/>
<path d="M537.378 277.628C523.517 285.185 509.79 278.011 502.329 274.339C496.212 271.328 490.306 267.206 477.505 268.406C474.605 247.572 473.12 231.841 473.12 219.499C473.12 211.17 473.379 186.56 481.866 180.415C480.512 185.066 479.323 190.995 479.433 196.866C485.379 187.441 494.197 178.764 504.373 175.893C532.538 186.115 538.757 266.24 537.378 277.628Z" fill="white"/>
<path d="M481.442 177.413C480.643 173.754 479.399 170.207 477.739 166.849C475.633 162.286 477.671 157.987 481.564 153.344C483.587 150.932 485.67 148.533 487.458 146.983C496.111 165.285 492.14 175.892 481.442 177.413Z" fill="#C2624E"/>
<path d="M468.007 157.38C468.612 159.572 468.412 161.185 468.938 163.093C470.56 168.972 475.52 173.832 482.177 171.883C488.991 169.888 492.851 162.088 492.363 151.315C491.91 141.326 484.691 134.015 475.6 136.044C468.749 137.573 465.401 141.512 464.437 144.454C463.198 148.236 466.512 151.963 468.007 157.38Z" fill="#EB8E6C"/>
<path d="M464.579 146.147C467.284 145.413 474.618 143.363 476.186 142.937C479.741 141.973 481.292 142.505 483.097 145.308C484.716 147.821 486.623 152.825 487.874 153.328C492.288 155.102 496.936 148.088 496.045 139.88C495.516 135.003 494.076 129.525 488.602 130.135C481.258 122.752 471.899 127.938 463.065 133.72C459.334 136.162 456.813 139.682 457.564 141.069C459.168 144.864 461.46 146.993 464.579 146.147Z" fill="#222342"/>
<path d="M489.457 151.852C489.848 154.85 490.567 156.717 492.281 156.494C493.995 156.27 494.523 154.057 494.947 151.044C495.319 148.399 494.187 144.201 491.134 146.021C489.114 147.225 489.065 148.855 489.457 151.852Z" fill="#EB8E6C"/>
<path d="M474.119 165.272C473.958 165.847 475.647 166.762 477.885 166.188C480.36 165.554 481.155 163.583 480.785 163.321C480.466 163.095 479.492 163.382 477.263 163.992C475.035 164.603 474.265 164.75 474.119 165.272Z" fill="#C2624E"/>
<path d="M474.836 152.201C474.72 152.201 474.607 152.172 474.505 152.117C474.404 152.061 474.318 151.982 474.256 151.885C474.194 151.788 474.156 151.677 474.148 151.562C474.14 151.447 474.16 151.332 474.208 151.227C475.452 148.496 480.107 148.239 482.155 149.137C482.238 149.174 482.313 149.226 482.376 149.291C482.439 149.357 482.488 149.434 482.521 149.518C482.554 149.602 482.57 149.692 482.568 149.783C482.567 149.873 482.547 149.963 482.51 150.046C482.474 150.129 482.421 150.203 482.356 150.266C482.29 150.329 482.213 150.378 482.129 150.411C482.044 150.443 481.954 150.459 481.863 150.457C481.772 150.455 481.683 150.435 481.6 150.399C480.233 149.8 476.361 149.828 475.464 151.797C475.409 151.918 475.321 152.02 475.209 152.091C475.098 152.163 474.968 152.201 474.836 152.201Z" fill="#222342"/>
<path d="M477.259 153.237C477.558 154.319 478.013 154.497 478.479 154.369C478.945 154.241 479.225 153.784 478.945 152.772C478.653 151.713 478.191 151.511 477.725 151.64C477.26 151.768 476.988 152.256 477.259 153.237Z" fill="#222342"/>
<path d="M468.264 155.713C468.563 156.795 469.018 156.973 469.484 156.845C469.95 156.717 470.23 156.26 469.951 155.248C469.658 154.189 469.196 153.988 468.731 154.116C468.265 154.244 467.993 154.732 468.264 155.713Z" fill="#222342"/>
<path d="M474.342 163.046C473.181 163.046 472.466 162.637 472.212 161.822C472.03 161.238 472.033 160.098 472.053 158.285C472.112 156.918 472.066 155.549 471.914 154.189C471.892 154.073 471.825 153.721 471.229 153.46C470.032 152.937 467.803 153.236 466.818 153.848C466.663 153.944 466.476 153.974 466.298 153.932C466.121 153.891 465.967 153.781 465.87 153.626C465.774 153.471 465.743 153.285 465.784 153.108C465.824 152.93 465.934 152.776 466.088 152.679C467.413 151.855 470.13 151.475 471.783 152.199C472.157 152.339 472.49 152.571 472.75 152.874C473.01 153.178 473.189 153.542 473.27 153.932C473.444 155.381 473.498 156.842 473.432 158.3C473.418 159.569 473.402 161.006 473.529 161.412C473.554 161.492 473.765 161.876 475.468 161.542C475.647 161.507 475.834 161.544 475.985 161.646C476.137 161.748 476.242 161.906 476.278 162.085C476.313 162.265 476.275 162.451 476.173 162.602C476.071 162.754 475.913 162.859 475.733 162.894C475.275 162.989 474.809 163.04 474.342 163.046Z" fill="#C2624E"/>
<path d="M466.454 153.952C466.304 153.953 466.158 153.904 466.038 153.814C465.919 153.724 465.831 153.597 465.79 153.453C465.749 153.309 465.756 153.156 465.809 153.016C465.863 152.876 465.961 152.758 466.088 152.679C467.367 151.884 469.671 151.581 471.226 152.004C471.314 152.028 471.396 152.068 471.468 152.124C471.539 152.179 471.6 152.248 471.645 152.327C471.69 152.405 471.719 152.492 471.73 152.582C471.742 152.672 471.736 152.763 471.712 152.85C471.688 152.937 471.647 153.019 471.591 153.091C471.536 153.162 471.467 153.222 471.388 153.267C471.309 153.312 471.222 153.341 471.132 153.352C471.042 153.364 470.951 153.357 470.864 153.333C469.496 153.04 468.068 153.221 466.818 153.848C466.709 153.916 466.583 153.952 466.454 153.952Z" fill="#222342"/>
<path d="M492.28 157.183C492.105 157.182 491.936 157.116 491.809 156.996C491.681 156.876 491.604 156.712 491.592 156.538C491.581 156.363 491.637 156.191 491.748 156.056C491.859 155.921 492.018 155.833 492.192 155.811C493.369 155.657 493.857 153.836 494.264 150.948C494.458 149.629 494.248 148.282 493.661 147.084C493.569 146.926 493.543 146.738 493.59 146.561C493.636 146.385 493.751 146.234 493.909 146.142C494.067 146.05 494.255 146.024 494.432 146.071C494.609 146.117 494.76 146.232 494.853 146.39C495.657 147.768 495.823 149.769 495.63 151.14C495.206 154.153 494.637 156.882 492.37 157.177C492.34 157.181 492.31 157.183 492.28 157.183Z" fill="#C2624E"/>
<path d="M515.705 204.238C513.736 201.398 501.815 223.485 491.743 236.955C484.277 246.94 473.201 256.579 476.216 258.334C483.904 262.812 491.579 257.388 500.252 246.156C512.607 230.158 520.021 210.463 515.705 204.238Z" fill="#D3DEE6"/>
<path d="M406.539 231.346C406.855 231.707 407.319 232.217 407.908 232.849L414.578 224.469C413.042 223.365 411.861 222.525 411.184 222.061C405.944 218.479 404.084 218.713 400.433 215.97C395.544 212.298 387.365 198.048 385.073 199.882C384.208 200.574 387.436 206.139 389.608 211.297C390.359 213.078 391.062 214.89 391.693 216.571C390.696 215.522 389.741 214.443 388.531 213.81C385.967 212.47 383.182 212.299 382.931 212.787C382.233 214.144 385.387 214.721 388.057 217.05C388.985 217.86 389.708 219.35 390.391 220.515C392.438 224.004 395.89 226.013 397.371 226.527C400.869 227.743 404.498 229.016 406.539 231.346Z" fill="#36A9E1"/>
<path d="M393.126 190.64L391.853 192.135L405.423 203.662L406.697 202.167L393.126 190.64Z" fill="white"/>
<path d="M392.462 192.024C392.305 192.024 392.153 191.968 392.034 191.867L386.066 186.797C385.934 186.683 385.852 186.522 385.839 186.348C385.825 186.175 385.881 186.003 385.994 185.87C386.107 185.737 386.268 185.655 386.442 185.64C386.616 185.625 386.789 185.68 386.922 185.792L392.89 190.862C392.993 190.949 393.067 191.066 393.101 191.197C393.136 191.327 393.129 191.465 393.082 191.592C393.035 191.719 392.951 191.828 392.84 191.905C392.729 191.982 392.597 192.024 392.462 192.024Z" fill="#7988A6"/>
<path d="M511.324 184.365C507.358 180.967 501.718 180.256 491.463 193.271C486.774 199.223 473.762 225.596 466.789 241.726C466.566 242.246 466.234 242.712 465.817 243.094C465.399 243.477 464.906 243.766 464.368 243.944C463.83 244.121 463.261 244.183 462.698 244.125C462.135 244.067 461.59 243.89 461.1 243.606C450.554 237.198 430.5 223.881 426.301 221.191C420.426 217.428 423.705 210.694 419.827 207.507C416.828 205.043 409.865 198.073 407.211 200.402C404.722 202.588 403.161 213.184 405.096 216.243C406.725 218.819 415.722 224.493 418.975 227.918C423.55 232.736 454.169 261.268 460.674 265.164C465.48 268.042 470.824 266.167 473.435 263.414C479.01 257.534 502.488 228.399 508.499 219.241C517.564 205.432 517.611 189.75 511.324 184.365Z" fill="#EB8E6C"/>
<path d="M418.975 227.918C419.633 228.611 420.865 229.845 422.509 231.455L429.382 223.194C428.026 222.308 426.964 221.616 426.301 221.191C420.426 217.427 423.705 210.694 419.827 207.507C416.828 205.043 409.865 198.072 407.211 200.402C404.722 202.587 403.161 213.184 405.096 216.243C406.725 218.819 415.722 224.493 418.975 227.918Z" fill="#36A9E1"/>
<path d="M511.665 183.539C507.653 180.002 501.25 179.829 491.389 192.344C488.933 195.461 481.166 209.548 476.267 219.605L498.879 232.847C502.074 228.952 508.203 220.545 509.657 218.313C518.329 205.002 518.009 189.131 511.665 183.539Z" fill="white"/>
<path d="M476.266 220.254C476.156 220.254 476.048 220.226 475.951 220.173C475.855 220.119 475.774 220.042 475.716 219.949C475.657 219.856 475.624 219.749 475.618 219.64C475.612 219.53 475.634 219.42 475.682 219.321C480.33 209.781 488.255 195.273 490.879 191.943C494.062 187.903 497.094 184.927 499.892 183.097C500.037 183.002 500.212 182.969 500.381 183.004C500.55 183.04 500.698 183.14 500.792 183.284C500.886 183.428 500.92 183.604 500.884 183.772C500.849 183.941 500.749 184.088 500.604 184.183C497.924 185.935 494.996 188.816 491.9 192.746C489.574 195.697 481.839 209.649 476.851 219.889C476.798 219.999 476.714 220.091 476.611 220.156C476.508 220.22 476.388 220.254 476.266 220.254Z" fill="#7988A6"/>
<path d="M491.368 163.814C490.294 167.716 488.828 171.127 482.951 173.093C478.346 174.632 473.31 171.849 471.048 169.5C469.823 167.472 468.048 162.891 467.625 159.792C467.997 160.01 468.596 160.893 469.551 160.322C470.987 159.464 470.627 158.52 472.397 158.028C474.061 157.566 475.652 158.341 478.942 157.671C482.041 157.04 487.132 153.71 488.399 153.158C489.749 156.6 490.744 160.17 491.368 163.814Z" fill="white"/>
</svg>
