<svg width="375" height="321" viewBox="0 0 375 321" fill="none" xmlns="http://www.w3.org/2000/svg">
<path d="M368.792 273.095C380.318 257.06 387.773 233.882 369.096 197.037C346.317 152.101 359.878 139.335 343.351 111.304C331.566 91.3178 310.047 86.4414 280.423 79.4193C240.976 70.0688 219.658 35.6584 177.666 41.1287C143.342 45.6 130.591 79.3165 129.531 123.186C128.464 167.368 111.751 196.338 80.9412 215.936C54.4787 232.768 25.411 236.966 33.3332 273.119L368.792 273.095Z" fill="#00BBCE"/>
<path d="M358.919 182.49H319.022V259.513H358.919V182.49Z" fill="white"/>
<path d="M384.357 273.555H380.663C380.547 273.555 380.436 273.509 380.355 273.428C380.273 273.346 380.227 273.235 380.227 273.12V259.948H363.048V273.12C363.048 273.235 363.002 273.346 362.921 273.428C362.839 273.509 362.729 273.555 362.613 273.555H358.919C358.804 273.555 358.693 273.509 358.611 273.428C358.53 273.346 358.484 273.235 358.484 273.12V182.49C358.484 182.375 358.53 182.264 358.611 182.182C358.693 182.101 358.804 182.055 358.919 182.055H384.357C384.472 182.055 384.583 182.101 384.664 182.182C384.746 182.264 384.792 182.375 384.792 182.49V273.12C384.792 273.235 384.746 273.346 384.664 273.428C384.583 273.509 384.472 273.555 384.357 273.555ZM381.098 272.684H383.922V182.926H359.354V272.684H362.178V259.513C362.178 259.397 362.224 259.287 362.306 259.205C362.387 259.123 362.498 259.077 362.613 259.077H380.663C380.778 259.077 380.889 259.123 380.97 259.205C381.052 259.287 381.098 259.397 381.098 259.513V272.684Z" fill="#7988A6"/>
<path d="M322.716 273.555H319.022C318.907 273.555 318.796 273.509 318.714 273.427C318.633 273.346 318.587 273.235 318.587 273.119V259.513C318.587 259.397 318.633 259.286 318.714 259.205C318.796 259.123 318.907 259.077 319.022 259.077C319.137 259.077 319.248 259.123 319.33 259.205C319.411 259.286 319.457 259.397 319.457 259.513V272.684H322.281V259.513C322.281 259.397 322.327 259.286 322.408 259.205C322.49 259.123 322.601 259.077 322.716 259.077C322.832 259.077 322.942 259.123 323.024 259.205C323.105 259.286 323.151 259.397 323.151 259.513V273.119C323.151 273.235 323.105 273.346 323.024 273.427C322.942 273.509 322.832 273.555 322.716 273.555Z" fill="#7988A6"/>
<path d="M358.919 240.692H319.022C318.907 240.692 318.796 240.647 318.714 240.565C318.633 240.483 318.587 240.372 318.587 240.257C318.587 240.141 318.633 240.031 318.714 239.949C318.796 239.867 318.907 239.821 319.022 239.821H358.919C359.035 239.821 359.145 239.867 359.227 239.949C359.308 240.031 359.354 240.141 359.354 240.257C359.354 240.372 359.308 240.483 359.227 240.565C359.145 240.647 359.035 240.692 358.919 240.692Z" fill="#7988A6"/>
<path d="M358.919 221.437H319.022C318.907 221.437 318.796 221.391 318.714 221.309C318.633 221.228 318.587 221.117 318.587 221.001C318.587 220.886 318.633 220.775 318.714 220.693C318.796 220.612 318.907 220.566 319.022 220.566H358.919C359.035 220.566 359.145 220.612 359.227 220.693C359.308 220.775 359.354 220.886 359.354 221.001C359.354 221.117 359.308 221.228 359.227 221.309C359.145 221.391 359.035 221.437 358.919 221.437Z" fill="#7988A6"/>
<path d="M358.919 202.182H319.022C318.907 202.182 318.796 202.136 318.714 202.054C318.633 201.972 318.587 201.862 318.587 201.746C318.587 201.631 318.633 201.52 318.714 201.438C318.796 201.356 318.907 201.311 319.022 201.311H358.919C359.035 201.311 359.145 201.356 359.227 201.438C359.308 201.52 359.354 201.631 359.354 201.746C359.354 201.862 359.308 201.972 359.227 202.054C359.145 202.136 359.035 202.182 358.919 202.182Z" fill="#7988A6"/>
<path d="M338.971 211.007C338.622 211.007 338.28 210.904 337.99 210.71C337.7 210.515 337.474 210.24 337.34 209.917C337.206 209.594 337.171 209.239 337.239 208.896C337.308 208.553 337.476 208.238 337.723 207.991C337.969 207.744 338.284 207.576 338.626 207.508C338.969 207.439 339.324 207.474 339.646 207.608C339.969 207.742 340.244 207.968 340.438 208.259C340.632 208.549 340.736 208.891 340.736 209.241C340.735 209.709 340.549 210.158 340.218 210.489C339.887 210.821 339.439 211.007 338.971 211.007ZM338.971 208.345C338.794 208.345 338.621 208.397 338.473 208.496C338.326 208.594 338.212 208.734 338.144 208.898C338.076 209.061 338.058 209.241 338.093 209.415C338.127 209.589 338.213 209.749 338.338 209.874C338.463 209.999 338.622 210.085 338.796 210.119C338.97 210.154 339.15 210.136 339.313 210.068C339.477 210 339.616 209.886 339.715 209.738C339.813 209.591 339.865 209.418 339.865 209.241C339.865 209.003 339.771 208.775 339.603 208.607C339.435 208.439 339.208 208.345 338.971 208.345Z" fill="#7988A6"/>
<path d="M338.971 191.752C338.622 191.752 338.28 191.648 337.99 191.454C337.7 191.26 337.474 190.984 337.34 190.661C337.206 190.338 337.171 189.983 337.239 189.64C337.308 189.298 337.476 188.983 337.723 188.736C337.969 188.489 338.284 188.32 338.626 188.252C338.969 188.184 339.324 188.219 339.646 188.353C339.969 188.486 340.244 188.713 340.438 189.004C340.632 189.294 340.736 189.636 340.736 189.985C340.735 190.454 340.549 190.903 340.218 191.234C339.887 191.565 339.439 191.751 338.971 191.752ZM338.971 189.089C338.794 189.089 338.621 189.142 338.473 189.24C338.326 189.339 338.212 189.479 338.144 189.642C338.076 189.806 338.058 189.986 338.093 190.16C338.127 190.334 338.213 190.493 338.338 190.619C338.463 190.744 338.622 190.829 338.796 190.864C338.97 190.898 339.15 190.88 339.313 190.813C339.477 190.745 339.616 190.63 339.715 190.483C339.813 190.335 339.865 190.162 339.865 189.985C339.865 189.748 339.771 189.52 339.603 189.352C339.435 189.184 339.208 189.09 338.971 189.089Z" fill="#7988A6"/>
<path d="M338.971 230.263C338.622 230.263 338.28 230.16 337.99 229.965C337.7 229.771 337.474 229.495 337.34 229.173C337.206 228.85 337.171 228.494 337.239 228.152C337.308 227.809 337.476 227.494 337.723 227.247C337.969 227 338.284 226.832 338.626 226.763C338.969 226.695 339.324 226.73 339.646 226.864C339.969 226.998 340.244 227.224 340.438 227.515C340.632 227.805 340.736 228.147 340.736 228.496C340.735 228.965 340.549 229.414 340.218 229.745C339.887 230.076 339.439 230.263 338.971 230.263ZM338.971 227.601C338.794 227.601 338.621 227.653 338.473 227.752C338.326 227.85 338.212 227.99 338.144 228.154C338.076 228.317 338.058 228.497 338.093 228.671C338.127 228.845 338.213 229.004 338.338 229.13C338.463 229.255 338.622 229.34 338.796 229.375C338.97 229.409 339.15 229.392 339.313 229.324C339.477 229.256 339.616 229.141 339.715 228.994C339.813 228.847 339.865 228.674 339.865 228.496C339.865 228.259 339.771 228.031 339.603 227.863C339.435 227.695 339.208 227.601 338.971 227.601Z" fill="#7988A6"/>
<path d="M338.97 249.519C338.621 249.519 338.28 249.415 337.99 249.221C337.7 249.027 337.473 248.751 337.34 248.428C337.206 248.105 337.171 247.75 337.239 247.407C337.308 247.065 337.476 246.75 337.723 246.503C337.969 246.256 338.284 246.087 338.626 246.019C338.969 245.951 339.324 245.986 339.646 246.12C339.969 246.254 340.244 246.48 340.438 246.771C340.632 247.061 340.735 247.403 340.735 247.752C340.735 248.221 340.549 248.67 340.218 249.001C339.887 249.332 339.438 249.518 338.97 249.519ZM338.97 246.856C338.793 246.856 338.62 246.909 338.473 247.007C338.326 247.106 338.212 247.246 338.144 247.409C338.076 247.573 338.058 247.753 338.093 247.927C338.127 248.101 338.213 248.26 338.338 248.385C338.463 248.511 338.622 248.596 338.796 248.631C338.969 248.665 339.149 248.647 339.313 248.58C339.476 248.512 339.616 248.397 339.714 248.25C339.813 248.102 339.865 247.929 339.865 247.752C339.865 247.515 339.771 247.287 339.603 247.119C339.435 246.951 339.208 246.857 338.97 246.856Z" fill="#7988A6"/>
<path d="M84.6907 168.477C85.5056 169.201 86.4611 169.517 87.3251 169.238C88.9165 168.726 89.5913 166.396 88.8322 164.035C88.0732 161.674 86.1678 160.175 84.5764 160.688C83.7705 160.948 83.2012 161.674 82.9338 162.634C82.6792 163.518 82.105 164.276 81.3232 164.76C80.1806 162.179 78.3352 159.972 75.9982 158.391L76.9591 156.727C77.2407 156.248 77.6504 155.858 78.1418 155.601C78.6332 155.343 79.1867 155.228 79.74 155.269C81.4266 155.373 82.8497 154.83 83.4549 153.684C84.448 151.805 82.8626 149.016 79.9138 147.454C76.965 145.893 73.7695 146.15 72.7763 148.029C72.225 149.073 72.4685 150.396 73.2988 151.635C73.7019 152.234 73.9416 152.928 73.9943 153.648C74.0469 154.369 73.9106 155.09 73.5989 155.742L73.0715 156.84C70.2268 155.711 67.1059 155.479 64.1259 156.174L63.6947 154.48C63.5431 153.913 63.5246 153.318 63.6408 152.742C63.7571 152.166 64.0048 151.625 64.3646 151.161C64.9563 150.421 65.2009 149.596 64.9613 148.85C64.4695 147.321 62.1252 146.707 59.7252 147.48C57.3252 148.254 55.7781 150.12 56.2698 151.65C56.5243 152.442 57.2752 152.988 58.2731 153.223C58.7621 153.343 59.2149 153.579 59.5926 153.913C59.9704 154.246 60.262 154.665 60.4424 155.136L61.2339 157.159C57.9412 158.666 55.3006 161.309 53.7954 164.605C53.0625 164.317 52.4117 163.852 51.9005 163.253C51.3892 162.653 51.0333 161.936 50.864 161.166C50.4444 159.349 49.4465 157.993 48.0225 157.599C45.444 156.885 42.4459 159.593 41.326 163.648C40.2061 167.702 41.3885 171.567 43.967 172.281C45.3561 172.665 46.8667 172.056 48.14 170.779C48.7086 170.206 49.3958 169.766 50.1531 169.489C50.9104 169.212 51.7193 169.105 52.5225 169.175C52.1132 172.736 52.982 176.326 54.9738 179.304L53.2517 180.647C52.6289 181.143 51.9015 181.49 51.1247 181.662C50.3479 181.835 49.542 181.828 48.7683 181.642C47.6702 181.364 46.6477 181.501 45.934 182.122C44.4199 183.44 44.8688 186.438 46.9368 188.819C49.0047 191.199 51.9085 192.061 53.4226 190.743C54.1985 190.068 54.4583 188.951 54.2492 187.703C54.1294 187.036 54.1744 186.351 54.3805 185.706C54.5866 185.061 54.9474 184.476 55.4313 184.003L57.4012 182.114C60.2314 184.671 63.9215 186.065 67.7339 186.017L67.8301 187.673C67.8469 188.045 67.7769 188.416 67.6257 188.757C67.4744 189.097 67.2461 189.398 66.9588 189.634C66.6144 189.899 66.3405 190.244 66.1615 190.64C65.9825 191.036 65.9039 191.469 65.9326 191.903C66.1014 193.49 67.9319 194.596 70.0212 194.373C72.1104 194.151 73.6673 192.684 73.4984 191.096C73.4425 190.697 73.2939 190.316 73.0646 189.984C72.8353 189.652 72.5316 189.378 72.1778 189.185C71.7767 188.951 71.4323 188.631 71.1693 188.248C70.9063 187.865 70.7312 187.429 70.6566 186.97L70.4713 185.723C71.0387 185.61 71.5992 185.465 72.1501 185.289C74.9776 184.382 77.4736 182.658 79.323 180.333L79.7496 180.644C80.1977 180.972 80.5472 181.417 80.7599 181.93C80.9726 182.443 81.0404 183.005 80.9558 183.554C80.6747 185.396 81.1542 187.033 82.3826 187.812C84.3311 189.048 87.4246 187.659 89.2921 184.71C91.1596 181.76 91.094 178.367 89.1454 177.13C88.0121 176.411 86.4917 176.581 85.0503 177.429C84.4542 177.789 83.7758 177.99 83.0799 178.014C82.3839 178.037 81.6937 177.881 81.0749 177.561C82.5606 174.545 82.9952 171.118 82.3096 167.826C82.7297 167.741 83.1638 167.756 83.5772 167.869C83.9907 167.982 84.372 168.19 84.6907 168.477Z" fill="#ACEEF4"/>
<path d="M64.9322 171.694C68.0267 170.697 69.7363 167.403 68.7507 164.338C67.7651 161.272 64.4575 159.595 61.363 160.592C58.2686 161.589 56.559 164.882 57.5446 167.948C58.5302 171.014 61.8377 172.691 64.9322 171.694Z" fill="#36A9E1"/>
<path d="M80.6784 171.659C80.9274 169.543 79.6476 167.652 77.8199 167.437C75.9923 167.221 74.3088 168.762 74.0599 170.879C73.8109 172.995 75.0907 174.885 76.9184 175.101C78.7461 175.316 80.4295 173.775 80.6784 171.659Z" fill="#36A9E1"/>
<path d="M44.8222 142.182C43.8695 141.708 42.6899 141.951 41.6185 142.716C41.2589 142.98 40.8398 143.151 40.3983 143.213C39.9568 143.276 39.5067 143.228 39.0882 143.074L38.4866 142.845C39.4185 140.031 39.3013 136.974 38.1566 134.239C38.9207 133.993 39.7464 134.02 40.4927 134.316C40.7737 134.441 41.0793 134.5 41.3866 134.49C41.6939 134.48 41.9949 134.4 42.2669 134.257C43.4384 133.577 43.5719 131.616 42.5652 129.878C41.5584 128.14 39.7927 127.283 38.6212 127.962C38.0449 128.297 37.72 128.941 37.6586 129.717C37.5933 130.471 37.2559 131.177 36.7094 131.701C36.5208 131.446 36.3246 131.195 36.1134 130.952C34.4257 129.002 32.1634 127.639 29.6523 127.059L29.8124 126.045C29.9037 125.497 30.1284 124.981 30.4667 124.542C30.805 124.103 31.2464 123.753 31.7517 123.526C32.9046 122.991 33.6733 122.138 33.7573 121.124C33.9134 119.236 31.6386 117.507 28.6764 117.261C25.7141 117.016 23.1862 118.347 23.03 120.235C22.9457 121.254 23.5704 122.227 24.6293 122.945C25.0748 123.243 25.4399 123.647 25.6923 124.12C25.9447 124.593 26.0765 125.121 26.0762 125.658L26.07 126.766C23.8319 126.911 21.6772 127.672 19.8441 128.965L19.3683 128.382C19.0042 127.923 18.7551 127.384 18.6421 126.809C18.529 126.234 18.5553 125.64 18.7185 125.077C18.9373 124.272 18.8476 123.519 18.3947 122.998C17.4566 121.917 15.3215 122.236 13.6257 123.711C11.9299 125.186 11.3156 127.258 12.2536 128.339C12.7098 128.864 13.4492 129.058 14.2835 128.949C14.8075 128.88 15.3402 128.937 15.8381 129.114C16.3359 129.292 16.7848 129.585 17.1479 129.969L17.8565 130.719C16.6389 132.05 15.7307 133.635 15.1971 135.36C14.6635 137.085 14.5177 138.906 14.7701 140.694L14.5385 140.734C14.0173 140.827 13.4806 140.775 12.9871 140.583C12.4936 140.391 12.0622 140.067 11.7401 139.647C10.6201 138.175 9.14595 137.398 7.80483 137.762C5.71323 138.329 4.73884 141.454 5.62847 144.743C6.51808 148.032 8.93489 150.238 11.0265 149.671C12.3049 149.325 13.1652 148.022 13.438 146.311C13.5202 145.788 13.7376 145.297 14.0687 144.885C14.3997 144.473 14.8328 144.155 15.3247 143.963L15.6487 143.837C16.416 145.613 17.5926 147.182 19.0823 148.416C20.5719 149.649 22.3322 150.512 24.219 150.933L24.0091 152.044C23.9479 152.395 23.8139 152.731 23.6158 153.027C23.4176 153.324 23.1596 153.577 22.8584 153.768C22.5804 153.922 22.3414 154.137 22.1598 154.398C21.9781 154.659 21.8588 154.958 21.8109 155.272C21.656 156.556 22.9001 157.762 24.5897 157.966C26.2793 158.171 27.7745 157.296 27.9293 156.012C27.9576 155.692 27.9118 155.37 27.7953 155.071C27.6789 154.772 27.495 154.504 27.2581 154.288C27.0378 154.072 26.8653 153.812 26.7521 153.525C26.6388 153.238 26.5872 152.931 26.6006 152.622L26.6709 151.224C28.674 151.258 30.6549 150.8 32.4395 149.888C34.2242 148.977 35.758 147.641 36.9064 145.998L37.7083 146.498C38.0251 146.693 38.2874 146.965 38.4711 147.289C38.6547 147.612 38.7537 147.977 38.7589 148.349C38.7669 149.724 39.2882 150.868 40.2717 151.356C41.9454 152.188 44.3208 150.809 45.5773 148.275C46.8339 145.742 46.4958 143.013 44.8222 142.182Z" fill="#ACEEF4"/>
<path d="M21.0236 143.929C23.3189 143.929 25.1796 142.066 25.1796 139.769C25.1796 137.471 23.3189 135.608 21.0236 135.608C18.7284 135.608 16.8677 137.471 16.8677 139.769C16.8677 142.066 18.7284 143.929 21.0236 143.929Z" fill="#36A9E1"/>
<path d="M109.96 126.664C109.445 126.767 108.914 126.753 108.406 126.623C107.898 126.493 107.425 126.25 107.023 125.912L106.582 125.532C107.528 124.259 108.139 122.768 108.356 121.196L108.692 121.228C108.91 121.249 109.121 121.318 109.31 121.43C109.499 121.543 109.66 121.695 109.783 121.878C109.921 122.114 110.115 122.312 110.348 122.455C110.581 122.598 110.846 122.681 111.119 122.696C112.167 122.696 113.017 121.435 113.017 119.879C113.017 118.324 112.167 117.063 111.119 117.063C110.87 117.074 110.628 117.143 110.411 117.264C110.194 117.386 110.008 117.556 109.868 117.762C109.505 118.248 108.969 118.576 108.371 118.679C108.122 116.706 107.257 114.862 105.899 113.41C106.212 113.092 106.599 112.855 107.025 112.72C107.451 112.586 107.903 112.558 108.342 112.64C109.305 112.818 110.179 112.615 110.691 112.001C111.617 110.888 111.005 108.849 109.324 107.447C107.643 106.045 105.529 105.811 104.603 106.924C104.066 107.569 104.047 108.526 104.454 109.49C104.618 109.861 104.681 110.269 104.637 110.673C104.593 111.076 104.444 111.461 104.204 111.788L104.111 111.913C102.582 110.922 100.799 110.396 98.978 110.398C98.6952 110.398 98.416 110.413 98.1396 110.437L97.9848 109.481C97.9038 108.921 98.046 108.351 98.3806 107.894C98.5106 107.721 98.6033 107.524 98.6528 107.313C98.7023 107.103 98.7076 106.884 98.6683 106.672C98.4645 105.692 97.2534 105.115 95.9633 105.384C94.6732 105.653 93.7926 106.665 93.9964 107.645C94.0546 107.886 94.1676 108.111 94.3267 108.301C94.4858 108.491 94.6865 108.642 94.9134 108.742C95.16 108.863 95.3769 109.037 95.5486 109.252C95.7203 109.467 95.8426 109.717 95.9069 109.984L96.1122 110.841C93.897 111.548 92.0177 113.044 90.8308 115.045L87.8306 113.485C87.9852 112.208 87.596 111.106 86.7499 110.744C85.593 110.248 84.0247 111.321 83.2469 113.14C82.4692 114.959 82.7767 116.836 83.9336 117.332C84.7682 117.689 85.8156 117.227 86.6271 116.261L89.8653 117.297C89.267 119.411 89.4208 121.667 90.3005 123.68C89.8027 123.869 89.2722 123.957 88.7399 123.939C88.2077 123.92 87.6845 123.796 87.201 123.572C86.2708 123.155 85.347 123.126 84.648 123.585C83.2455 124.507 83.2814 127.042 84.7282 129.248C86.175 131.453 88.4847 132.493 89.8872 131.571C90.5991 131.103 90.9386 130.219 90.9117 129.174C90.8925 128.645 90.9787 128.117 91.1655 127.622C91.3523 127.126 91.6359 126.673 91.9996 126.288C93.5357 127.967 95.6253 129.035 97.8846 129.296L97.8197 130.368C97.8009 130.756 97.6985 131.135 97.5198 131.48C97.341 131.825 97.09 132.127 96.7839 132.366C96.5886 132.495 96.4263 132.668 96.31 132.872C96.1938 133.075 96.1269 133.303 96.1146 133.537C96.1146 134.545 97.3966 135.361 98.978 135.361C100.559 135.361 101.841 134.545 101.841 133.537C101.825 133.279 101.744 133.03 101.608 132.811C101.471 132.592 101.282 132.411 101.058 132.283C100.749 132.081 100.492 131.81 100.307 131.491C100.121 131.173 100.013 130.815 99.9888 130.447L99.9265 129.313C101.716 129.135 103.418 128.447 104.83 127.331L105.313 127.864C105.64 128.217 105.878 128.642 106.007 129.105C106.137 129.568 106.156 130.056 106.061 130.527C105.891 131.327 106.024 132.056 106.503 132.524C107.457 133.455 109.414 132.994 110.875 131.494C112.336 129.995 112.747 128.025 111.793 127.093C111.349 126.66 110.688 126.529 109.96 126.664Z" fill="#ACEEF4"/>
<path d="M105.564 122.444C107.253 121.743 108.055 119.805 107.356 118.115C106.656 116.424 104.72 115.621 103.031 116.321C101.342 117.022 100.54 118.96 101.24 120.651C101.939 122.341 103.876 123.144 105.564 122.444Z" fill="#36A9E1"/>
<path d="M94.1785 124.047C95.3487 123.532 95.8083 122.001 95.2049 120.626C94.6016 119.252 93.1638 118.555 91.9936 119.07C90.8234 119.585 90.3639 121.116 90.9672 122.491C91.5705 123.865 93.0083 124.562 94.1785 124.047Z" fill="#36A9E1"/>
<path d="M82.8935 273.528H44.7203C44.6598 273.528 44.5999 273.516 44.5446 273.491C44.4892 273.467 44.4396 273.431 44.3988 273.386C44.3581 273.342 44.327 273.289 44.3078 273.231C44.2885 273.174 44.2814 273.113 44.287 273.053L49.2689 218.931C49.2788 218.823 49.3288 218.722 49.4089 218.649C49.4891 218.576 49.5937 218.535 49.7022 218.535H77.9117C78.0202 218.535 78.1248 218.576 78.2049 218.649C78.2851 218.722 78.335 218.823 78.345 218.931L83.3268 273.053C83.3323 273.113 83.3252 273.174 83.306 273.231C83.2867 273.289 83.2557 273.342 83.2149 273.386C83.1741 273.431 83.1245 273.467 83.0691 273.491C83.0138 273.516 82.954 273.528 82.8935 273.528ZM45.1973 272.657H82.4164L77.5148 219.406H50.099L45.1973 272.657Z" fill="#7988A6"/>
<path d="M214.365 212.472H45.5576V218.97H214.365V212.472Z" fill="white"/>
<path d="M215.203 273.528H177.03C176.969 273.528 176.909 273.516 176.854 273.491C176.799 273.467 176.749 273.431 176.708 273.386C176.667 273.342 176.636 273.289 176.617 273.231C176.598 273.174 176.591 273.113 176.596 273.053L181.578 218.931C181.588 218.823 181.638 218.722 181.718 218.649C181.798 218.576 181.903 218.535 182.012 218.535H210.221C210.329 218.535 210.434 218.576 210.514 218.649C210.594 218.722 210.644 218.823 210.654 218.931L215.636 273.053C215.642 273.113 215.635 273.174 215.615 273.231C215.596 273.289 215.565 273.342 215.524 273.386C215.483 273.431 215.434 273.467 215.378 273.491C215.323 273.516 215.263 273.528 215.203 273.528ZM177.507 272.657H214.726L209.824 219.406H182.408L177.507 272.657Z" fill="#7988A6"/>
<path d="M214.365 212.472H177.867V218.97H214.365V212.472Z" fill="#EDEDED"/>
<path d="M214.365 219.356H45.5576C45.4554 219.356 45.3574 219.316 45.2852 219.243C45.213 219.171 45.1724 219.073 45.1724 218.971V212.472C45.1719 212.421 45.1816 212.37 45.2007 212.323C45.2199 212.276 45.2482 212.233 45.284 212.197C45.3198 212.161 45.3624 212.132 45.4094 212.113C45.4563 212.093 45.5067 212.083 45.5575 212.083C45.6084 212.083 45.6588 212.093 45.7057 212.113C45.7527 212.132 45.7953 212.161 45.8311 212.197C45.8669 212.233 45.8952 212.276 45.9144 212.323C45.9335 212.37 45.9432 212.421 45.9427 212.472V218.585H214.365C214.467 218.585 214.565 218.626 214.638 218.698C214.71 218.77 214.75 218.868 214.75 218.971C214.75 219.073 214.71 219.171 214.638 219.243C214.565 219.316 214.467 219.356 214.365 219.356Z" fill="#7988A6"/>
<path d="M196.432 104.241C200.52 110.158 200.813 117.597 192.589 124.103C188.712 127.17 189.347 133.056 186.558 137.361C183.77 141.667 173.253 146.572 167.174 140.984C157.18 131.797 170.743 122.625 173.746 117.884C177.362 112.173 174.539 109.867 175.35 105.967C175.684 104.363 176.54 102.479 178.469 102.035C181.025 94.8977 192.184 98.0936 196.432 104.241Z" fill="#222342"/>
<path d="M200.678 205.002C199.63 209.498 194.644 212.472 189.327 212.472H155.461C151.656 212.472 150.178 214.469 150.775 218.26C152.315 228.031 157.456 259.289 157.899 267.4C158.087 270.835 156.077 273.119 154.153 273.119H141.349C139.33 273.119 138.047 272.759 137.824 271.622C137.335 269.125 140.453 267.358 143.836 264.293C146.484 261.896 150.153 259.977 149.101 255.822C146.437 245.297 137.064 218.385 132.828 205.518C129.97 196.836 135.721 189.938 143.651 189.938H183.771C193.293 189.938 202.746 196.127 200.678 205.002Z" fill="#313461"/>
<path d="M205.519 208.828C202.042 212.163 195.531 212.472 190.214 212.472C185.088 212.472 173.452 211.03 167.181 210.241C164.658 209.923 162.825 211.387 163.169 213.483C163.842 217.57 164.795 220.199 164.795 228.398C164.795 237.372 162.037 243.769 162.037 255.418C162.037 259.639 162.819 263.989 163.403 267.868C163.907 271.213 162.726 273.12 160.802 273.12H147.999C145.979 273.12 144.918 272.707 144.61 271.622C144.027 269.569 148.724 266.999 152.062 263.579C152.891 262.73 154.944 259.733 154.577 255.513C153.604 244.302 147.748 217.046 145.707 205.518C144.14 196.662 149.882 189.939 157.717 189.939H187.499C192.738 189.939 204.476 184.351 207.071 188.902C210.965 195.729 210.263 204.278 205.519 208.828Z" fill="#434785"/>
<path d="M202.423 162.018C202.942 176.527 207.81 185.302 208.795 190.677C203.475 193.043 196.136 189.939 183.771 189.939H175.68C171.102 180.373 175.512 169.39 174.87 157.975C174.67 157.671 173.419 156.832 172.389 155.539C171.291 159.607 167.373 169.747 165.859 172.385C164.118 175.419 154.926 188.154 153.463 189.939H145.043C147.629 186.142 153.296 177.144 156.354 172.558C158.902 168.737 160.789 162.271 160.919 161.667C161.763 157.761 165.754 141.921 169.699 136.546C174.409 130.13 189.447 130.514 193.164 130.672C196.145 130.798 200.006 130.919 203.746 132.433C207.218 133.838 210.845 137.899 209.568 141.739C208.872 143.833 206.486 144.441 205.189 147.131C203.68 150.262 202.219 156.32 202.423 162.018Z" fill="white"/>
<path d="M179.989 131.367C176.583 144.18 189.655 140.581 195.336 130.77C193.987 130.591 192.808 129.931 192.755 128.431C192.641 125.253 192.617 118.108 192.474 114.105C192.44 113.155 192.16 112.885 191.505 113.903C190.659 115.219 190.133 117.54 187.443 118.538C184.726 119.546 182.37 117.361 182.443 119.403C182.518 121.515 182.677 125.949 182.773 128.631C182.83 130.212 180.837 131.301 179.989 131.367Z" fill="#EB8E6C"/>
<path d="M182.731 127.451C182.636 124.788 182.507 121.227 182.442 119.404C182.37 117.361 184.726 119.546 187.443 118.537C188.746 118.051 189.821 117.096 190.459 115.859C191.814 121.339 189.782 127.451 182.731 127.451Z" fill="#C2624E"/>
<path d="M177.567 113.93C177.776 115.329 177.223 116.073 177.356 117.623C177.591 120.37 178.939 124.359 182.441 124.359C188.21 124.359 191.547 118.562 191.368 113.537C191.188 108.513 188.529 104.439 182.97 104.439C179.258 104.439 176.795 105.773 176.794 109.911C176.793 111.765 177.371 112.62 177.567 113.93Z" fill="#EB8E6C"/>
<path d="M187.689 103.368C183.944 100.833 179.762 100.152 178.744 101.839C177.745 103.497 179.886 107.339 183.631 109.875C187.376 112.41 191.287 113.113 192.28 111.602C193.272 110.091 191.434 105.904 187.689 103.368Z" fill="#222342"/>
<path d="M191.078 113.206C190.807 115.051 191.114 117.39 192.048 117.56C192.983 117.73 194.576 115.98 194.633 113.952C194.685 112.084 193.962 111.05 193.028 110.88C192.093 110.71 191.348 111.361 191.078 113.206Z" fill="#EB8E6C"/>
<path d="M187.867 161.191C182.235 162.551 178.794 162.649 174.898 160.43C174.896 159.604 174.892 159.411 174.845 157.986C173.895 157.33 173.039 156.547 172.303 155.657C171.411 154.507 170.979 153.427 170.925 152.467C172.213 151.9 174.119 155.091 177.384 156.236C185.145 158.956 196.279 156.753 197.697 159.204C198.607 160.778 192.922 159.971 187.867 161.191Z" fill="#D3DEE6"/>
<path d="M174.869 158.411C174.775 158.411 174.684 158.381 174.609 158.325C172.821 156.985 170.741 155.105 170.53 152.438C170.368 150.391 170.862 148.726 171.386 146.963C171.963 145.02 172.559 143.01 172.359 140.228C172.351 140.112 172.389 139.999 172.464 139.911C172.54 139.824 172.647 139.77 172.762 139.762C172.877 139.754 172.99 139.791 173.078 139.867C173.165 139.943 173.219 140.05 173.227 140.165C173.439 143.106 172.791 145.287 172.22 147.211C171.72 148.894 171.248 150.484 171.398 152.37C171.581 154.688 173.489 156.397 175.13 157.627C175.203 157.682 175.258 157.758 175.285 157.846C175.312 157.933 175.311 158.027 175.282 158.113C175.254 158.2 175.198 158.276 175.124 158.329C175.05 158.383 174.961 158.411 174.869 158.411Z" fill="#7988A6"/>
<path d="M219.787 169.908C221.127 172.274 221.282 174.53 215.464 177.249C210.47 179.583 198.708 185.114 192.332 187.966C190.796 188.654 187.945 189.939 185.363 189.939H169.145C166.214 189.939 165.941 188.673 167.047 188.016C171.37 185.446 176.235 183.837 179.913 184.326C184.76 184.97 187.779 183.831 190.336 182.248C194.134 179.896 207.127 171.273 210.401 169.163C213.627 167.085 217.963 166.689 219.787 169.908Z" fill="#EB8E6C"/>
<path d="M151.62 265.636C150.372 264.877 148.649 261.58 146.573 261.58C144.088 261.58 143.284 263.799 141.802 265.056C137.701 268.533 134.171 269.069 135.332 271.622C135.979 273.044 137.419 273.119 139.629 273.119H153.824C155.93 273.119 157.535 272.827 157.569 269.642C157.582 268.347 156.882 264.163 155.996 263.893C154.673 263.491 154.815 267.577 151.62 265.636Z" fill="#6565A3"/>
<path d="M158.954 265.636C157.813 264.877 156.239 261.58 154.342 261.58C152.072 261.58 151.338 263.799 149.983 265.056C146.237 268.533 143.012 269.069 144.073 271.622C144.664 273.044 145.979 273.119 147.999 273.119H160.967C162.891 273.119 164.357 272.827 164.388 269.642C164.401 268.347 163.761 264.163 162.952 263.893C161.743 263.491 161.872 267.577 158.954 265.636Z" fill="#7B7BB8"/>
<g opacity="0.71">
<path opacity="0.71" d="M180.025 119.178C180.021 119.666 180.846 120.562 182.269 120.573C183.693 120.585 185.176 119.707 185.179 119.218C185.183 118.729 184.026 118.913 182.602 118.902C181.179 118.89 180.028 118.689 180.025 119.178Z" fill="#C2624E"/>
</g>
<path d="M181.828 117.891C181.813 117.891 181.799 117.891 181.785 117.889C181.039 117.816 180.267 117.741 179.831 117.199C179.697 117.014 179.602 116.804 179.553 116.58C179.503 116.357 179.5 116.126 179.544 115.902C179.59 115.507 179.655 115.102 179.725 114.673C179.803 114.192 179.891 113.647 179.967 113.022C180.057 112.275 180.05 111.902 179.769 111.665C179.264 111.24 177.917 111.396 177.149 111.968C177.103 112.003 177.051 112.028 176.996 112.042C176.94 112.056 176.883 112.059 176.826 112.051C176.77 112.042 176.715 112.023 176.666 111.994C176.617 111.965 176.574 111.926 176.54 111.88C176.506 111.834 176.481 111.782 176.467 111.726C176.453 111.671 176.45 111.613 176.458 111.556C176.467 111.5 176.486 111.445 176.515 111.396C176.545 111.347 176.583 111.304 176.629 111.27C177.637 110.519 179.432 110.243 180.329 110.998C181.018 111.579 180.914 112.437 180.831 113.126C180.753 113.769 180.663 114.323 180.584 114.813C180.516 115.232 180.452 115.627 180.408 116.003C180.357 116.224 180.393 116.457 180.509 116.652C180.716 116.91 181.329 116.97 181.87 117.022C181.981 117.033 182.083 117.087 182.156 117.171C182.23 117.256 182.267 117.365 182.262 117.477C182.257 117.589 182.208 117.694 182.128 117.771C182.047 117.848 181.939 117.891 181.828 117.891Z" fill="#C2624E"/>
<path d="M187.957 111.947C187.887 111.947 187.817 111.929 187.754 111.896C186.853 111.419 184.582 110.429 182.959 111.541C182.912 111.573 182.859 111.596 182.803 111.607C182.747 111.619 182.69 111.62 182.634 111.609C182.577 111.599 182.524 111.577 182.476 111.546C182.428 111.515 182.387 111.474 182.355 111.427C182.322 111.38 182.3 111.327 182.288 111.271C182.276 111.215 182.275 111.157 182.286 111.101C182.297 111.045 182.318 110.991 182.349 110.943C182.38 110.895 182.421 110.854 182.468 110.822C183.887 109.85 185.962 109.961 188.161 111.126C188.247 111.172 188.315 111.245 188.355 111.333C188.395 111.422 188.403 111.522 188.38 111.616C188.357 111.711 188.302 111.794 188.226 111.854C188.149 111.914 188.055 111.947 187.957 111.947Z" fill="#222342"/>
<path d="M184.273 112.882C184.307 113.011 184.378 113.127 184.476 113.217C184.573 113.307 184.695 113.368 184.826 113.391C184.957 113.414 185.092 113.399 185.215 113.349C185.338 113.298 185.444 113.213 185.52 113.104C185.596 112.995 185.64 112.866 185.645 112.733C185.651 112.6 185.619 112.468 185.552 112.353C185.486 112.238 185.388 112.144 185.269 112.082C185.151 112.021 185.018 111.995 184.886 112.007C184.689 112.043 184.515 112.155 184.4 112.319C184.286 112.483 184.24 112.685 184.273 112.882Z" fill="#222342"/>
<path d="M178.577 113.888C178.955 113.854 179.23 113.462 179.189 113.013C179.149 112.563 178.81 112.226 178.431 112.26C178.053 112.294 177.779 112.686 177.819 113.135C177.859 113.585 178.198 113.922 178.577 113.888Z" fill="#222342"/>
<path d="M176.889 112.055C176.798 112.055 176.709 112.026 176.635 111.972C176.561 111.919 176.505 111.843 176.476 111.756C176.447 111.67 176.447 111.576 176.474 111.488C176.502 111.401 176.556 111.325 176.629 111.27C177.636 110.519 179.432 110.243 180.329 110.998C180.373 111.035 180.409 111.08 180.435 111.131C180.461 111.182 180.477 111.237 180.482 111.294C180.487 111.351 180.481 111.409 180.464 111.463C180.446 111.518 180.419 111.568 180.382 111.612C180.345 111.656 180.3 111.692 180.249 111.718C180.198 111.745 180.143 111.761 180.086 111.766C180.029 111.771 179.972 111.764 179.917 111.747C179.863 111.73 179.812 111.702 179.769 111.665C179.264 111.24 177.917 111.396 177.149 111.968C177.074 112.025 176.983 112.055 176.889 112.055Z" fill="#222342"/>
<path d="M220.008 169.975C218.779 166.928 212.889 149.583 209.574 141.253C209.337 140.658 208.5 140.109 208.044 139.977C202.165 138.273 198.131 146.486 201.118 152.449C205.42 160.653 210.892 170.923 212.263 172.907C214.284 175.831 217.246 175.815 218.651 175.143C219.853 174.567 221.151 172.808 220.008 169.975Z" fill="#EB8E6C"/>
<path d="M201.787 154.16C201.693 154.16 201.602 154.129 201.527 154.073C200.401 153.229 196.845 147.8 196.556 142.553C196.398 139.665 197.242 137.335 199.064 135.628C199.106 135.589 199.155 135.558 199.208 135.538C199.262 135.518 199.319 135.509 199.376 135.51C199.433 135.512 199.489 135.526 199.541 135.549C199.593 135.573 199.64 135.606 199.679 135.648C199.718 135.69 199.748 135.739 199.768 135.792C199.789 135.846 199.798 135.903 199.796 135.96C199.794 136.017 199.781 136.074 199.757 136.126C199.734 136.178 199.7 136.225 199.659 136.264C198.033 137.786 197.282 139.887 197.425 142.505C197.694 147.406 201.036 152.617 202.048 153.375C202.121 153.43 202.175 153.507 202.203 153.594C202.23 153.681 202.229 153.775 202.2 153.862C202.171 153.948 202.116 154.024 202.042 154.077C201.968 154.131 201.878 154.16 201.787 154.16Z" fill="#7988A6"/>
<path d="M199.993 140.421C199.92 140.42 199.848 140.403 199.784 140.368C199.719 140.334 199.664 140.285 199.623 140.224C199.583 140.164 199.557 140.094 199.549 140.022C199.541 139.949 199.551 139.876 199.578 139.808C200.405 137.734 201.966 136.338 203.971 135.88C205.836 135.454 207.867 135.938 209.146 137.113C209.233 137.193 209.285 137.304 209.29 137.423C209.295 137.541 209.253 137.656 209.173 137.744C209.093 137.831 208.981 137.883 208.863 137.888C208.745 137.893 208.629 137.851 208.542 137.771C207.473 136.789 205.757 136.389 204.17 136.751C202.459 137.142 201.122 138.345 200.407 140.139C200.374 140.222 200.317 140.293 200.243 140.344C200.169 140.394 200.082 140.421 199.993 140.421Z" fill="#7988A6"/>
<path d="M190.577 121.416C189.151 123.516 186.052 125.213 183.09 125.213C179.901 125.213 178.312 122.994 177.299 121.416C177.21 120.543 177.041 115.699 177.266 114.908C177.449 115.097 177.657 115.717 178.312 115.536C179.298 115.265 179.241 114.649 180.363 114.649C181.418 114.649 182.227 115.368 184.272 115.512C186.2 115.647 189.741 114.517 190.577 114.399V121.416Z" fill="white"/>
<path d="M245.265 268.699C245.265 270.804 241.504 271.978 238.218 271.19C235.337 270.5 233.52 267.842 233.344 266.501C233.01 263.956 237.887 263.847 236.976 256.99C236.235 251.416 245.265 253.066 245.265 254.819V268.699Z" fill="#EB8E6C"/>
<path d="M266.063 259.915C267.015 261.73 264.305 264.882 261.117 266.073C258.323 267.117 255.555 265.861 254.797 264.806C253.357 262.803 257.51 259.933 253.623 254.543C250.463 250.162 258.991 246.444 259.784 247.955C262.79 253.681 264.275 256.51 266.063 259.915Z" fill="#EB8E6C"/>
<path d="M269.175 261.835C270.072 262.85 270.738 264.287 268.863 265.299C267.348 266.117 261.905 269.046 256.787 271.803C254.277 273.155 251.222 273.092 249.157 273.092C247.09 273.092 244.836 273.192 244.836 270.558C244.836 268.623 247.217 268.76 249.719 266.467C252.432 263.981 252.507 262.915 253.491 260.585C254.896 257.256 256.059 260.917 259.546 262.292C263.523 263.86 268.338 260.888 269.175 261.835Z" fill="#009FE3"/>
<path d="M282.819 188.37C280.004 194.83 262.577 196.522 252.217 199.865C246.985 201.553 245.552 207.34 248.385 214.679C250.842 221.047 259.153 239.073 265.141 251.336C262.725 254.632 257.974 257.016 252.645 256.554C247.455 247.184 231.615 220.678 225.006 208.532C220.946 201.07 220.421 191.853 233.225 189.067C238.931 187.825 259.722 183.579 268.008 182.047C274.527 180.841 285.924 181.243 282.819 188.37Z" fill="#5F5F99"/>
<path d="M299.446 206.804C291.291 211.499 268.642 206.59 254.947 206.59C251.03 206.59 248.557 208.144 248.683 212.845C248.751 215.415 248.732 243.104 248.944 257.07C245.504 258.892 241.682 261.277 236.331 258.892C235.208 247.933 231.171 219.558 230.304 205.363C229.958 199.692 230.581 193.116 238.598 190.173C242.852 188.611 271.022 179.765 279.283 181.457C285.561 182.743 291.278 187.732 296.901 188.33C303.71 189.053 308.284 185.111 308.511 187.888C309.183 196.087 306.612 202.678 299.446 206.804Z" fill="#7B7BB8"/>
<path d="M246.458 270.499C246.867 271.828 246.889 273.067 244.844 273.067C242.379 273.067 229.743 273.051 224.249 273.051C222.216 273.051 221.258 272.544 221.258 270.26C221.258 268.629 222.416 267.922 226.453 266.269C229.689 264.944 231.103 263.594 233.087 262.347C235.904 260.578 235.186 263.413 237.753 266.3C240.68 269.591 246.076 269.259 246.458 270.499Z" fill="#36A9E1"/>
<path d="M265.356 207.023H306.099C306.917 207.023 307.701 207.349 308.28 207.927C308.858 208.506 309.183 209.291 309.183 210.11V213.951H262.272V210.11C262.272 209.291 262.597 208.506 263.176 207.927C263.754 207.349 264.538 207.023 265.356 207.023Z" fill="white"/>
<path d="M287.719 213.951H283.736V240.257H287.719V213.951Z" fill="#7988A6"/>
<path d="M305.676 273.99C304.839 273.99 304.02 273.742 303.325 273.277C302.629 272.811 302.086 272.149 301.766 271.375C301.446 270.601 301.362 269.75 301.525 268.928C301.688 268.106 302.091 267.351 302.683 266.759C303.275 266.166 304.029 265.763 304.85 265.599C305.671 265.436 306.522 265.52 307.295 265.841C308.068 266.161 308.729 266.704 309.194 267.401C309.659 268.097 309.907 268.916 309.908 269.754C309.906 270.877 309.46 271.954 308.667 272.748C307.873 273.542 306.798 273.989 305.676 273.99ZM305.676 267.26C305.183 267.26 304.701 267.407 304.291 267.681C303.882 267.955 303.562 268.344 303.374 268.8C303.185 269.256 303.136 269.757 303.232 270.241C303.328 270.725 303.566 271.169 303.914 271.518C304.262 271.867 304.706 272.104 305.19 272.2C305.673 272.297 306.174 272.247 306.629 272.058C307.084 271.87 307.474 271.55 307.747 271.14C308.021 270.73 308.167 270.247 308.167 269.754C308.166 269.093 307.904 268.459 307.437 267.991C306.969 267.524 306.336 267.261 305.676 267.26Z" fill="#7988A6"/>
<path d="M285.728 260.384C285.497 260.384 285.276 260.292 285.112 260.129C284.949 259.965 284.857 259.744 284.857 259.513V240.257C284.859 240.027 284.951 239.807 285.114 239.645C285.277 239.482 285.498 239.391 285.728 239.391C285.958 239.391 286.178 239.482 286.341 239.645C286.504 239.807 286.597 240.027 286.598 240.257V259.513C286.598 259.744 286.506 259.965 286.343 260.129C286.18 260.292 285.958 260.384 285.728 260.384Z" fill="#7988A6"/>
<path d="M305.676 267.26C305.445 267.26 305.224 267.169 305.06 267.005C304.897 266.842 304.806 266.62 304.806 266.389V263.834C304.805 262.919 304.441 262.042 303.795 261.395C303.149 260.749 302.273 260.385 301.359 260.384L270.095 260.384C269.182 260.385 268.306 260.749 267.66 261.396C267.013 262.043 266.65 262.92 266.649 263.834V266.389C266.649 266.62 266.557 266.842 266.394 267.005C266.231 267.169 266.01 267.26 265.779 267.26C265.548 267.26 265.327 267.169 265.164 267.005C265 266.842 264.909 266.62 264.909 266.389V263.834C264.91 262.458 265.457 261.138 266.43 260.164C267.402 259.191 268.72 258.643 270.095 258.642L301.359 258.642C302.734 258.643 304.053 259.191 305.025 260.164C305.997 261.138 306.544 262.457 306.546 263.834V266.389C306.546 266.62 306.454 266.842 306.291 267.005C306.128 267.169 305.907 267.26 305.676 267.26Z" fill="#7988A6"/>
<path d="M265.779 273.991C264.942 273.991 264.124 273.742 263.428 273.277C262.732 272.811 262.19 272.149 261.869 271.375C261.549 270.601 261.465 269.75 261.628 268.928C261.792 268.106 262.195 267.351 262.787 266.759C263.378 266.166 264.132 265.763 264.953 265.599C265.774 265.436 266.625 265.52 267.398 265.841C268.172 266.161 268.833 266.704 269.298 267.401C269.763 268.097 270.011 268.916 270.011 269.754C270.01 270.877 269.563 271.954 268.77 272.748C267.977 273.543 266.901 273.989 265.779 273.991ZM265.779 267.26C265.286 267.26 264.804 267.407 264.395 267.681C263.985 267.955 263.666 268.344 263.477 268.8C263.289 269.256 263.239 269.757 263.335 270.241C263.432 270.725 263.669 271.169 264.017 271.518C264.366 271.867 264.81 272.104 265.293 272.2C265.776 272.297 266.277 272.247 266.733 272.058C267.188 271.87 267.577 271.55 267.851 271.14C268.124 270.73 268.271 270.247 268.27 269.754C268.27 269.093 268.007 268.459 267.54 267.991C267.073 267.524 266.439 267.261 265.779 267.26Z" fill="#7988A6"/>
<path d="M231.875 222.878C231.661 222.878 231.455 222.799 231.296 222.657C231.137 222.514 231.035 222.318 231.011 222.105C230.196 214.895 229.681 209.436 229.435 205.416C229.079 199.584 229.765 192.488 238.298 189.355C242.474 187.822 262.79 181.478 274.045 180.5C274.274 180.48 274.503 180.552 274.68 180.701C274.856 180.849 274.967 181.062 274.987 181.292C275.007 181.523 274.935 181.751 274.786 181.928C274.638 182.105 274.425 182.216 274.195 182.236C263.103 183.2 242.481 189.675 238.898 190.991C231.486 193.711 230.833 199.756 231.172 205.31C231.416 209.299 231.929 214.729 232.741 221.909C232.754 222.023 232.744 222.138 232.712 222.248C232.681 222.358 232.628 222.46 232.557 222.55C232.485 222.639 232.397 222.714 232.297 222.769C232.197 222.825 232.087 222.86 231.974 222.873C231.941 222.876 231.908 222.878 231.875 222.878Z" fill="#B0B0D1"/>
<path d="M279.428 124.209C282.727 128.169 280.589 141.973 275.014 150.71C271.316 156.505 257.356 175.33 253.67 178.797C251.434 180.901 248.663 181.332 247.214 180.379C245.756 179.419 245.477 175.205 246.254 171.63C247.439 166.174 262.894 133.734 266.501 128.616C273.158 119.17 277.148 121.472 279.428 124.209Z" fill="#DB7C5C"/>
<path d="M249.532 167.786C244.855 165.088 227.738 152.411 224.78 150.383C221.24 147.958 219.984 148.116 217.517 146.258C214.215 143.772 208.689 134.121 207.14 135.363C206.556 135.832 208.737 139.601 210.205 143.094C210.712 144.3 211.186 145.527 211.613 146.665C210.939 145.955 210.294 145.224 209.477 144.796C207.744 143.888 205.863 143.772 205.694 144.103C205.222 145.022 207.353 145.412 209.157 146.99C209.784 147.538 210.272 148.547 210.733 149.336C212.116 151.699 214.448 153.059 215.448 153.408C217.812 154.231 220.264 155.093 221.642 156.671C224.335 159.755 242.816 178.694 247.149 180.523C249.74 181.616 251.912 180.325 252.736 179.087C254.572 176.325 254.292 170.531 249.532 167.786Z" fill="#DB7C5C"/>
<path d="M279.427 124.212C277.153 121.467 273.047 118.863 266.29 128.438C264.504 130.968 259.421 140.07 254.97 149.373L270.226 158.07C272.306 155.179 274.352 152.318 275.351 150.756C281.016 141.904 282.716 128.184 279.427 124.212Z" fill="white"/>
<path d="M269.435 147.671C269.455 150.884 269.255 154.094 268.837 157.279L263.849 154.435C263.556 152.229 263.41 150.005 263.412 147.78C263.412 139.467 266.24 130.622 267.673 130.622C269.105 130.622 269.435 139.359 269.435 147.671Z" fill="#D3DEE6"/>
<path d="M287.902 119.306C286.421 119.975 281.529 120.802 276.273 126.863C273.246 130.353 271.31 134.815 269.642 136.833C270.361 127.725 272.274 124.286 272.585 122.171C272.007 117.702 270.464 114.564 269.741 112.994C268.318 109.904 269.696 106.992 272.326 103.847C275.457 100.101 278.667 96.5754 279.566 99.7053C280.799 103.995 282.35 111.194 284.074 114.645C285.744 117.987 286.527 117.763 287.902 119.306Z" fill="#EB8E6C"/>
<path d="M310.032 188.014C300.668 193.132 291.395 188.274 286.354 185.787C282.222 183.748 278.232 180.956 269.584 181.769C267.625 167.66 266.622 157.006 266.622 148.648C266.622 143.007 266.797 126.341 272.53 122.18C271.615 125.329 270.812 129.345 270.886 133.32C274.903 126.938 280.861 121.062 287.735 119.117C306.763 126.04 310.964 180.302 310.032 188.014Z" fill="white"/>
<path d="M272.244 120.147C271.704 117.669 270.864 115.267 269.742 112.993C268.319 109.903 269.696 106.991 272.327 103.847C273.693 102.213 275.1 100.589 276.308 99.5391C282.154 111.933 279.471 119.117 272.244 120.147Z" fill="#C2624E"/>
<path d="M263.167 106.58C263.576 108.064 263.441 109.157 263.796 110.448C264.892 114.43 268.243 117.721 272.74 116.402C277.344 115.051 279.951 109.768 279.621 102.473C279.315 95.7078 274.439 90.7569 268.297 92.1309C263.669 93.1663 261.407 95.8337 260.756 97.8258C259.919 100.387 262.157 102.911 263.167 106.58Z" fill="#EB8E6C"/>
<path d="M260.852 98.9731C262.68 98.4758 267.634 97.0876 268.693 96.7994C271.095 96.146 272.142 96.5066 273.362 98.405C274.456 100.107 275.744 103.496 276.589 103.836C279.571 105.037 282.711 100.287 282.109 94.7292C281.752 91.4262 280.779 87.7164 277.081 88.1297C272.119 83.1299 265.797 86.6417 259.829 90.5574C257.309 92.2112 255.606 94.5949 256.113 95.5344C257.197 98.1044 258.745 99.5462 260.852 98.9731Z" fill="#222342"/>
<path d="M277.658 102.837C277.923 104.866 278.408 106.131 279.566 105.98C280.725 105.829 281.081 104.33 281.367 102.289C281.619 100.498 280.854 97.6554 278.792 98.8878C277.427 99.7033 277.394 100.807 277.658 102.837Z" fill="#EB8E6C"/>
<path d="M267.296 111.925C267.188 112.314 268.329 112.934 269.841 112.545C271.512 112.116 272.05 110.781 271.8 110.604C271.585 110.451 270.926 110.645 269.421 111.058C267.916 111.472 267.395 111.572 267.296 111.925Z" fill="#C2624E"/>
<path d="M267.781 103.072C267.703 103.072 267.626 103.053 267.558 103.015C267.489 102.978 267.431 102.924 267.389 102.858C267.347 102.793 267.322 102.718 267.316 102.64C267.311 102.562 267.324 102.484 267.357 102.413C268.197 100.563 271.342 100.389 272.726 100.998C272.782 101.022 272.832 101.058 272.875 101.102C272.917 101.146 272.951 101.198 272.973 101.255C272.995 101.313 273.006 101.374 273.005 101.435C273.003 101.496 272.99 101.557 272.965 101.613C272.941 101.669 272.905 101.72 272.861 101.762C272.817 101.804 272.765 101.838 272.707 101.86C272.65 101.882 272.589 101.893 272.528 101.891C272.467 101.89 272.407 101.877 272.351 101.852C271.427 101.446 268.811 101.465 268.205 102.799C268.168 102.881 268.108 102.95 268.033 102.998C267.958 103.047 267.87 103.072 267.781 103.072Z" fill="#222342"/>
<path d="M269.418 103.774C269.62 104.507 269.927 104.628 270.242 104.541C270.557 104.454 270.746 104.145 270.557 103.46C270.36 102.743 270.048 102.606 269.733 102.693C269.418 102.779 269.235 103.11 269.418 103.774Z" fill="#222342"/>
<path d="M263.341 105.451C263.543 106.184 263.851 106.305 264.165 106.218C264.48 106.131 264.669 105.822 264.481 105.136C264.283 104.419 263.971 104.283 263.656 104.369C263.342 104.456 263.158 104.787 263.341 105.451Z" fill="#222342"/>
<path d="M267.447 110.417C266.663 110.417 266.18 110.14 266.009 109.588C265.885 109.193 265.887 108.42 265.901 107.193C265.941 106.267 265.91 105.34 265.807 104.419C265.792 104.341 265.747 104.102 265.344 103.926C264.535 103.571 263.03 103.773 262.364 104.188C262.259 104.253 262.133 104.273 262.013 104.245C261.893 104.217 261.789 104.142 261.724 104.038C261.659 103.933 261.638 103.807 261.666 103.687C261.693 103.566 261.767 103.462 261.872 103.396C262.766 102.839 264.602 102.581 265.719 103.071C265.971 103.166 266.196 103.323 266.372 103.529C266.547 103.734 266.668 103.981 266.723 104.245C266.841 105.227 266.877 106.216 266.833 107.203C266.823 108.062 266.813 109.035 266.898 109.311C266.915 109.365 267.058 109.624 268.208 109.398C268.329 109.375 268.455 109.4 268.558 109.469C268.66 109.538 268.731 109.645 268.755 109.767C268.779 109.888 268.753 110.014 268.684 110.117C268.615 110.219 268.508 110.29 268.387 110.314C268.078 110.378 267.763 110.413 267.447 110.417Z" fill="#C2624E"/>
<path d="M262.118 104.259C262.017 104.259 261.919 104.226 261.838 104.165C261.757 104.104 261.698 104.018 261.67 103.921C261.642 103.823 261.647 103.719 261.683 103.625C261.72 103.53 261.786 103.45 261.872 103.396C262.735 102.858 264.292 102.653 265.343 102.94C265.402 102.956 265.457 102.983 265.506 103.021C265.554 103.058 265.595 103.105 265.625 103.158C265.656 103.211 265.675 103.27 265.683 103.331C265.691 103.391 265.687 103.453 265.67 103.512C265.654 103.572 265.627 103.627 265.589 103.675C265.552 103.724 265.505 103.765 265.452 103.795C265.399 103.825 265.34 103.845 265.279 103.853C265.218 103.86 265.157 103.856 265.098 103.84C264.173 103.641 263.209 103.764 262.364 104.188C262.291 104.235 262.205 104.259 262.118 104.259Z" fill="#222342"/>
<path d="M279.566 106.446C279.447 106.446 279.334 106.401 279.247 106.32C279.161 106.239 279.109 106.128 279.101 106.01C279.094 105.892 279.131 105.775 279.206 105.684C279.282 105.592 279.389 105.533 279.506 105.517C280.301 105.414 280.631 104.18 280.906 102.224C281.037 101.331 280.895 100.418 280.498 99.6073C280.436 99.5004 280.419 99.3731 280.45 99.2535C280.482 99.1338 280.56 99.0316 280.666 98.9693C280.773 98.9069 280.9 98.8896 281.02 98.9211C281.139 98.9527 281.241 99.0304 281.304 99.1373C281.847 100.071 281.959 101.426 281.829 102.354C281.542 104.394 281.158 106.243 279.627 106.442C279.606 106.445 279.586 106.446 279.566 106.446Z" fill="#C2624E"/>
<path d="M295.39 138.312C294.06 136.389 286.007 151.347 279.203 160.469C274.159 167.231 266.677 173.759 268.713 174.947C273.907 177.98 279.092 174.306 284.951 166.7C293.297 155.866 298.306 142.528 295.39 138.312Z" fill="#D3DEE6"/>
<path d="M221.642 156.671C221.856 156.916 222.169 157.261 222.567 157.689L227.073 152.014C226.035 151.267 225.238 150.697 224.78 150.383C221.24 147.958 219.984 148.116 217.517 146.258C214.215 143.772 208.689 134.121 207.14 135.363C206.556 135.832 208.737 139.601 210.205 143.094C210.711 144.3 211.186 145.527 211.613 146.665C210.939 145.955 210.294 145.224 209.477 144.796C207.744 143.888 205.863 143.772 205.694 144.103C205.222 145.022 207.353 145.412 209.157 146.99C209.784 147.538 210.272 148.548 210.733 149.336C212.116 151.699 214.448 153.06 215.448 153.408C217.812 154.231 220.264 155.093 221.642 156.671Z" fill="#36A9E1"/>
<path d="M212.581 129.104L211.72 130.117L220.888 137.923L221.749 136.91L212.581 129.104Z" fill="white"/>
<path d="M212.132 130.041C212.026 130.042 211.924 130.004 211.843 129.935L207.811 126.502C207.722 126.425 207.667 126.316 207.658 126.198C207.649 126.08 207.686 125.964 207.763 125.874C207.839 125.784 207.948 125.728 208.065 125.718C208.183 125.708 208.3 125.746 208.39 125.821L212.422 129.255C212.491 129.314 212.541 129.393 212.564 129.481C212.587 129.57 212.583 129.663 212.551 129.749C212.52 129.835 212.463 129.909 212.388 129.961C212.313 130.014 212.224 130.042 212.132 130.041Z" fill="#7988A6"/>
<path d="M292.431 124.854C289.751 122.553 285.941 122.071 279.013 130.886C275.846 134.916 267.055 152.777 262.345 163.7C262.194 164.052 261.97 164.368 261.688 164.627C261.406 164.886 261.072 165.082 260.709 165.202C260.346 165.322 259.962 165.364 259.581 165.325C259.2 165.285 258.833 165.166 258.502 164.973C251.377 160.633 237.83 151.615 234.992 149.793C231.023 147.245 233.239 142.685 230.619 140.527C228.593 138.858 223.889 134.137 222.096 135.715C220.415 137.195 219.36 144.371 220.667 146.443C221.768 148.187 227.846 152.03 230.043 154.349C233.134 157.612 253.819 176.934 258.213 179.572C261.46 181.522 265.071 180.252 266.834 178.387C270.601 174.406 286.461 154.675 290.523 148.473C296.646 139.121 296.678 128.501 292.431 124.854Z" fill="#EB8E6C"/>
<path d="M230.043 154.349C230.488 154.819 231.32 155.655 232.431 156.745L237.074 151.151C236.158 150.55 235.441 150.082 234.992 149.794C231.023 147.245 233.239 142.685 230.619 140.527C228.593 138.858 223.889 134.138 222.096 135.715C220.415 137.195 219.36 144.371 220.667 146.443C221.768 148.188 227.846 152.03 230.043 154.349Z" fill="#36A9E1"/>
<path d="M292.662 124.295C289.951 121.9 285.626 121.782 278.964 130.258C277.305 132.369 272.057 141.909 268.748 148.72L284.024 157.687C286.182 155.05 290.323 149.356 291.305 147.845C297.164 138.83 296.947 128.082 292.662 124.295Z" fill="white"/>
<path d="M268.747 149.159C268.673 149.159 268.6 149.14 268.535 149.104C268.47 149.068 268.415 149.016 268.375 148.953C268.336 148.889 268.313 148.817 268.309 148.743C268.305 148.669 268.32 148.594 268.353 148.527C271.492 142.066 276.846 132.242 278.619 129.986C280.769 127.251 282.818 125.235 284.708 123.996C284.806 123.932 284.924 123.909 285.038 123.933C285.152 123.957 285.252 124.025 285.316 124.123C285.38 124.22 285.402 124.339 285.378 124.453C285.355 124.567 285.287 124.667 285.189 124.731C283.379 125.918 281.4 127.869 279.309 130.53C277.738 132.529 272.512 141.977 269.142 148.912C269.106 148.986 269.05 149.049 268.98 149.092C268.91 149.136 268.83 149.159 268.747 149.159Z" fill="#7988A6"/>
<path d="M278.95 110.937C278.224 113.579 277.234 115.889 273.263 117.221C270.152 118.263 266.75 116.378 265.222 114.787C264.395 113.414 263.195 110.312 262.91 108.214C263.161 108.361 263.566 108.959 264.211 108.572C265.181 107.991 264.938 107.352 266.133 107.019C267.257 106.706 268.333 107.231 270.555 106.777C272.649 106.349 276.088 104.094 276.944 103.721C277.856 106.052 278.528 108.469 278.95 110.937Z" fill="white"/>
</svg>
