<svg width="684" height="589" viewBox="0 0 684 589" fill="none" xmlns="http://www.w3.org/2000/svg">
<path d="M235.612 542.328C161.491 537.491 7.72382 556.549 0.102271 354.739C-4.55735 230.931 151.377 166.031 187.751 146.467C224.125 126.904 275.236 38.7943 405.164 62.3287C520.788 83.3002 546.072 149.752 593.21 270.275C606.178 303.447 691.171 368.924 683.513 452.341C676.361 529.947 553.26 563.01 235.612 542.328Z" fill="#E7FBFD"/>
<path d="M470.511 470.268L405.375 58.9078H405.332L400.877 30.7514C398.195 13.7538 382.236 0 365.238 0H48.8574C65.8551 0 81.8147 13.797 84.4962 30.7514L154.433 472.344H154.563C158.196 488.347 173.463 501.019 189.769 501.019H506.107C489.152 501.062 473.193 487.265 470.511 470.268Z" fill="white"/>
<path d="M388.334 405.997H250.19C247.595 405.997 245.173 403.921 244.784 401.326C244.395 398.731 246.125 396.655 248.72 396.655H386.864C389.459 396.655 391.881 398.731 392.27 401.326C392.659 403.921 390.929 405.997 388.334 405.997Z" fill="#95DEE6"/>
<path d="M322.203 385.842H247.033C244.438 385.842 242.016 383.766 241.627 381.171C241.238 378.576 242.968 376.5 245.563 376.5H320.733C323.328 376.5 325.75 378.576 326.139 381.171C326.529 383.766 324.799 385.842 322.203 385.842Z" fill="#95DEE6"/>
<path d="M316.624 366.509H243.919C241.324 366.509 238.902 364.433 238.513 361.838C238.123 359.243 239.853 357.167 242.448 357.167H315.153C317.748 357.167 320.17 359.243 320.56 361.838C320.992 364.433 319.219 366.509 316.624 366.509Z" fill="#95DEE6"/>
<path d="M216.585 405.997H181.075C176.188 405.997 171.647 402.061 170.868 397.174L165.938 365.99C165.159 361.102 168.489 357.167 173.377 357.167H208.886C213.773 357.167 218.315 361.102 219.093 365.99L224.024 397.174C224.759 402.061 221.472 405.997 216.585 405.997Z" fill="#00BBCE"/>
<path d="M199.457 400.158C196.343 400.158 193.402 399.768 190.677 398.99C187.952 398.211 185.487 397 183.325 395.357C181.162 393.713 179.389 391.637 177.918 389.172C176.448 386.663 175.453 383.766 174.934 380.392C174.372 376.759 174.458 373.688 175.193 371.136C175.929 368.584 177.14 366.508 178.87 364.865C180.513 363.308 182.546 362.14 184.968 361.362C187.39 360.626 190.028 360.237 192.797 360.237C194.873 360.237 197.035 360.497 199.198 360.972H199.241C203.047 361.837 206.161 365.081 206.767 368.844L206.983 370.315C207.242 372.001 205.469 372.953 203.955 371.915C203.177 371.396 202.355 370.877 201.49 370.444C200.538 369.969 199.544 369.579 198.376 369.233C197.251 368.887 195.997 368.757 194.7 368.757C191.672 368.757 189.509 369.796 188.169 371.915C186.828 374.034 186.482 376.845 187.044 380.392C187.65 384.198 188.99 387.053 191.023 388.912C193.099 390.772 195.565 391.724 198.506 391.724C199.976 391.724 201.274 391.551 202.355 391.205C203.436 390.859 204.344 390.469 205.08 389.994C205.772 389.518 206.377 389.042 206.853 388.523C207.848 387.528 209.794 388.35 210.01 389.864L210.789 394.795C211.048 396.308 210.356 397.736 209.016 398.341C209.016 398.341 209.016 398.341 208.972 398.341C208.151 398.73 207.286 399.033 206.421 399.293C205.339 399.595 204.301 399.855 203.306 400.028C202.441 400.071 201.101 400.158 199.457 400.158Z" fill="white"/>
<path d="M320.863 428.055H252.829C251.315 428.055 249.888 426.844 249.672 425.33C249.412 423.816 250.45 422.605 251.964 422.605H319.998C321.511 422.605 322.939 423.816 323.155 425.33C323.371 426.844 322.376 428.055 320.863 428.055Z" fill="#95DEE6"/>
<path d="M323.371 438.305H254.429C252.915 438.305 251.488 437.094 251.272 435.58C251.012 434.067 252.05 432.856 253.564 432.856H322.506C324.02 432.856 325.447 434.067 325.663 435.58C325.923 437.094 324.885 438.305 323.371 438.305Z" fill="#95DEE6"/>
<path d="M303 461.358H258.062C256.548 461.358 255.121 460.147 254.905 458.634C254.645 457.12 255.683 455.909 257.197 455.909H302.135C303.648 455.909 305.076 457.12 305.292 458.634C305.551 460.147 304.513 461.358 303 461.358Z" fill="#C7D9F8"/>
<path d="M212.908 442.457H196.862C194.181 442.457 191.715 440.338 191.283 437.657L189.034 423.557C188.817 422.216 189.163 420.918 189.985 419.924C190.807 418.972 192.018 418.453 193.359 418.453H209.405C212.086 418.453 214.552 420.572 214.984 423.254L217.233 437.354C217.45 438.695 217.104 439.992 216.282 440.987C215.46 441.895 214.249 442.457 212.908 442.457ZM193.402 420.399C192.624 420.399 191.975 420.702 191.542 421.221C191.067 421.74 190.893 422.475 191.023 423.254L193.272 437.354C193.532 439.084 195.219 440.511 196.905 440.511H212.952C213.73 440.511 214.379 440.208 214.811 439.689C215.287 439.17 215.46 438.435 215.33 437.657L213.081 423.557C212.822 421.827 211.135 420.399 209.448 420.399H193.402Z" fill="#8DA4FC"/>
<path d="M218.185 475.761H202.138C199.457 475.761 196.992 473.642 196.559 470.96L194.31 456.86C194.094 455.519 194.44 454.222 195.262 453.227C196.083 452.276 197.294 451.757 198.635 451.757H214.681C217.363 451.757 219.828 453.876 220.261 456.557L222.51 470.657C222.726 471.998 222.38 473.296 221.558 474.29C220.736 475.199 219.525 475.761 218.185 475.761ZM198.678 453.703C197.9 453.703 197.251 454.006 196.819 454.525C196.343 455.044 196.17 455.779 196.3 456.557L198.549 470.657C198.808 472.387 200.495 473.815 202.182 473.815H218.228C219.006 473.815 219.655 473.512 220.088 472.993C220.563 472.474 220.736 471.739 220.607 470.96L218.358 456.86C218.098 455.13 216.411 453.703 214.725 453.703H198.678Z" fill="#8DA4FC"/>
<path d="M214.638 451.367L217.623 470.268C220.304 487.265 208.713 501.019 191.715 501.019H515.103C532.1 501.019 543.692 487.222 541.01 470.268L538.026 451.367H214.638Z" fill="#4AE6F5"/>
<path d="M378.776 65.136H111.269C106.122 65.136 101.321 60.9839 100.499 55.837C99.6776 50.6902 103.181 46.5381 108.328 46.5381H375.835C380.982 46.5381 385.783 50.6902 386.605 55.837C387.426 60.9839 383.923 65.136 378.776 65.136Z" fill="url(#paint0_linear)"/>
<path d="M336.909 129.147H207.935C205.34 129.147 202.918 127.071 202.528 124.476C202.139 121.881 203.869 119.805 206.464 119.805H335.438C338.034 119.805 340.456 121.881 340.845 124.476C341.277 127.071 339.504 129.147 336.909 129.147Z" fill="#95DEE6"/>
<path d="M316.105 109.036H204.734C202.139 109.036 199.717 106.96 199.328 104.364C198.938 101.769 200.668 99.6934 203.263 99.6934H314.635C317.23 99.6934 319.652 101.769 320.041 104.364C320.474 106.916 318.7 109.036 316.105 109.036Z" fill="#95DEE6"/>
<path d="M287.646 89.7023H201.663C199.068 89.7023 196.646 87.6263 196.257 85.0312C195.868 82.4361 197.598 80.3601 200.193 80.3601H286.176C288.771 80.3601 291.193 82.4361 291.582 85.0312C292.014 87.583 290.241 89.7023 287.646 89.7023Z" fill="#95DEE6"/>
<path d="M174.329 129.147H138.82C133.932 129.147 129.391 125.211 128.612 120.324L123.682 89.1401C122.903 84.2527 126.234 80.3169 131.121 80.3169H166.63C171.517 80.3169 176.059 84.2527 176.837 89.1401L181.768 120.324C182.503 125.211 179.216 129.147 174.329 129.147Z" fill="#00BBCE"/>
<path d="M136.96 121.405L143.62 84.3392C143.707 83.777 144.226 83.3445 144.831 83.3445H153.698C154.303 83.3445 154.909 83.7337 155.212 84.3392L173.593 121.405C174.069 122.357 173.507 123.308 172.512 123.308H165.246C164.597 123.308 163.992 122.876 163.732 122.314L160.877 116.172C160.618 115.566 159.969 115.177 159.364 115.177H148.94C148.291 115.177 147.816 115.61 147.729 116.172L146.821 122.314C146.734 122.919 146.259 123.308 145.61 123.308H138.603C137.652 123.308 136.787 122.357 136.96 121.405ZM156.552 106.743L152.271 97.574C151.881 96.709 150.67 96.709 150.54 97.574L149.156 106.743C149.07 107.349 149.589 107.911 150.238 107.911H155.904C156.466 107.911 156.812 107.306 156.552 106.743Z" fill="white"/>
<path d="M327.48 151.205H210.53C209.016 151.205 207.589 149.994 207.372 148.48C207.113 146.967 208.151 145.756 209.665 145.756H326.615C328.129 145.756 329.556 146.967 329.773 148.48C330.032 149.994 328.994 151.205 327.48 151.205Z" fill="#95DEE6"/>
<path d="M281.115 161.499H212.173C210.659 161.499 209.232 160.288 209.016 158.774C208.756 157.26 209.794 156.049 211.308 156.049H280.25C281.764 156.049 283.191 157.26 283.408 158.774C283.624 160.245 282.629 161.499 281.115 161.499Z" fill="#95DEE6"/>
<path d="M260.744 184.552H215.807C214.293 184.552 212.865 183.341 212.649 181.827C212.39 180.313 213.428 179.102 214.941 179.102H259.879C261.393 179.102 262.82 180.313 263.037 181.827C263.296 183.297 262.258 184.552 260.744 184.552Z" fill="#95DEE6"/>
<path d="M286.392 194.802H217.45C215.936 194.802 214.509 193.591 214.293 192.077C214.033 190.564 215.071 189.353 216.585 189.353H285.527C287.041 189.353 288.468 190.564 288.684 192.077C288.901 193.591 287.906 194.802 286.392 194.802Z" fill="#95DEE6"/>
<path d="M170.652 165.608H154.606C151.925 165.608 149.459 163.488 149.027 160.807L146.778 146.707C146.562 145.366 146.908 144.069 147.729 143.074C148.551 142.123 149.762 141.604 151.103 141.604H167.149C169.831 141.604 172.296 143.723 172.728 146.404L174.977 160.504C175.194 161.845 174.848 163.142 174.026 164.137C173.204 165.089 171.993 165.608 170.652 165.608ZM151.146 143.593C150.368 143.593 149.719 143.896 149.286 144.415C148.811 144.934 148.638 145.669 148.767 146.448L151.016 160.547C151.276 162.277 152.963 163.705 154.65 163.705H170.696C171.474 163.705 172.123 163.402 172.555 162.883C173.031 162.364 173.204 161.629 173.074 160.85L170.825 146.75C170.566 145.02 168.879 143.593 167.192 143.593H151.146Z" fill="#00BBCE"/>
<path d="M162.867 159.985L151.579 149.778C150.714 149 150.541 147.745 151.189 147.01C151.838 146.275 153.092 146.275 154.001 147.096L161.267 153.671L168.403 139.009C168.836 138.1 170.004 137.841 171.042 138.403C172.036 139.009 172.512 140.22 172.08 141.128L162.867 159.985Z" fill="#00BBCE"/>
<path d="M175.194 198.911H159.797C157.158 198.911 154.779 196.835 154.347 194.24L152.141 180.227C151.925 178.886 152.271 177.632 153.093 176.68C153.914 175.728 155.039 175.209 156.38 175.209H171.777C174.415 175.209 176.794 177.286 177.227 179.881L179.432 193.894C179.649 195.235 179.303 196.489 178.481 197.44C177.659 198.392 176.491 198.911 175.194 198.911ZM156.336 177.113C155.601 177.113 154.952 177.372 154.52 177.891C154.087 178.41 153.914 179.102 154.001 179.881L156.207 193.894C156.466 195.581 158.11 196.965 159.753 196.965H175.151C175.886 196.965 176.535 196.705 176.967 196.186C177.4 195.667 177.573 194.975 177.486 194.197L175.28 180.183C175.021 178.497 173.377 177.113 171.734 177.113H156.336Z" fill="#00BBCE"/>
<path d="M379.425 267.594H229.214C226.619 267.594 224.197 265.518 223.808 262.923C223.418 260.328 225.148 258.251 227.743 258.251H377.954C380.549 258.251 382.971 260.328 383.36 262.923C383.75 265.474 382.02 267.594 379.425 267.594Z" fill="#95DEE6"/>
<path d="M349.408 247.439H225.624C223.288 247.439 221.039 245.536 220.693 243.157L220.563 242.335C220.174 240 221.818 238.053 224.153 238.053H347.938C350.273 238.053 352.522 239.957 352.868 242.335L352.998 243.157C353.344 245.536 351.744 247.439 349.408 247.439Z" fill="#95DEE6"/>
<path d="M390.626 228.106H222.942C220.347 228.106 217.925 226.03 217.536 223.435C217.147 220.839 218.877 218.763 221.472 218.763H389.156C391.751 218.763 394.173 220.839 394.562 223.435C394.995 225.986 393.221 228.106 390.626 228.106Z" fill="#95DEE6"/>
<path d="M195.608 267.594H160.099C155.211 267.594 150.67 263.658 149.892 258.771L144.961 227.587C144.183 222.699 147.513 218.763 152.4 218.763H187.909C192.797 218.763 197.338 222.699 198.116 227.587L203.047 258.771C203.782 263.615 200.452 267.594 195.608 267.594Z" fill="#00BBCE"/>
<path d="M193.488 249.472C193.791 251.461 193.704 253.191 193.185 254.705C192.666 256.219 191.845 257.473 190.72 258.424C189.423 259.592 187.866 260.457 186.179 260.933C184.449 261.452 182.2 261.668 179.432 261.668H166.197C164.64 261.668 163.213 260.414 162.953 258.857L157.503 224.429C157.244 222.872 158.325 221.618 159.839 221.618H171.171C174.112 221.618 176.361 221.748 177.918 221.964C179.475 222.18 180.945 222.656 182.416 223.391C183.973 224.17 185.184 225.208 186.136 226.462C187.044 227.76 187.649 229.23 187.909 230.917C188.212 232.863 187.995 234.593 187.26 236.15C186.525 237.664 185.357 238.789 183.757 239.524L183.8 239.74C186.352 240.259 188.514 241.34 190.244 242.941C191.974 244.584 193.056 246.747 193.488 249.472ZM178.048 233.036C177.961 232.431 177.702 231.825 177.312 231.176C176.88 230.441 176.231 229.879 175.453 229.533C174.761 229.23 173.939 229.1 173.03 229.057C172.338 229.057 170.046 229.014 168.922 229.014C168.576 229.014 168.359 229.273 168.403 229.619L169.527 236.842C169.57 237.188 169.916 237.448 170.262 237.448C171.473 237.448 173.982 237.405 174.501 237.405C175.193 237.361 175.885 237.188 176.534 236.842C177.269 236.453 177.745 235.934 177.961 235.285C178.134 234.68 178.177 233.901 178.048 233.036ZM183.151 249.299C182.935 248.044 182.546 247.093 181.94 246.401C181.335 245.709 180.513 245.19 179.432 244.8C178.783 244.584 177.918 244.454 176.837 244.411C175.755 244.368 174.328 244.368 172.555 244.368H171.344C170.998 244.368 170.738 244.671 170.781 245.017L172.165 253.667C172.209 254.056 172.598 254.359 172.987 254.359C174.371 254.359 177.485 254.316 178.264 254.316C179.259 254.272 180.253 254.056 181.205 253.58C182.07 253.191 182.632 252.629 182.935 251.85C183.194 251.115 183.281 250.25 183.151 249.299Z" fill="white"/>
<path d="M290.63 289.652H231.808C230.295 289.652 228.867 288.441 228.651 286.927C228.392 285.413 229.43 284.202 230.943 284.202H289.765C291.279 284.202 292.706 285.413 292.922 286.927C293.182 288.398 292.144 289.652 290.63 289.652Z" fill="#95DEE6"/>
<path d="M292.446 299.902H233.236C231.808 299.902 230.511 298.778 230.295 297.351L230.251 296.961C230.035 295.534 230.987 294.409 232.414 294.409H291.624C293.052 294.409 294.349 295.534 294.565 296.961L294.609 297.351C294.825 298.778 293.873 299.902 292.446 299.902Z" fill="#95DEE6"/>
<path d="M269.697 322.955H236.696C235.399 322.955 234.144 321.874 233.971 320.576L233.841 319.841C233.625 318.543 234.534 317.462 235.831 317.462H268.831C270.129 317.462 271.383 318.543 271.556 319.841L271.686 320.576C271.902 321.874 271.037 322.955 269.697 322.955Z" fill="#95DEE6"/>
<path d="M339.936 333.205H238.685C237.172 333.205 235.744 331.994 235.528 330.481C235.269 328.967 236.307 327.756 237.82 327.756H339.071C340.585 327.756 342.012 328.967 342.228 330.481C342.488 331.994 341.45 333.205 339.936 333.205Z" fill="#95DEE6"/>
<path d="M191.931 304.011H175.885C173.204 304.011 170.738 301.892 170.306 299.21L168.057 285.11C167.84 283.769 168.186 282.472 169.008 281.477C169.83 280.526 171.041 280.007 172.382 280.007H188.428C191.109 280.007 193.575 282.126 194.007 284.807L196.256 298.907C196.473 300.248 196.127 301.546 195.305 302.54C194.483 303.492 193.272 304.011 191.931 304.011ZM172.425 281.996C171.646 281.996 170.998 282.299 170.565 282.818C170.089 283.337 169.916 284.072 170.046 284.851L172.295 298.95C172.555 300.681 174.242 302.108 175.928 302.108H191.974C192.753 302.108 193.402 301.805 193.834 301.286C194.31 300.767 194.483 300.032 194.353 299.253L192.104 285.153C191.845 283.423 190.158 281.996 188.471 281.996H172.425Z" fill="#00BBCE"/>
<path d="M184.146 298.388L172.857 288.181C171.992 287.403 171.819 286.148 172.468 285.413C173.117 284.678 174.371 284.678 175.28 285.5L182.546 292.074L189.682 277.412C190.115 276.503 191.282 276.244 192.32 276.806C193.315 277.412 193.791 278.623 193.358 279.531L184.146 298.388Z" fill="#00BBCE"/>
<path d="M197.208 337.314H181.161C178.48 337.314 176.015 335.195 175.582 332.514L173.333 318.414C173.117 317.073 173.463 315.775 174.285 314.781C175.106 313.829 176.317 313.31 177.658 313.31H193.704C196.386 313.31 198.851 315.429 199.284 318.111L201.533 332.211C201.749 333.551 201.403 334.849 200.581 335.844C199.759 336.795 198.548 337.314 197.208 337.314ZM177.701 315.3C176.923 315.3 176.274 315.602 175.842 316.121C175.366 316.64 175.193 317.376 175.323 318.154L177.572 332.254C177.831 333.984 179.518 335.411 181.205 335.411H197.251C198.029 335.411 198.678 335.109 199.111 334.59C199.586 334.071 199.759 333.335 199.63 332.557L197.381 318.457C197.121 316.727 195.434 315.3 193.747 315.3H177.701Z" fill="#00BBCE"/>
<path d="M189.422 331.692L178.134 321.484C177.269 320.706 177.096 319.452 177.745 318.716C178.393 317.981 179.648 317.981 180.556 318.803L187.822 325.377L194.958 310.715C195.391 309.807 196.559 309.547 197.597 310.109C198.592 310.715 199.067 311.926 198.635 312.834L189.422 331.692Z" fill="#00BBCE"/>
<path d="M373.629 88.9237C374.062 91.6053 374.018 94.0273 373.586 96.1466C373.11 98.2659 372.288 100.126 371.077 101.683C369.866 103.24 368.353 104.624 366.536 105.835C364.979 106.873 363.206 107.868 361.259 108.733C360.697 108.992 360.351 109.598 360.481 110.29L361.043 113.75C361.432 116.345 359.702 118.421 357.107 118.421H352.566C349.971 118.421 347.549 116.302 347.116 113.75L345.905 106.094C345.776 105.359 346.165 104.71 346.814 104.494C347.938 104.148 349.192 103.672 350.49 103.153C352.22 102.461 353.734 101.596 354.988 100.558C356.329 99.5202 357.324 98.2659 358.059 96.8387C358.794 95.4114 359.01 93.7678 358.708 91.8215C358.275 89.14 357.107 87.1937 355.204 85.9826C353.301 84.7716 350.836 84.1661 347.808 84.1661C345.516 84.1661 343.18 84.6851 340.802 85.6799C337.558 87.0207 333.406 84.4689 332.8 80.7493L332.714 80.2303C332.324 77.8515 333.536 75.7754 335.741 75.1267C336.823 74.7807 338.034 74.4779 339.374 74.1319C342.575 73.3534 346.122 72.9641 349.928 72.9641C353.344 72.9641 356.415 73.3534 359.183 74.1751C361.908 74.9537 364.33 76.0782 366.406 77.5487C368.439 78.976 370.039 80.6628 371.294 82.6091C372.461 84.5121 373.24 86.6314 373.629 88.9237ZM350.663 129.493C350.663 129.45 350.663 129.407 350.62 129.32C350.144 126.422 352.133 124.043 355.031 124.043C355.291 124.043 355.507 124.043 355.766 124.043C358.664 124.043 361.432 126.379 361.865 129.277C361.865 129.32 361.865 129.363 361.908 129.45C362.384 132.348 360.394 134.726 357.497 134.726C357.237 134.726 357.021 134.726 356.761 134.726C353.907 134.726 351.139 132.391 350.663 129.493Z" fill="#00BBCE"/>
<path d="M375.013 87.9291C375.446 90.6106 375.403 93.0327 374.97 95.152C374.494 97.2713 373.673 99.1311 372.462 100.688C371.251 102.245 369.737 103.629 367.92 104.84C366.363 105.878 364.59 106.873 362.644 107.738C362.081 107.998 361.735 108.603 361.865 109.295L362.427 112.755C362.817 115.35 361.087 117.426 358.492 117.426H353.95C351.355 117.426 348.933 115.307 348.501 112.755L347.29 105.1C347.16 104.364 347.549 103.716 348.198 103.499C349.322 103.153 350.577 102.678 351.874 102.159C353.604 101.467 355.118 100.602 356.372 99.5636C357.713 98.5256 358.708 97.2713 359.443 95.844C360.178 94.4167 360.395 92.7732 360.092 90.8269C359.659 88.1453 358.492 86.199 356.589 84.988C354.685 83.777 352.22 83.1715 349.193 83.1715C346.9 83.1715 344.565 83.6905 342.186 84.6853C338.942 86.026 334.79 83.4742 334.185 79.7547L334.098 79.2356C333.709 76.8568 334.92 74.7808 337.126 74.132C338.207 73.786 339.418 73.4832 340.759 73.1372C343.959 72.3587 347.506 71.9695 351.312 71.9695C354.729 71.9695 357.8 72.3587 360.568 73.1805C363.292 73.959 365.714 75.0835 367.791 76.5541C369.823 77.9814 371.424 79.6681 372.678 81.6144C373.846 83.5175 374.667 85.6368 375.013 87.9291ZM352.09 128.455C352.09 128.412 352.09 128.369 352.047 128.282C351.571 125.384 353.561 123.006 356.459 123.006C356.718 123.006 356.935 123.006 357.194 123.006C360.092 123.006 362.86 125.341 363.292 128.239C363.292 128.282 363.292 128.325 363.336 128.412C363.811 131.31 361.822 133.689 358.924 133.689C358.665 133.689 358.448 133.689 358.189 133.689C355.291 133.732 352.566 131.353 352.09 128.455Z" fill="#00BBCE"/>
<path d="M374.71 516.74L376.526 535.252L396.725 534.3L398.368 517.346L374.71 516.74Z" fill="#FAC4B6"/>
<path d="M432.277 531.619L434.915 538.452L453.21 537.155L453.686 530.624L432.277 531.619Z" fill="#FAC4B6"/>
<path d="M369.39 321.289C369.39 321.289 361.908 366.313 362.47 390.491C363.032 414.625 364.114 426.389 365.108 434.52C366.103 442.651 374.537 524.05 374.537 524.05C374.537 524.05 382.668 526.602 386.345 526.299C390.021 525.996 397.806 523.877 397.806 523.877C397.806 523.877 402.65 475.046 403.213 453.507C403.559 439.537 401.093 431.666 399.752 428.465C399.233 427.211 399.06 425.87 399.32 424.529L410.479 368.606L417.053 325.398L380.16 316.618L369.39 321.289Z" fill="#1B327B"/>
<path d="M410.392 368.606L416.966 325.398L396.249 320.468C397.33 351.651 398.411 354.809 396.032 382.619C395.038 394.037 392.27 425.524 392.27 425.524C392.27 425.524 396.292 434.78 397.2 454.805C398.238 476.82 392.745 515.4 392.443 525.174C395.254 524.526 397.719 523.877 397.719 523.877C397.719 523.877 402.563 475.047 403.126 453.508C403.472 439.537 401.006 431.666 399.665 428.465C399.146 427.211 398.973 425.87 399.233 424.529L410.392 368.606Z" fill="url(#paint1_linear)"/>
<path d="M453.686 531.013C447.761 533.824 441.057 534.603 434.613 533.176L432.666 532.743C432.666 532.743 427.13 513.756 421.94 486.205C416.101 455.324 419.475 446.068 416.62 434.823C415.323 429.633 384.917 328.469 406.629 310.476C420.686 298.799 428.471 307.06 428.471 307.06C428.471 307.06 460.131 287.467 449.577 433.785C449.188 439.235 453.643 465.358 454.854 478.463C456.108 491.568 453.686 531.013 453.686 531.013Z" fill="#2C49A2"/>
<path d="M454.897 478.463C453.686 465.358 449.231 439.278 449.62 433.785C460.173 287.467 428.514 307.06 428.514 307.06C428.514 307.06 423.28 301.524 413.679 305.935C419.258 305.589 422.242 308.746 422.242 308.746C422.242 308.746 453.902 289.154 443.349 435.472C442.96 440.921 447.414 467.045 448.626 480.15C449.837 493.255 447.414 532.7 447.414 532.7C446.766 533.003 446.16 533.262 445.511 533.522C448.323 533.089 451.091 532.267 453.729 531.013C453.686 531.013 456.108 491.568 454.897 478.463Z" fill="#1A317A"/>
<path d="M434.915 538.452C434.915 538.452 435.564 546.583 435.348 560.51C435.131 574.394 433.791 578.286 438.159 581.055C442.527 583.823 445.512 590.007 448.842 588.494C452.172 586.98 456.454 584.515 458.227 578.719C460.001 572.923 460.606 557.44 458.617 553.633C456.627 549.827 453.253 537.155 453.253 537.155L434.915 538.452Z" fill="url(#paint2_linear)"/>
<path d="M397.244 529.499C397.244 529.499 400.012 536.29 399.969 542.172C399.925 548.054 398.022 553.634 398.022 553.634C398.022 553.634 386.993 555.493 381.544 557.267C376.094 558.997 366.06 564.273 362.254 564.706C358.448 565.138 341.796 564.446 340.585 561.029C339.374 557.613 344.651 556.358 347.808 555.839C351.008 555.32 361.432 547.535 365.671 544.724C369.909 541.912 375.835 528.98 375.835 528.98C375.835 528.98 379.424 531.749 383.706 532.484C387.988 533.176 397.244 529.499 397.244 529.499Z" fill="url(#paint3_linear)"/>
<path d="M302.092 284.18C303 283.92 349.495 269.215 356.198 263.981C362.427 259.051 367.011 191.882 393.697 184.27C395.557 183.751 407.84 181.113 412.208 182.626C431.931 189.417 406.759 266.966 382.625 278.86C353.56 293.176 324.582 296.679 324.582 296.679C324.582 296.679 297.896 285.304 302.092 284.18Z" fill="url(#paint4_linear)"/>
<path d="M406.196 220.038L408.791 183.881C408.791 183.881 397.2 182.453 387.642 190.498C377.608 198.932 374.234 217.314 371.942 230.246C370.558 238.161 370.471 251.309 370.644 260.348C370.731 266.533 367.53 272.286 362.167 275.443C350.316 282.363 329.902 293.954 322.809 295.857C323.976 296.376 324.668 296.636 324.668 296.636C324.668 296.636 353.647 293.133 382.711 278.816C391.837 274.318 401.093 260.478 408.013 244.605L406.196 220.038Z" fill="#A7C1FF"/>
<path d="M383.361 200.922C386.864 191.579 395.384 184.962 405.332 183.924L405.592 183.881C422.07 182.194 442.614 185.395 449.578 187.254C454.638 188.595 450.227 246.422 449.318 258.359C449.232 259.7 448.929 261.04 448.496 262.295C447.069 266.36 443.912 276.784 444.734 285.391C445.815 296.377 447.718 331.626 447.718 331.626C447.718 331.626 408.446 334.956 394.779 332.707C389.372 331.799 375.402 328.469 369.261 326.955C367.574 326.566 366.493 324.922 366.795 323.192C368.655 312.163 375.056 274.492 375.273 271.334C377.478 238.161 369.953 236.69 383.361 200.922Z" fill="url(#paint5_linear)"/>
<path d="M449.577 187.254C448.064 186.865 445.858 186.389 443.263 185.914C429.163 191.277 430.547 221.725 439.024 241.232C440.884 245.557 445.209 258.143 445.209 258.143C445.209 258.143 442.571 269.301 442.225 286.169C441.965 300.356 443.09 329.939 443.09 329.939L447.545 328.945C447.545 328.728 447.545 328.382 447.501 328.08C446.982 318.867 445.598 294.257 444.733 285.391C443.868 276.784 447.069 266.36 448.496 262.295C448.929 260.997 449.188 259.7 449.318 258.359C449.967 249.622 452.519 216.319 451.87 198.586C451.654 195.083 451.351 192.098 451.005 189.893C450.616 188.336 450.183 187.384 449.577 187.254Z" fill="#434785"/>
<path d="M491.66 385.733L483.443 399.487C479.723 405.758 471.592 407.791 465.364 404.028L219.828 257.191L172.166 206.069C170.911 204.728 172.209 202.522 173.982 202.998L241.54 220.774L487.076 367.611C493.39 371.374 495.423 379.462 491.66 385.733Z" fill="#FAC4B6"/>
<path d="M487.119 367.611L469.127 356.841C475.398 360.561 477.431 368.692 473.668 374.92L465.45 388.674C461.731 394.945 453.6 396.978 447.372 393.215L465.364 403.985C471.635 407.704 479.723 405.671 483.443 399.443L491.661 385.689C495.423 379.461 493.391 371.373 487.119 367.611Z" fill="#628CD2"/>
<path d="M241.825 220.955L220.072 257.335L462.035 402.011L483.788 365.631L241.825 220.955Z" fill="#FFAC31"/>
<path d="M234.071 233.914L220.087 257.301L462.051 401.977L476.034 378.59L234.071 233.914Z" fill="#FA8B17"/>
<path opacity="0.55" d="M226.749 246.185L220.09 257.321L462.054 401.997L468.712 390.861L226.749 246.185Z" fill="#FF5F18"/>
<path d="M223.807 216.144L173.982 203.039C172.166 202.564 170.868 204.726 172.166 206.11L207.286 243.782L223.807 216.144Z" fill="url(#paint6_linear)"/>
<path d="M273.546 295.987C272.032 294.344 271.946 291.878 273.33 290.148C275.665 287.207 279.558 283.79 283.148 286.861C288.9 291.705 291.971 300.485 291.928 302.691C291.884 303.945 289.419 305.373 287.3 306.324C285.57 307.103 283.494 306.67 282.196 305.286L273.546 295.987Z" fill="#FAC4B6"/>
<path d="M283.753 300.356C282.585 298.409 278.044 292.008 273.2 290.408C272.032 292.138 272.162 294.43 273.589 295.987L282.239 305.286C283.45 306.584 285.353 307.06 286.997 306.454C285.916 304.335 284.488 301.567 283.753 300.356Z" fill="#F5B3A6"/>
<path d="M398.109 365.535C397.546 366.011 397.763 366.962 398.498 367.135C402.304 367.914 410.954 369.6 413.679 368.908C417.225 368 434.223 353.079 435.607 349.013C436.991 344.904 426.438 338.417 426.438 338.417L416.447 340.968C415.625 341.141 415.106 342.093 415.582 342.828C416.231 343.866 416.966 344.558 415.452 347.456C412.987 352.084 401.958 362.291 398.109 365.535Z" fill="#FAC4B6"/>
<path d="M435.607 349.013C435.651 348.883 435.651 348.797 435.694 348.667L433.877 345.12C433.877 345.12 428.471 353.425 419.388 360.258C414.198 364.151 409.138 366.876 405.764 368.476C409.008 368.952 412.209 369.298 413.722 368.908C417.226 368 434.223 353.079 435.607 349.013Z" fill="#F5B3A6"/>
<path d="M434.57 351.003C434.57 351.003 451.524 337.898 464.196 321.808C475.442 307.579 485 293.09 487.552 287.424C489.758 282.536 483.27 257.407 476.999 232.581C468.132 197.548 452.173 180.421 442.874 187.211C416.664 206.415 461.082 282.969 458.487 285.823C455.849 288.721 424.06 339.109 424.06 339.109L434.57 351.003Z" fill="white"/>
<path d="M476.955 232.625C468.089 197.591 452.129 180.464 442.83 187.254C442.614 187.427 442.441 187.6 442.268 187.773C444.517 187.946 446.982 188.682 449.101 190.541C454.984 195.732 462.163 208.231 468.521 223.801C474.879 239.372 486.903 277.995 484.827 284.007C482.751 289.975 471.549 308.833 456.93 322.024C443.392 334.264 430.849 343.563 429.076 344.861L431.758 347.932L434.785 350.916C436.818 349.316 452.345 336.946 464.196 321.895C475.441 307.665 485 293.176 487.552 287.51C489.757 282.579 483.27 257.451 476.955 232.625Z" fill="#A7C1FF"/>
<path d="M434.569 351.002C434.569 351.002 435.694 350.137 437.597 348.58C435.78 347.283 433.012 345.25 431.325 343.78C429.466 342.179 426.698 339.065 425.227 337.378C424.535 338.503 424.103 339.152 424.103 339.152L434.569 351.002Z" fill="#628CD2"/>
<path d="M433.272 156.633L432.623 182.713C432.623 182.713 430.331 200.187 415.712 203.344C397.027 207.366 400.098 188.379 402.347 186.389C407.321 181.935 405.634 172.203 405.634 172.203L433.272 156.633Z" fill="#FAC4B6"/>
<path d="M405.635 172.16C405.635 172.16 405.851 176.355 405.635 179.945C412.728 180.161 424.838 172.03 432.753 164.072L433.272 156.633L405.635 172.16Z" fill="#F5B3A6"/>
<path d="M443.998 146.945C439.024 163.812 410.522 178.734 401.396 174.149C395.601 171.252 393.092 157.757 395.384 140.327C397.677 123.07 405.938 114.723 424.406 115.674C435.867 116.28 448.972 130.077 443.998 146.945Z" fill="#FAC4B6"/>
<path d="M447.934 140.933C448.107 139.332 447.458 137.862 446.377 136.824C447.718 136.261 448.712 135.007 448.885 133.493C449.145 131.244 447.501 129.212 445.252 128.952C445.209 128.952 445.166 128.952 445.123 128.952C445.642 127.395 445.166 125.578 443.825 124.497C443.176 123.978 442.484 123.762 441.706 123.675C441.706 123.675 441.706 123.675 441.706 123.632C442.355 120.994 441.403 118.096 438.981 116.496C437.683 115.631 436.17 115.285 434.742 115.371C434.31 113.987 433.445 112.733 432.147 111.825C429.985 110.354 427.26 110.354 425.097 111.565C424.665 110.743 424.059 110.008 423.238 109.446C420.643 107.673 417.139 108.321 415.323 110.787C414.631 110.051 413.679 109.619 412.641 109.576C410.738 109.532 409.224 110.873 408.878 112.646C407.884 111.738 406.543 111.133 405.072 111.089C401.828 111.003 399.104 113.598 399.017 116.842C398.974 117.88 399.277 118.875 399.709 119.74C399.147 119.134 398.412 118.702 397.547 118.572C395.47 118.226 393.481 119.653 393.178 121.729C393.048 122.464 393.178 123.2 393.438 123.848C392.01 125.016 391.102 126.703 391.016 128.693C390.929 132.282 393.74 135.267 397.33 135.353C397.936 135.353 398.498 135.267 399.06 135.137C400.142 135.137 401.396 135.05 402.693 134.921C403.212 136.218 404.423 137.17 405.937 137.213C407.321 137.256 408.489 136.478 409.095 135.353C409.527 137.126 411.084 138.467 412.987 138.511C415.236 138.554 417.139 136.78 417.182 134.488C417.182 134.445 417.182 134.445 417.182 134.402C418.783 134.791 420.556 134.185 421.508 132.715C421.767 132.369 421.897 131.936 422.027 131.547C423.843 131.547 425.573 132.282 426.871 133.623C428.644 135.396 429.941 137.386 430.98 139.505C432.623 138.597 434.353 138.511 435.651 139.376C437.727 140.803 437.813 144.349 435.78 147.29C435.175 148.199 434.44 148.891 433.618 149.453C434.396 157.584 432.45 164.764 432.45 164.764C432.45 164.764 436.256 162.731 439.846 158.276C441.965 158.146 443.739 156.503 443.955 154.297C444.041 153.562 443.912 152.87 443.695 152.264C444.517 152.005 445.252 151.529 445.815 150.794C447.199 149.107 447.112 146.685 445.728 145.085C445.771 144.825 445.815 144.566 445.858 144.306C447.026 143.571 447.804 142.36 447.934 140.933Z" fill="#222342"/>
<path d="M408.143 200.403C401.05 199.148 402.39 187.254 402.563 186.13L402.52 186.173C402.477 186.216 402.39 186.303 402.347 186.346C400.098 188.336 397.027 207.323 415.668 203.301C426.135 201.051 430.287 191.493 431.758 186.216C429.509 189.33 421.767 202.825 408.143 200.403Z" fill="#A7C1FF"/>
<defs>
<linearGradient id="paint0_linear" x1="100.368" y1="55.8393" x2="386.718" y2="55.8393" gradientUnits="userSpaceOnUse">
<stop stop-color="#00BBCE"/>
<stop offset="0.4435" stop-color="#55CEDA"/>
<stop offset="1" stop-color="#A8E8EE"/>
</linearGradient>
<linearGradient id="paint1_linear" x1="450.539" y1="471.077" x2="348.093" y2="368.631" gradientUnits="userSpaceOnUse">
<stop offset="6.3e-07" stop-color="#2C49A1"/>
<stop offset="0.253" stop-color="#1F3371"/>
<stop offset="0.6051" stop-color="#0E1834"/>
<stop offset="0.8641" stop-color="#04070E"/>
<stop offset="1"/>
</linearGradient>
<linearGradient id="paint2_linear" x1="447.751" y1="537.02" x2="446.438" y2="588.707" gradientUnits="userSpaceOnUse">
<stop offset="6.3e-07" stop-color="#2C49A1"/>
<stop offset="1"/>
</linearGradient>
<linearGradient id="paint3_linear" x1="363.629" y1="535.558" x2="379.071" y2="563.944" gradientUnits="userSpaceOnUse">
<stop offset="6.3e-07" stop-color="#2C49A1"/>
<stop offset="1"/>
</linearGradient>
<linearGradient id="paint4_linear" x1="400.599" y1="259.107" x2="337.369" y2="222.601" gradientUnits="userSpaceOnUse">
<stop stop-color="white"/>
<stop offset="0.1891" stop-color="#F5F8FF"/>
<stop offset="0.5067" stop-color="#DBE6FF"/>
<stop offset="0.9115" stop-color="#B1C8FF"/>
<stop offset="1" stop-color="#A7C1FF"/>
</linearGradient>
<linearGradient id="paint5_linear" x1="411.468" y1="183.261" x2="407.65" y2="333.512" gradientUnits="userSpaceOnUse">
<stop stop-color="#74539D"/>
<stop offset="1" stop-color="#434785"/>
</linearGradient>
<linearGradient id="paint6_linear" x1="215.554" y1="229.941" x2="171.927" y2="203.855" gradientUnits="userSpaceOnUse">
<stop stop-color="#FF5F18"/>
<stop offset="0.00460786" stop-color="#FF6018"/>
<stop offset="0.28" stop-color="#FF8023"/>
<stop offset="0.5441" stop-color="#FF982B"/>
<stop offset="0.7902" stop-color="#FFA62F"/>
<stop offset="1" stop-color="#FFAB31"/>
</linearGradient>
</defs>
</svg>
