<svg width="383" height="424" viewBox="0 0 383 424" fill="none" xmlns="http://www.w3.org/2000/svg">
<path d="M382.261 158.301L0.738281 247.829V325.964L382.261 236.441V158.301Z" fill="#CD1719"/>
<path d="M186.315 39.9391C190.259 39.645 194.027 38.1881 197.143 35.7524C200.259 33.3168 202.583 30.012 203.82 26.2557C205.058 22.4995 205.154 18.4605 204.097 14.6496C203.039 10.8387 200.875 7.427 197.879 4.84587C194.882 2.26475 191.187 0.630126 187.262 0.148714C183.336 -0.332698 179.356 0.360724 175.825 2.14128C172.293 3.92184 169.369 6.70958 167.422 10.152C165.475 13.5944 164.592 17.5369 164.886 21.4809C165.28 26.7702 167.759 31.6863 171.778 35.1478C175.796 38.6093 181.025 40.3328 186.315 39.9391Z" fill="#CD1719"/>
<path d="M59.3785 126.102L77.1382 122.178C80.6121 121.413 81.247 120.416 81.2978 116.766C82.1905 106.29 91.2205 102.578 97.9553 101.092C106.535 99.1934 117.305 100.454 120.144 113.317C122.133 122.297 117.157 127.897 104.297 130.736L95.1079 132.766C91.4329 133.58 90.0049 135.821 90.631 138.681L93.6147 152.153C94.4277 155.829 95.6519 157.484 99.9361 156.537L109.53 154.418C123.618 151.306 132.296 154.74 134.69 165.564C137.122 176.584 127.46 183.215 118.88 185.115C112.151 186.6 100.211 186.886 94.9943 177.757C93.4021 174.466 92.3622 173.633 88.8913 174.398L70.7207 178.412C66.2328 179.403 65.1813 180.491 66.3572 185.801C69.9559 202.063 85.8312 212.633 104.325 214.632L145.709 205.517C145.806 205.463 145.913 205.419 146.01 205.365L184.065 197.046C188.553 196.055 189.916 194.471 190.472 189.211L193.07 166.337L202.579 164.233C203.823 163.964 230.72 157.634 239.541 155.638L242.638 160.765L251.914 175.627C254.631 180.168 256.541 181.032 261.029 180.038L282.461 175.3C286.952 174.308 286.232 171.041 284.668 168.822L212.53 56.5027C209.747 52.6238 207.251 51.0298 202.76 52.0244L183.164 56.3524C178.679 57.3485 176.88 59.8829 176.191 64.5338L164.016 152.528C161.741 147.832 158.329 143.779 154.089 140.738C149.849 137.696 144.917 135.762 139.74 135.111C147.563 130.811 153.227 118.638 150.427 105.981C143.93 76.5831 118.248 67.9157 90.6422 73.7977C64.9236 79.4871 47.5236 99.6002 52.3545 121.443C53.5249 126.757 54.8848 127.095 59.3785 126.102ZM201.443 92.5689L223.101 128.423L196.671 134.608L201.443 92.5689Z" fill="#CD1719"/>
<path d="M40.5333 301.415L34.9205 302.773L34.6085 276.558L34.4983 276.583L26.2247 304.872L20.9404 306.147L20.4219 262.535L26.0349 261.181L26.3465 287.458L26.4571 287.43L34.6199 259.107L40.0148 257.803L40.5333 301.415Z" fill="white"/>
<path d="M45.0752 256.582L50.688 255.227L50.9119 273.91L57.8481 272.234L57.6243 253.551L63.2371 252.196L63.7555 295.808L58.1428 297.162L57.9133 277.745L50.9769 279.421L51.2064 298.838L45.5937 300.194L45.0752 256.582Z" fill="white"/>
<path d="M79.4892 282.548L78.3359 282.827C76.6823 283.337 74.9147 283.346 73.2558 282.854C71.9553 282.364 70.8574 281.451 70.1389 280.261C69.4465 279.198 68.9895 277.999 68.7987 276.745C68.5575 275.136 68.4363 273.512 68.436 271.886C68.3658 269.759 68.5254 267.631 68.9121 265.539C69.2562 263.93 69.9128 262.404 70.8445 261.048C71.6711 259.788 72.7484 258.713 74.0093 257.888C75.2648 257.119 76.6371 256.559 78.0724 256.231L79.1718 255.965L79.0813 248.368L84.7509 247L84.8414 254.596L86.4935 254.197C87.8221 253.839 89.2062 253.734 90.5735 253.888C91.7899 254.075 92.9162 254.641 93.7922 255.505C94.7872 256.47 95.4904 257.695 95.821 259.04C96.2655 261.036 96.4746 263.077 96.4441 265.121C96.48 266.793 96.3996 268.465 96.2034 270.126C96.0099 271.564 95.589 272.962 94.9566 274.267C94.242 275.827 93.2049 277.218 91.9136 278.349C90.4492 279.548 88.7174 280.378 86.8646 280.767L85.1589 281.179L85.2694 290.612L79.5998 291.98L79.4892 282.548ZM79.4185 276.665L79.2426 261.844L78.0328 262.136C77.1052 262.319 76.2376 262.73 75.5082 263.331C74.9314 263.851 74.4933 264.506 74.2334 265.237C73.9541 266.046 73.7965 266.891 73.7657 267.746C73.7233 268.675 73.7062 269.653 73.7175 270.673C73.7317 271.775 73.7714 272.767 73.8364 273.653C73.8674 274.407 74.0547 275.146 74.3863 275.824C74.6812 276.382 75.1824 276.801 75.783 276.994C76.6569 277.206 77.572 277.175 78.4296 276.905L79.4185 276.665ZM84.9123 260.475L85.088 275.297L86.6293 274.926C87.5861 274.733 88.4869 274.327 89.2644 273.737C89.8612 273.248 90.3267 272.617 90.6187 271.902C90.9205 271.129 91.0891 270.31 91.1175 269.48C91.1599 268.568 91.177 267.562 91.1628 266.459C91.1514 265.44 91.1127 264.477 91.0467 263.572C91.0089 262.791 90.8314 262.022 90.5224 261.303C90.2674 260.722 89.7973 260.263 89.2107 260.022C88.3824 259.772 87.4973 259.782 86.6748 260.051L84.9123 260.475Z" fill="white"/>
<path d="M100.449 253.529C100.413 251.878 100.674 250.234 101.22 248.675C101.71 247.277 102.431 245.971 103.353 244.813C104.203 243.751 105.217 242.832 106.357 242.09C107.391 241.406 108.532 240.903 109.734 240.601C110.845 240.328 111.998 240.278 113.128 240.455C114.281 240.626 115.37 241.091 116.292 241.804C117.213 242.518 117.936 243.456 118.39 244.529C118.994 245.936 119.293 247.454 119.268 248.985L119.543 272.015C119.585 273.676 119.325 275.332 118.775 276.901C118.281 278.288 117.559 279.582 116.639 280.732C115.788 281.791 114.775 282.71 113.639 283.455C112.605 284.138 111.463 284.643 110.261 284.946C109.15 285.218 107.997 285.267 106.867 285.089C105.765 284.917 104.72 284.485 103.818 283.829C102.857 283.103 102.095 282.146 101.605 281.046C100.994 279.631 100.693 278.101 100.724 276.559L100.449 253.529ZM106.337 275.204C106.272 275.771 106.345 276.345 106.548 276.878C106.751 277.412 107.079 277.889 107.504 278.269C107.891 278.535 108.332 278.712 108.796 278.786C109.26 278.861 109.734 278.831 110.185 278.699C111.237 278.436 112.172 277.832 112.842 276.98C113.629 275.948 114.015 274.666 113.93 273.37L113.656 250.341C113.72 249.773 113.648 249.199 113.445 248.666C113.242 248.132 112.914 247.655 112.488 247.275C112.101 247.009 111.66 246.834 111.196 246.76C110.732 246.686 110.258 246.716 109.808 246.848C108.757 247.111 107.822 247.715 107.15 248.564C106.364 249.597 105.978 250.879 106.062 252.174L106.337 275.204Z" fill="white"/>
<path d="M124.097 237.496L132.518 235.465C133.847 235.108 135.232 235.003 136.601 235.155C137.817 235.341 138.942 235.907 139.816 236.773C140.814 237.735 141.518 238.96 141.848 240.306C142.292 242.304 142.5 244.347 142.468 246.393C142.505 248.064 142.426 249.736 142.23 251.396C142.036 252.833 141.614 254.229 140.981 255.534C140.267 257.095 139.23 258.486 137.938 259.616C136.473 260.815 134.742 261.645 132.889 262.034L130.027 262.725L130.228 279.754L124.615 281.108L124.097 237.496ZM129.956 256.846L132.654 256.194C133.611 256.002 134.512 255.595 135.289 255.004C135.886 254.516 136.353 253.886 136.646 253.172C136.948 252.399 137.116 251.581 137.142 250.751C137.184 249.84 137.201 248.83 137.187 247.728C137.176 246.708 137.137 245.744 137.071 244.838C137.035 244.056 136.859 243.287 136.55 242.568C136.293 241.988 135.822 241.53 135.235 241.289C134.406 241.04 133.522 241.051 132.699 241.319L129.781 242.024L129.956 256.846Z" fill="white"/>
<path d="M146.494 232.088L151.886 230.785L159.372 252.137L159.48 252.111L166.359 227.29L171.808 225.974L172.327 269.586L166.713 270.942L166.399 244.421L166.288 244.448L160.956 264.53L158.148 265.209L152.422 247.797L152.311 247.824L152.626 274.345L147.013 275.699L146.494 232.088Z" fill="white"/>
<path d="M183.308 223.196L187.986 222.067L197.254 263.567L191.641 264.921L189.881 255.948L182.231 257.795L180.69 267.566L175.077 268.922L183.308 223.196ZM185.824 235.183L185.717 235.21L183.149 251.676L188.765 250.32L185.824 235.183Z" fill="white"/>
<path d="M218.091 252.083L221.5 251.26L221.652 264.186L216.04 265.541L215.963 259.047L200.005 262.901L199.487 219.289L205.1 217.935L205.548 255.542L212.484 253.868L212.036 216.26L217.649 214.903L218.091 252.083Z" fill="white"/>
<path d="M245.844 251.831L240.231 253.186L239.919 226.972L239.809 226.999L231.535 255.288L226.254 256.562L225.735 212.951L231.348 211.595L231.66 237.872L231.77 237.845L239.933 209.522L245.325 208.219L245.844 251.831Z" fill="white"/>
<path d="M250.18 217.368C250.143 215.717 250.406 214.072 250.954 212.513C251.443 211.115 252.164 209.809 253.087 208.65C253.937 207.589 254.951 206.67 256.091 205.927C257.124 205.244 258.266 204.741 259.468 204.44C260.577 204.166 261.73 204.116 262.86 204.292C263.961 204.465 265.007 204.897 265.908 205.553C266.874 206.287 267.636 207.255 268.121 208.367C268.727 209.773 269.026 211.292 269 212.824L269.274 235.853C269.318 237.515 269.058 239.17 268.507 240.738C268.012 242.125 267.291 243.419 266.373 244.569C265.522 245.63 264.509 246.549 263.37 247.292C262.337 247.976 261.196 248.481 259.995 248.785C258.884 249.057 257.73 249.105 256.601 248.927C255.498 248.757 254.452 248.325 253.552 247.666C252.589 246.942 251.828 245.985 251.339 244.885C250.725 243.47 250.424 241.94 250.455 240.398L250.18 217.368ZM256.068 239.042C256.003 239.61 256.075 240.184 256.279 240.717C256.483 241.251 256.812 241.727 257.238 242.107C257.625 242.373 258.066 242.55 258.53 242.624C258.993 242.699 259.468 242.669 259.918 242.537C260.969 242.273 261.903 241.668 262.573 240.817C263.361 239.785 263.747 238.503 263.661 237.208L263.386 214.178C263.452 213.611 263.38 213.036 263.177 212.503C262.973 211.969 262.645 211.492 262.219 211.112C261.832 210.847 261.391 210.671 260.928 210.598C260.465 210.524 259.991 210.555 259.542 210.687C258.49 210.948 257.555 211.551 256.884 212.401C256.096 213.434 255.708 214.717 255.793 216.012L256.068 239.042Z" fill="white"/>
<path d="M273.833 201.335L279.446 199.98L279.67 218.663L286.603 216.989L286.379 198.305L291.992 196.948L292.511 240.56L286.898 241.917L286.668 222.5L279.735 224.174L279.965 243.591L274.352 244.947L273.833 201.335Z" fill="white"/>
<path d="M297.273 195.672L302.886 194.318L303.11 213.001L310.047 211.327L309.823 192.643L315.436 191.286L315.954 234.898L310.341 236.255L310.112 216.838L303.176 218.512L303.405 237.93L297.792 239.284L297.273 195.672Z" fill="white"/>
<path d="M320.508 200.382C320.473 198.73 320.735 197.087 321.281 195.528C321.771 194.129 322.492 192.823 323.415 191.665C324.266 190.604 325.279 189.685 326.418 188.942C327.452 188.258 328.594 187.755 329.796 187.453C330.906 187.179 332.06 187.129 333.19 187.307C334.292 187.478 335.336 187.911 336.236 188.569C337.203 189.301 337.966 190.269 338.452 191.38C339.055 192.787 339.353 194.306 339.328 195.837L339.602 218.867C339.645 220.528 339.386 222.183 338.837 223.751C338.342 225.139 337.62 226.434 336.701 227.585C335.85 228.644 334.837 229.562 333.7 230.307C332.666 230.989 331.524 231.493 330.323 231.798C329.212 232.071 328.058 232.12 326.928 231.942C325.826 231.771 324.781 231.339 323.88 230.681C322.918 229.957 322.156 229 321.667 227.9C321.054 226.484 320.753 224.954 320.783 223.411L320.508 200.382ZM326.396 222.057C326.332 222.624 326.404 223.198 326.608 223.732C326.812 224.265 327.14 224.741 327.566 225.122C327.953 225.388 328.394 225.564 328.858 225.639C329.321 225.713 329.796 225.683 330.247 225.551C331.298 225.288 332.233 224.683 332.904 223.832C333.689 222.799 334.075 221.517 333.989 220.223L333.715 197.193C333.779 196.626 333.708 196.052 333.505 195.518C333.302 194.985 332.975 194.508 332.55 194.127C332.162 193.862 331.721 193.687 331.258 193.613C330.794 193.539 330.32 193.569 329.87 193.7C328.818 193.963 327.884 194.566 327.212 195.416C326.425 196.449 326.037 197.731 326.121 199.027L326.396 222.057Z" fill="white"/>
<path d="M344.158 184.35L360.886 180.31L360.957 186.192L349.842 188.877L349.994 201.678L359.682 199.339L359.75 205.218L350.062 207.557L350.216 220.359L361.331 217.674L361.405 223.922L344.676 227.962L344.158 184.35Z" fill="white"/>
<path d="M377.558 150.879L335.804 128.262L337.333 158.962L377.558 150.879Z" fill="#717E86"/>
<path d="M344.372 252.347L344.894 330.943L56.0625 399.576L55.7462 320.075L1.16211 332.942L45.8843 350.145L46.395 410.018L48.5217 411.669L151.754 386.354L254.344 424L250.593 362.113L347.593 338.327L348.901 336.647L348.124 251.465L344.372 252.347Z" fill="#717E86"/>
<path d="M71.6868 374.36C72.3723 375.883 73.4329 377.208 74.7696 378.21C76.0211 379.121 77.4728 379.717 79.0027 379.949C80.5709 380.192 82.172 380.12 83.712 379.736C85.3768 379.311 86.9576 378.607 88.387 377.654C89.9659 376.62 91.3699 375.341 92.5464 373.865C93.8146 372.266 94.8085 370.467 95.4876 368.543C96.251 366.367 96.6082 364.069 96.5413 361.764L96.0711 329.82C96.1012 327.696 95.6801 325.591 94.8359 323.642C94.1576 322.101 93.0963 320.759 91.7532 319.745C90.4992 318.836 89.0456 318.241 87.5142 318.01C85.9479 317.767 84.3487 317.839 82.8108 318.223C81.1441 318.648 79.5614 319.352 78.1299 320.305C76.5536 321.339 75.1516 322.616 73.9763 324.089C72.6988 325.7 71.7043 327.515 71.0352 329.459C70.2809 331.622 69.9238 333.905 69.981 336.195L70.4517 368.139C70.4131 370.277 70.8344 372.399 71.6868 374.36ZM79.2577 329.279C80.1876 328.1 81.4803 327.261 82.9355 326.89C83.5604 326.706 84.2185 326.662 84.8623 326.763C85.5061 326.863 86.1196 327.105 86.6586 327.471C87.2494 327.999 87.7057 328.659 87.9895 329.399C88.2734 330.138 88.3766 330.934 88.2907 331.721L88.7552 363.665C88.8814 365.461 88.3519 367.242 87.265 368.677C86.336 369.858 85.0432 370.699 83.5872 371.069C82.9622 371.254 82.3039 371.297 81.66 371.196C81.016 371.095 80.4026 370.852 79.8641 370.485C79.2712 369.96 78.8133 369.3 78.5292 368.561C78.2452 367.822 78.1433 367.025 78.2321 366.238L77.7618 334.294C77.6379 332.496 78.1692 330.715 79.2577 329.279Z" fill="#717E86"/>
<path d="M114.216 371.768C118.65 370.944 122.6 368.453 125.255 364.807C127.667 360.886 128.817 356.318 128.547 351.722L128.507 349.005C128.841 344.876 127.529 340.783 124.858 337.617C122.501 335.351 118.78 334.839 113.695 336.082L110.867 336.77L110.623 320.121L126.037 316.356L125.918 308.198L102.724 313.867L103.613 374.36L114.216 371.768ZM114.358 344.619C115.512 344.272 116.732 344.207 117.916 344.431C118.743 344.625 119.47 345.114 119.962 345.806C120.477 346.612 120.804 347.523 120.92 348.472C121.098 349.691 121.192 350.92 121.203 352.151C121.228 353.419 121.17 354.687 121.027 355.947C120.919 357.026 120.623 358.079 120.155 359.058C119.686 359.993 119.002 360.803 118.16 361.422C117.099 362.173 115.896 362.7 114.624 362.971L111.264 363.79L110.997 345.438L114.358 344.619Z" fill="#717E86"/>
<path d="M174.634 357.001L174.771 366.43L181.56 364.771L181.299 346.843L175.502 348.259L174.745 296.263L166.957 298.166L167.735 351.012L159.646 352.988L158.871 300.142L151.089 302.045L151.867 354.891L143.781 356.867L143.003 304.021L135.222 305.924L136.112 366.416L174.634 357.001Z" fill="#717E86"/>
<path d="M210.414 348.256L210.286 339.59L194.877 343.356L194.616 325.599L208.041 322.315L207.922 314.159L194.497 317.44L194.236 299.686L209.645 295.92L209.526 287.762L186.333 293.431L187.22 353.925L210.414 348.256Z" fill="#717E86"/>
<path d="M217.748 339.556C218.432 341.021 219.494 342.277 220.825 343.194C222.066 344.001 223.5 344.461 224.979 344.524C226.495 344.607 228.015 344.466 229.49 344.104C231.243 343.67 232.887 342.876 234.318 341.773C235.809 340.636 237.119 339.28 238.205 337.752C239.31 336.189 240.176 334.469 240.772 332.649C241.372 330.849 241.667 328.961 241.645 327.063L241.594 323.323L233.808 325.226L233.853 328.201C233.889 329.245 233.749 330.287 233.439 331.285C233.19 332.07 232.798 332.802 232.284 333.444C231.446 334.448 230.321 335.17 229.059 335.511C227.28 335.946 226.037 335.653 225.33 334.631C224.564 333.381 224.184 331.932 224.237 330.466L223.789 299.543C223.716 297.737 224.015 295.935 224.667 294.25C225.013 293.484 225.543 292.815 226.209 292.303C226.875 291.791 227.658 291.451 228.487 291.314C229.11 291.11 229.779 291.097 230.41 291.277C231.04 291.456 231.602 291.821 232.023 292.323C232.95 293.486 233.434 294.941 233.389 296.427L233.428 299.312L241.214 297.409L241.163 294.015C241.166 292.104 240.812 290.21 240.121 288.429C239.543 286.92 238.619 285.568 237.423 284.482C236.282 283.478 234.899 282.788 233.411 282.478C231.765 282.146 230.065 282.197 228.441 282.629C226.597 283.07 224.852 283.858 223.302 284.951C221.775 286.026 220.437 287.346 219.341 288.858C218.232 290.396 217.378 292.103 216.813 293.913C216.228 295.771 215.947 297.711 215.98 299.659L216.467 332.962C216.401 335.228 216.838 337.48 217.748 339.556Z" fill="#717E86"/>
<path d="M252.514 285.44L253.286 337.776L261.065 335.875L260.296 283.54L269.299 281.34L269.18 273.182L243.398 279.484L243.517 287.642L252.514 285.44Z" fill="#717E86"/>
<path d="M284.106 330.244C288.539 329.421 292.488 326.93 295.14 323.284C297.552 319.362 298.702 314.794 298.432 310.197L298.381 306.8C298.476 304.296 297.995 301.803 296.976 299.513C296.564 298.704 295.985 297.991 295.278 297.422C294.571 296.853 293.751 296.44 292.873 296.21C293.687 295.476 294.441 294.678 295.129 293.825C295.784 293.007 296.338 292.113 296.777 291.161C297.241 290.133 297.572 289.049 297.764 287.937C297.989 286.533 298.084 285.11 298.047 283.688L298.013 281.484C297.997 279.603 297.727 277.732 297.208 275.923C296.755 274.305 295.901 272.828 294.726 271.626C293.524 270.448 292.013 269.635 290.368 269.28C288.247 268.874 286.059 268.971 283.982 269.565L272.614 272.343L273.498 332.837L284.106 330.244ZM291.071 309.611C291.094 311.082 291.063 312.453 290.98 313.725C290.918 314.906 290.651 316.068 290.193 317.158C289.746 318.177 289.062 319.075 288.198 319.777C287.109 320.603 285.848 321.173 284.509 321.446L281.154 322.266L280.871 302.897L284.305 302.059C285.42 301.728 286.594 301.644 287.745 301.812C288.557 301.962 289.286 302.406 289.79 303.06C290.337 303.834 290.68 304.733 290.788 305.674C290.968 306.979 291.063 308.294 291.071 309.611ZM283.721 277.815C286.311 277.181 288.113 277.423 289.127 278.539C290.311 280.212 290.868 282.249 290.703 284.292C290.839 286.578 290.413 288.864 289.462 290.948C288.897 291.864 288.14 292.647 287.243 293.241C286.345 293.836 285.329 294.228 284.265 294.39L280.757 295.247L280.514 278.598L283.721 277.815Z" fill="#717E86"/>
<path d="M306.57 316.951C307.254 318.475 308.315 319.8 309.653 320.801C310.903 321.714 312.355 322.31 313.886 322.538C315.452 322.782 317.051 322.709 318.589 322.326C320.256 321.901 321.839 321.198 323.27 320.245C324.847 319.21 326.249 317.931 327.424 316.456C328.695 314.859 329.691 313.06 330.371 311.134C331.132 308.957 331.487 306.659 331.419 304.354L330.954 272.41C330.983 270.286 330.56 268.181 329.713 266.233C329.038 264.692 327.978 263.35 326.636 262.336C325.382 261.427 323.929 260.833 322.398 260.602C320.831 260.357 319.232 260.429 317.694 260.812C316.027 261.237 314.445 261.942 313.013 262.895C311.436 263.928 310.034 265.206 308.86 266.681C307.582 268.291 306.585 270.107 305.913 272.05C305.158 274.213 304.802 276.496 304.864 278.786L305.329 310.73C305.295 312.868 305.718 314.989 306.57 316.951ZM314.141 271.87C315.069 270.688 316.362 269.848 317.819 269.48C318.444 269.296 319.102 269.252 319.745 269.353C320.389 269.453 321.003 269.695 321.542 270.061C322.133 270.588 322.589 271.249 322.873 271.988C323.157 272.727 323.26 273.524 323.174 274.311L323.638 306.255C323.763 308.052 323.231 309.832 322.142 311.267C321.216 312.45 319.922 313.291 318.465 313.658C317.84 313.843 317.182 313.886 316.538 313.786C315.894 313.685 315.28 313.443 314.742 313.076C314.151 312.549 313.694 311.889 313.41 311.15C313.126 310.411 313.023 309.615 313.11 308.828L312.645 276.884C312.518 275.086 313.05 273.304 314.141 271.87Z" fill="#717E86"/>
</svg>
