<svg width="288" height="277" viewBox="0 0 288 277" fill="none" xmlns="http://www.w3.org/2000/svg">
<path d="M253.495 127.295C258.212 131.477 263.745 133.3 268.746 131.692C277.959 128.732 281.866 115.28 277.471 101.645C273.077 88.0106 262.046 79.3576 252.834 82.3178C248.168 83.8171 244.872 88.0108 243.324 93.5553C241.85 98.6605 238.526 103.035 234 105.829C227.385 90.925 216.702 78.1813 203.172 69.0562L208.735 59.4426C210.366 56.6804 212.737 54.4283 215.582 52.9407C218.427 51.4531 221.631 50.7891 224.834 51.0238C234.599 51.624 242.837 48.4884 246.341 41.8753C252.09 31.0234 242.912 14.9162 225.841 5.89888C208.769 -3.11846 190.27 -1.63112 184.52 9.22094C181.328 15.2456 182.738 22.8893 187.545 30.0407C189.878 33.4997 191.266 37.5075 191.571 41.667C191.876 45.8265 191.087 49.9934 189.282 53.7547L186.229 60.0954C169.76 53.5804 151.693 52.2394 134.441 56.2514L131.945 46.4703C131.067 43.1934 130.96 39.7581 131.633 36.4331C132.305 33.1082 133.74 29.9838 135.823 27.3043C139.248 23.0311 140.664 18.2644 139.277 13.9597C136.43 5.12723 122.858 1.58629 108.964 6.05074C95.07 10.5152 86.1136 21.2949 88.9603 30.1275C90.4337 34.6992 94.7802 37.853 100.558 39.2126C103.389 39.904 106.01 41.2698 108.197 43.193C110.384 45.1163 112.072 47.5398 113.116 50.2564L117.699 61.9416C98.6359 70.6415 83.3488 85.9052 74.6353 104.939C70.3921 103.273 66.6245 100.59 63.6649 97.1268C60.7053 93.6636 58.6446 89.5265 57.6645 85.0802C55.2357 74.5834 49.4583 66.7559 41.2143 64.4796C26.2868 60.3585 8.93025 75.9965 2.44673 99.4082C-4.03662 122.82 2.80858 145.14 17.7361 149.262C25.7783 151.482 34.5236 147.965 41.8947 140.588C45.1863 137.283 49.1648 134.74 53.549 133.14C57.9331 131.54 62.6159 130.921 67.2661 131.327C64.8963 151.888 69.9262 172.62 81.457 189.819L71.4874 197.571C67.8821 200.434 63.6711 202.439 59.1739 203.435C54.6767 204.431 50.0114 204.391 45.532 203.318C39.1748 201.711 33.2554 202.5 29.1235 206.088C20.3583 213.698 22.9573 231.012 34.9292 244.759C46.9008 258.507 63.7116 263.482 72.477 255.872C76.9686 251.972 78.473 245.525 77.2625 238.315C76.5686 234.467 76.8295 230.508 78.0225 226.784C79.2154 223.059 81.3041 219.684 84.1057 216.952L95.51 206.042C111.895 220.809 133.258 228.858 155.328 228.579L155.885 238.144C155.982 240.293 155.577 242.435 154.702 244.401C153.826 246.367 152.504 248.102 150.841 249.469C148.847 250.996 147.262 252.99 146.225 255.275C145.189 257.56 144.734 260.066 144.9 262.569C145.878 271.734 156.475 278.121 168.57 276.835C180.665 275.549 189.678 267.077 188.7 257.912C188.377 255.604 187.517 253.404 186.189 251.487C184.862 249.571 183.103 247.991 181.055 246.873C178.733 245.522 176.739 243.675 175.217 241.463C173.694 239.252 172.68 236.732 172.248 234.083L171.176 226.882C174.46 226.232 177.705 225.395 180.894 224.377C197.264 219.142 211.714 209.183 222.42 195.756L224.89 197.554C227.484 199.447 229.507 202.016 230.739 204.979C231.97 207.943 232.362 211.187 231.873 214.358C230.246 224.996 233.022 234.446 240.133 238.947C251.413 246.085 269.322 238.064 280.134 221.031C290.945 203.998 290.565 184.403 279.285 177.265C272.723 173.113 263.921 174.092 255.577 178.989C252.126 181.069 248.198 182.231 244.17 182.365C240.141 182.499 236.145 181.6 232.563 179.754C241.163 162.338 243.68 142.548 239.71 123.539C242.142 123.048 244.655 123.132 247.049 123.784C249.442 124.436 251.65 125.638 253.495 127.295Z" fill="#E7FBFD"/>
</svg>
